<?xml version="1.0" encoding="utf-8"?>
<!-- Generator: Adobe Illustrator 22.0.1, SVG Export Plug-In . SVG Version: 6.00 Build 0)  -->
<svg version="1.1" id="Layer_1" xmlns="http://www.w3.org/2000/svg" xmlns:xlink="http://www.w3.org/1999/xlink" x="0px" y="0px"
	 viewBox="0 0 313.3 287" style="enable-background:new 0 0 313.3 287;" xml:space="preserve">
<style type="text/css">
	.st0{fill:#EFEBE5;}
	.st1{fill:#B1834F;}
</style>
<g>
	<path class="st0" d="M197.7,125.9c-0.7-0.4-1.4-0.3-1.8,0.1c-0.3,0.3-1.1,0.9-3.1,3c-0.1,0.1-0.3,0.3-0.4,0.4c0-0.8,0-1.6,0-2.3
		c0-1.3,0-2.4,0-3c0-3.2-0.7-4.1-1.1-4.6c-0.2-0.2-0.4-0.4-0.6-0.4c-0.4,0-0.7,0.3-1.1,0.7c-0.2,0.2-0.8,0.7-1.4,1.2
		c-0.5,0.4-1.1,0.9-1.4,1.2c-0.4,0.4-0.2,0.7,0,1c0.1,0.2,0.2,0.3,0.3,0.5l0.1,0.2c0.2,0.2,0.2,0.3,0.3,1.1c0,0.8,0.1,7.8,0.1,8.7
		c0,0.1,0,0.2,0,0.4h0c0,3.9,0.5,8.3,4,10.9c1.2,0.9,2,1.4,3.7,2.3c0.4,0.2,0.8,0.4,1.1,0.4c0,0,0,0,0,0c0,0,0,0,0,0
		c0.3,0,0.5-0.1,0.8-0.3c0,0,0,0,0,0c0,0,0,0,0,0l0,0c3-2.5,6.5-6.7,6.5-11.9C203.7,130.1,200.7,127.6,197.7,125.9z M192.3,134
		c0-1.6,0.6-3.2,1.6-4.3c0.2-0.2,0.3-0.3,0.5-0.3c0.1,0,0.3,0.1,0.5,0.2c2.9,1.6,4.7,3.7,5.4,6.3c0.8,3.1-0.2,6-0.7,6.7
		c-0.3,0.5-0.6,0.9-0.9,0.9c-0.3,0.1-0.7,0-1.2-0.4c-4.4-2.8-5.2-4.6-5.2-8.8C192.3,134.2,192.3,134.1,192.3,134z"/>
	<path class="st0" d="M227.1,136.9c-1-2.3-2.7-3.2-4.4-4.1c-1.3-0.7-2.6-1.4-3.4-2.6c-0.4-0.7-0.1-1.5,0.2-1.8
		c0.1-0.1,0.3-0.2,0.4-0.1c2.5,2.2,4.6,3.3,5.4,2.8c0.7-0.4,1.6-1.8,1.9-2.3c0.1-0.1,0.1-0.3,0.1-0.4c0-0.1-0.1-0.2-0.3-0.3
		c-1.7-0.8-3.7-1.9-4.9-2.8c-0.3-0.2-0.7-0.3-1.1,0.1c-0.3,0.2-0.5,0.4-0.8,0.6c-2.2,1.8-3.7,3-3.7,6.4c0,2,1.5,3.7,4.6,5.1
		c2.1,1,3.5,2.3,3.9,3.6c0.2,0.8,0.1,1.5-0.4,2.2c-0.1,0.1-0.2,0.2-0.3,0.2c-0.4,0.1-1-0.2-1.7-0.7c-1.3-0.9-2.9-2-5.1-3.3
		c-0.2-0.1-0.4-0.1-0.5-0.1c-0.1,0-0.3,0.1-0.4,0.4c-0.1,0.2-1.2,1.9-1.5,2.4c-0.2,0.3-0.3,0.5-0.2,0.8c0.1,0.2,0.2,0.5,0.5,0.6
		c0.1,0.1,0.3,0.2,0.7,0.4c0.9,0.5,2.5,1.4,4,2.4l0.2,0.1c0.3,0.2,0.7,0.5,1.2,0.5c0.3,0,0.6-0.1,1-0.3
		C227.7,143.7,228.3,139.6,227.1,136.9z"/>
	<path class="st0" d="M211.6,126.7c-0.3-0.3-0.5-0.7-0.7-0.8c-0.2-0.2-0.4-0.4-0.7-0.4c0,0,0,0,0,0c-0.3,0-0.5,0.1-0.8,0.4
		c-0.4,0.4-1.4,0.9-2.2,1.3c-0.2,0.1-0.4,0.2-0.6,0.3c-0.2,0.1-0.3,0.3-0.3,0.4c0,0.1,0,0.3,0.2,0.4c0,0,0.1,0.1,0.1,0.1
		c0.3,0.3,0.8,0.6,0.8,1.7c0,1.1,0,2.2,0,3.4c0,4.6,0,9.3-0.3,12.2c-0.1,0.4,0,0.7,0.1,0.9c0.2,0.2,0.4,0.2,0.6,0.2h4
		c0.3,0,0.5,0,0.6-0.2c0.1-0.2,0.1-0.4,0-0.8c-0.1-0.3-0.1-0.7-0.2-1.3c-0.2-2.6-0.1-13.9-0.1-14c0-0.8,0.1-1.3,0.5-1.6
		c0.2-0.2,0.2-0.6,0-0.9C212.4,127.6,212,127.1,211.6,126.7z"/>
	<path class="st0" d="M210.2,124.1c0.6,0,1.1-0.1,1.3-0.2c0.2-0.1,0.7-0.3,0.7-0.6c0-0.1,0-0.4-0.4-0.5c-1-0.5-1.5-1.6-1.6-3.1
		l0-0.1c0-0.2-0.1-0.4-0.3-0.5c-0.3-0.1-0.7,0-0.9,0.2v0c-0.5,0.4-1.5,1-2.1,1.2c-0.3,0.1-0.5,0.3-0.6,0.5c-0.1,0.3,0.1,0.6,0.1,0.7
		C207.6,123.6,209.1,124.1,210.2,124.1z"/>
	<path class="st0" d="M163.9,131.3c0-0.5,0.2-0.7,0.3-0.9c0.3-0.4,0.3-0.7-0.4-1.2c-2-1.5-3.8-2.9-4.4-3.5c-0.6-0.5-1.1-0.3-1.5,0.1
		l-0.1,0.1c-1.6,1.4-2.7,2.3-3.1,2.6c-0.6,0.5-0.8,0.3-1.3,0c-0.4-0.3-1.5-1.4-2-1.9c-0.2-0.3-0.4-0.4-0.7-0.4c0,0,0,0,0,0
		c-0.3,0-0.5,0.2-0.7,0.4c-0.1,0.1-1.5,1.3-2,1.9c-0.3,0.3-0.4,0.5-0.4,0.7c0,0.2,0.2,0.3,0.3,0.4c0,0,0.1,0,0.1,0.1
		c0.7,0.5,0.7,0.9,0.7,1.7v0.2c0,0.2,0,0.7,0,1.5c0,3.3,0.1,11.9,0,12.5l0,0.2c-0.1,0.6-0.2,0.9,0,1.1c0.1,0.1,0.2,0.2,0.4,0.2h4.1
		c0.2,0,0.4,0,0.5-0.2c0.1-0.2,0.1-0.4,0-0.9l-0.1-0.3c-0.2-0.9-0.2-10.8-0.2-13.2c0-0.9,0.1-1.1,0.3-1.3l0.1-0.1
		c0.2-0.3,1.3-1.1,1.8-1.5c0.3-0.3,0.6-0.3,0.8-0.1c0.3,0.2,1.7,1.4,2,1.7c0.5,0.4,0.5,0.7,0.5,1.3c0,0.1,0.1,9.6,0,12.9
		c0,0.7,0,1.1,0.2,1.3c0.2,0.2,0.4,0.2,0.7,0.2h3.6c0.2,0,0.5,0,0.7-0.2c0.2-0.2,0.1-0.5,0.1-1c0-0.2-0.1-0.4-0.1-0.7
		c-0.2-2.2-0.2-9.1-0.2-12.4L163.9,131.3z"/>
	<path class="st0" d="M143.5,131.3c0-0.5,0.2-0.7,0.3-0.9c0.3-0.4,0.3-0.7-0.4-1.2c-2.2-1.6-4.1-3.2-4.4-3.5c-0.6-0.5-0.9-0.3-1.2,0
		c-0.3,0.3-2.7,2.3-3.5,2.8c-0.6,0.5-0.8,0.3-1.3,0c-0.4-0.3-1.5-1.4-2-1.9c-0.2-0.3-0.4-0.4-0.7-0.4c0,0,0,0,0,0
		c-0.3,0-0.5,0.2-0.7,0.4c-0.1,0.1-1.5,1.3-2,1.9c-0.3,0.3-0.4,0.5-0.4,0.7c0,0.2,0.2,0.3,0.3,0.4c0,0,0.1,0,0.1,0.1
		c0.7,0.5,0.7,0.9,0.7,1.7v0.2c0,0.2,0,0.7,0,1.5c0,3.3,0.1,11.9,0,12.5l0,0.2c-0.1,0.6-0.2,0.9,0,1.1c0.1,0.1,0.2,0.2,0.4,0.2h4.1
		c0.2,0,0.4,0,0.5-0.2c0.1-0.2,0.1-0.4,0-0.9l-0.1-0.3c-0.2-0.9-0.2-10.8-0.2-13.2c0-0.9,0.1-1.1,0.3-1.3l0.1-0.1
		c0.2-0.3,1.3-1.1,1.8-1.5c0.3-0.3,0.6-0.3,0.8-0.1c0.3,0.2,1.7,1.4,2,1.7c0.5,0.4,0.5,0.7,0.5,1.3c0,0.1,0.1,9.6,0,12.9
		c0,0.7,0,1.1,0.2,1.4c0.2,0.2,0.4,0.2,0.7,0.2h3.6c0.2,0,0.5,0,0.7-0.2c0.2-0.2,0.1-0.5,0.1-1c0-0.2-0.1-0.4-0.1-0.7
		c-0.2-2.2-0.2-9.1-0.2-12.4L143.5,131.3z"/>
	<path class="st0" d="M104.7,121.5c-3-1.1-4.1-1.8-5.6-2.9c-0.4-0.3-0.9-0.3-1.4,0c-1.3,0.8-2.7,1.8-4.4,3.2
		c-1.9,1.5-7.6,6.2-7.6,13.5c0,3.3,1.2,6.1,3.4,8.3c2.3,2.2,5.6,3.5,9.1,3.5c0.2,0,0.3,0,0.5,0c2.1-0.1,2.6-0.2,3-0.9l0.1-0.2
		c1.7-2.9,2.6-4.5,2.8-4.8c0.1-0.2,0.1-0.4-0.1-0.5c-0.2-0.2-0.4-0.2-0.7,0c-0.2,0.1-0.3,0.2-0.5,0.3c-1.1,0.7-1.8,1.2-4.2,1.2
		c-5.4,0-8.3-5-8.3-9.9c0-3.1,1.3-6.4,3.6-9.3c0.4-0.5,0.8-0.6,1.3-0.3c0.4,0.3,3.8,2,5.1,2.6c1.3,0.6,2.1,0.6,2.6,0l0.3-0.3
		c0.5-0.5,1.4-1.4,1.9-1.9c0.2-0.2,0.5-0.5,0.4-0.8C105.9,122,105.5,121.8,104.7,121.5z"/>
	<path class="st0" d="M124.4,142.2c-0.3-0.3-0.6-0.6-0.9-0.9c-0.3-0.4-0.4-0.6-0.4-1.2v-9.5c0-1.3-0.3-1.9-1.2-3
		c-1.1-1.3-2.3-1.3-3.2-1.3l-0.2,0c-2.1,0-4.9,0-6-0.2c-0.7-0.1-0.9,0.2-1.3,0.6c-0.1,0.1-0.4,0.4-0.7,0.7c-0.5,0.5-1.1,1.1-1.5,1.5
		c-0.4,0.4-0.4,0.8-0.2,1c0.2,0.2,0.5,0.4,0.9,0.2c1.9-0.9,3.6-1.5,5.9-1.5c1.6,0,1.7,0.2,1.8,0.5l0,0c0,0.4-1,0.8-2.1,1.3
		c-0.9,0.4-1.8,0.8-2.7,1.3c-3.8,2.5-4.8,5.8-4.9,8.1c-0.1,2.8,3,5.8,3.9,6.6c0.5,0.4,1,0.6,1.5,0.6c0.4,0,0.9-0.2,1.3-0.5
		c0.5-0.4,1.6-1.4,2.5-2.2l0.8-0.8c0.4-0.4,0.7-0.6,1.1-0.6c0.3,0,0.4,0.2,0.5,0.3c0.1,0.1,0.3,0.4,0.5,0.8c0.4,0.5,0.9,1.2,1.1,1.6
		l0.1,0.1c0.3,0.5,0.7,1,1.1,1c0,0,0,0,0,0c0.3,0,0.5-0.2,0.7-0.5c0.5-0.7,1.4-1.7,1.9-2.3c0.1-0.1,0.2-0.3,0.3-0.4
		c0.3-0.3,0.5-0.8,0-1.2C124.6,142.4,124.5,142.3,124.4,142.2z M117.8,141.3L117.8,141.3c-0.1,0.1-0.3,0.2-0.5,0.4
		c-0.6,0.5-1.4,1.2-1.8,1.2c-0.4,0-1.5,0-3-3c-1.4-2.8,0.2-6.1,2.4-7.7c1.1-0.8,2-1,2.6-1c0.6,0,0.9,0.2,0.9,1.3v7.9
		C118.3,140.8,118.3,140.9,117.8,141.3L117.8,141.3z"/>
	<path class="st0" d="M184.1,142.2c-0.3-0.3-0.6-0.6-0.9-0.9c-0.3-0.4-0.4-0.6-0.4-1.2v-8.8c0-1.5-0.4-2.6-1.2-3.6
		c-1.1-1.3-2.3-1.3-3.2-1.3l-0.2,0c-2.1,0-4.9,0-6-0.2c-0.7-0.1-0.9,0.2-1.3,0.6c-0.1,0.1-0.4,0.4-0.7,0.7c-0.5,0.5-1.2,1.1-1.6,1.5
		c-0.4,0.4-0.4,0.8-0.2,1c0.2,0.2,0.5,0.4,0.9,0.2c1.9-0.9,3.6-1.5,5.9-1.5c1.5,0,1.7,0.2,1.8,0.5v0c0,0.4-1.4,1.4-3.1,2.4
		c-0.7,0.4-1.4,0.9-2.2,1.4c-3.3,2.2-4.7,4.3-4.4,6.9c0.3,2.9,2.6,5.4,3.9,6.6c0.5,0.4,1,0.6,1.5,0.6c0.4,0,0.9-0.2,1.3-0.5
		c0.5-0.4,1.6-1.4,2.5-2.2l0.8-0.8c0.4-0.4,0.7-0.6,1.1-0.6c0.3,0,0.4,0.2,0.5,0.3c0.1,0.1,0.3,0.4,0.5,0.8c0.4,0.5,0.9,1.2,1.1,1.6
		l0.1,0.1c0.3,0.5,0.7,1,1.1,1c0,0,0,0,0,0c0.3,0,0.5-0.2,0.7-0.5c0.5-0.7,1.4-1.7,1.9-2.3c0.1-0.1,0.2-0.3,0.3-0.4
		c0.3-0.3,0.5-0.8,0-1.2C184.4,142.4,184.3,142.3,184.1,142.2z M177.6,141.3L177.6,141.3c-0.1,0.1-0.3,0.2-0.5,0.4
		c-0.6,0.5-1.4,1.2-1.8,1.2c-0.6,0-1.4,0-3.3-3.5c-1.2-2.3-0.5-4.1,2.4-6.2c1-0.8,2.5-1.4,3.2-1.4c0.4,0,0.5,0.1,0.5,0.5v8.2
		C178.1,140.8,178.1,140.9,177.6,141.3L177.6,141.3z"/>
</g>
<g>
	<g>
		<path class="st0" d="M10.5,116.9c-0.4,0-0.9,0-1.3,0.1c-0.4,0.1-0.8,0.2-1.2,0.3c-0.4,0.1-0.8,0.2-1.3,0.3
			c-0.4,0.1-0.9,0.1-1.3,0.1c0-0.5,0.1-1,0.2-1.5c0.1-0.5,0.3-0.9,0.5-1.4c0.2-0.4,0.4-0.9,0.6-1.3c0.2-0.4,0.4-0.9,0.5-1.4V85.5
			c0-0.6-0.1-1.2-0.2-1.8c-0.1-0.6-0.3-1.1-0.5-1.6S6.2,81,6.1,80.5c-0.1-0.5-0.2-1.1-0.2-1.7c0.1,0,0.3,0,0.7,0.1
			C6.9,79,7.3,79,7.7,79.1c0.4,0.1,0.9,0.1,1.3,0.2s0.9,0.1,1.2,0.1c0.8,0,1.6-0.1,2.3-0.2c0.7-0.1,1.4-0.3,2.1-0.4s1.4-0.3,2.1-0.4
			c0.7-0.1,1.4-0.2,2.1-0.2c1.6,0,3,0.3,4.3,0.9c1.3,0.6,2.3,1.4,3.2,2.5c0.9,1,1.6,2.2,2,3.6s0.7,2.7,0.7,4.2
			c0,0.9-0.1,1.8-0.3,2.6c-0.2,0.9-0.5,1.7-0.9,2.4s-0.9,1.5-1.5,2.1c-0.6,0.7-1.3,1.2-2.2,1.7c0.8,0.5,1.6,1,2.2,1.7
			c0.6,0.7,1.1,1.4,1.5,2.2c0.4,0.8,0.7,1.6,0.9,2.5c0.2,0.9,0.3,1.8,0.3,2.7c0,1.3-0.2,2.6-0.6,3.9c-0.4,1.3-1,2.4-1.8,3.4
			s-1.8,1.8-3,2.3c-1.2,0.6-2.5,0.9-4.1,0.9c-0.8,0-1.6,0-2.4-0.1c-0.8-0.1-1.5-0.2-2.3-0.3c-0.8-0.1-1.5-0.2-2.2-0.3
			C12,116.9,11.3,116.9,10.5,116.9z M15,95.6c1.4,0,2.4-0.1,3.2-0.4c0.8-0.3,1.4-0.7,1.8-1.2c0.4-0.5,0.7-1.2,0.8-1.9
			c0.1-0.7,0.2-1.5,0.2-2.3c0-0.7-0.1-1.3-0.2-1.9c-0.1-0.6-0.3-1.2-0.7-1.6c-0.3-0.5-0.7-0.8-1.2-1.1c-0.5-0.3-1.1-0.4-1.8-0.4
			c-0.3,0-0.6,0-1,0.1c-0.3,0.1-0.7,0.2-1.1,0.3V95.6z M15,111.1c0.4,0.2,0.8,0.4,1.1,0.5c0.3,0.1,0.7,0.1,1,0.1
			c0.6,0,1.1-0.2,1.6-0.5c0.5-0.3,0.9-0.8,1.2-1.3c0.3-0.5,0.6-1.1,0.7-1.8c0.2-0.7,0.2-1.4,0.2-2.1c0-0.7-0.1-1.4-0.2-2
			c-0.2-0.7-0.4-1.2-0.7-1.8c-0.3-0.5-0.8-0.9-1.2-1.2c-0.5-0.3-1.1-0.5-1.8-0.5c-0.3,0-0.6,0-0.9,0.1c-0.3,0.1-0.7,0.2-1,0.3V111.1
			z"/>
	</g>
	<g>
		<path class="st0" d="M55.8,94.5c0-0.4,0-0.8,0.1-1.2c0.1-0.4,0.1-0.8,0.2-1.2c0.1-0.4,0.2-0.8,0.2-1.2c0.1-0.4,0.1-0.8,0.1-1.2
			c0-0.6-0.1-1.1-0.3-1.7h-6.6c-0.1,0.4-0.2,0.8-0.3,1.1c0,0.4-0.1,0.8-0.1,1.2c0,0.9,0.2,1.8,0.5,2.7c0.3,0.9,0.8,1.7,1.4,2.3
			c-0.1,0-0.2,0-0.3,0c-0.1,0-0.2,0-0.3,0c-0.5,0-1-0.1-1.5-0.2c-0.5-0.1-1-0.2-1.4-0.4c-0.5-0.1-1-0.3-1.4-0.4
			c-0.5-0.1-1-0.2-1.5-0.2c-0.4,0-0.8,0-1.2,0.1c-0.4,0.1-0.7,0.2-1.1,0.3c-0.4,0.1-0.7,0.2-1.1,0.3c-0.4,0.1-0.7,0.1-1.1,0.1H40
			c0.5-0.4,1-1,1.5-1.9c0.5-0.9,0.9-2,1.3-3.3c0.4-1.3,0.8-2.7,1.1-4.3c0.4-1.6,0.7-3.3,1-5c0.3-1.8,0.6-3.6,1-5.4
			c0.3-1.9,0.6-3.7,1-5.5c0.3-1.8,0.7-3.6,1-5.3c0.4-1.7,0.7-3.3,1.1-4.8c0-0.3,0-0.6-0.1-0.9c-0.1-0.3-0.2-0.6-0.3-0.8
			c-0.1-0.3-0.2-0.6-0.3-0.8s-0.1-0.6-0.1-1c0.5,0,1,0.1,1.5,0.2c0.5,0.1,0.9,0.3,1.4,0.4c0.5,0.1,0.9,0.3,1.4,0.4
			c0.5,0.1,1,0.2,1.5,0.2c0.6,0,1.1-0.1,1.6-0.2s1-0.3,1.4-0.4c0.5-0.1,0.9-0.3,1.4-0.4c0.5-0.1,1-0.2,1.5-0.2c0,0.4,0,0.8-0.1,1.2
			c-0.1,0.4-0.2,0.8-0.3,1.2c-0.1,0.4-0.2,0.8-0.3,1.2c-0.1,0.4-0.1,0.9-0.1,1.4c0.3,1.4,0.7,3,1,4.6c0.3,1.7,0.7,3.4,1,5.2
			c0.3,1.8,0.7,3.6,1,5.4c0.3,1.8,0.7,3.6,1,5.3c0.3,1.7,0.7,3.4,1,4.9s0.7,2.9,1,4.1c0.3,1.2,0.7,2.2,1.1,3s0.7,1.3,1.1,1.6
			c-0.5,0-1.1,0-1.7-0.1c-0.6-0.1-1.2-0.2-1.8-0.3s-1.2-0.2-1.8-0.3c-0.6-0.1-1.2-0.1-1.8-0.1c-0.7,0-1.4,0.1-2.1,0.2
			C57.3,94.4,56.6,94.5,55.8,94.5z M50.2,82.8h5l-2.4-12.9L50.2,82.8z"/>
	</g>
	<g>
		<path class="st0" d="M83.4,65.7c0,0.5,0.1,1,0.4,1.3s0.6,0.7,1,1s0.8,0.5,1.3,0.6c0.5,0.1,0.9,0.2,1.3,0.2c0.6,0,1.2-0.1,1.8-0.4
			c0.6-0.3,1.1-0.6,1.5-1c0.4-0.4,0.8-0.9,1-1.5c0.3-0.6,0.4-1.2,0.4-1.8c0-0.3,0-0.7-0.1-1c-0.1-0.3-0.2-0.6-0.3-0.9
			c-0.1-0.3-0.2-0.6-0.3-0.9c-0.1-0.3-0.1-0.6-0.1-1c0-0.3,0.2-0.5,0.5-0.5c0.8,0,1.4,0.2,2,0.6c0.6,0.4,1,0.9,1.4,1.5
			c0.4,0.6,0.7,1.3,0.8,2c0.2,0.7,0.3,1.5,0.3,2.1c0,1.3-0.3,2.5-0.7,3.6c-0.5,1.1-1.2,2.1-2,3s-1.8,1.6-3,2.1
			c-1.1,0.5-2.3,0.8-3.6,0.8c-0.8,0-1.7-0.1-2.5-0.2c-0.9-0.2-1.7-0.4-2.6-0.7c-0.8-0.3-1.6-0.7-2.4-1.2c-0.8-0.5-1.4-1-2-1.6
			c-0.6-0.6-1-1.3-1.4-2.1c-0.3-0.8-0.5-1.6-0.5-2.6V46c0-1.2,0.3-2.4,0.8-3.6c0.5-1.2,1.3-2.2,2.2-3.1c0.9-0.9,1.9-1.7,3.1-2.2
			c1.2-0.6,2.4-0.8,3.6-0.8c0.6,0,1.2,0.1,1.8,0.2s1.2,0.2,1.8,0.4c0.6,0.1,1.2,0.3,1.7,0.4c0.6,0.1,1.2,0.2,1.8,0.2
			c0.6,0,1.2-0.1,1.8-0.2c0.6-0.1,1.2-0.3,1.8-0.6c0,0.6-0.1,1.1-0.3,1.7s-0.3,1.1-0.5,1.7s-0.4,1.1-0.6,1.7
			c-0.2,0.6-0.3,1.1-0.5,1.7c-0.2,0.8-0.4,1.6-0.5,2.4c-0.1,0.8-0.2,1.7-0.3,2.5c-0.1,0.3-0.2,0.6-0.2,0.9c-0.1,0.3-0.1,0.6-0.2,0.9
			c-0.1,0.3-0.1,0.6-0.2,0.9s-0.2,0.5-0.4,0.8c-0.1-0.5-0.3-1.1-0.5-1.7c-0.2-0.6-0.3-1.2-0.5-1.9c-0.2-0.6-0.4-1.2-0.7-1.8
			s-0.6-1.1-1-1.5c-0.4-0.4-0.8-0.8-1.4-1.1s-1.2-0.4-1.9-0.4c-0.4,0-0.7,0.1-1.1,0.2c-0.4,0.2-0.7,0.4-1,0.6
			c-0.3,0.3-0.5,0.6-0.7,0.9c-0.2,0.4-0.3,0.7-0.3,1.1V65.7z"/>
	</g>
	<g>
		<path class="st0" d="M108.8,20.7c-0.2-0.5-0.4-0.9-0.6-1.4c-0.2-0.4-0.5-0.8-0.6-1.2c-0.2-0.4-0.3-0.8-0.3-1.2
			c0.5,0,1.1,0.1,1.6,0.2c0.5,0.1,1,0.2,1.5,0.4c0.5,0.1,1,0.3,1.6,0.4c0.5,0.1,1.1,0.2,1.7,0.2c0.5,0,1,0,1.5-0.1
			c0.5-0.1,0.9-0.2,1.4-0.3c0.5-0.1,0.9-0.2,1.3-0.3c0.4-0.1,0.9-0.1,1.4-0.1c-0.4,0.9-0.8,1.8-1.2,2.7c-0.4,0.9-0.7,1.9-0.9,2.8
			v11.7c0.5-1.2,1-2.3,1.6-3.5c0.6-1.2,1.1-2.4,1.7-3.6c0.5-1.2,1-2.4,1.4-3.6c0.4-1.2,0.6-2.5,0.7-3.8c0-0.3,0-0.5-0.1-0.8
			c-0.1-0.2-0.1-0.4-0.2-0.6c-0.1-0.2-0.1-0.4-0.2-0.6c-0.1-0.2-0.1-0.4-0.1-0.7c0.2,0,0.4,0,0.7,0.1c0.3,0.1,0.6,0.1,0.9,0.2
			c0.4,0.1,0.8,0.1,1.3,0.2c0.5,0.1,1.1,0.1,1.9,0.1c1.1,0,2.1-0.1,3-0.3c0.9-0.2,1.6-0.3,2.3-0.3c-0.9,1.1-1.8,2.2-2.4,3.4
			c-0.7,1.2-1.3,2.5-1.8,3.8c-0.5,1.3-1.1,2.6-1.6,3.9c-0.5,1.3-1,2.6-1.6,3.9c0.8,2,1.5,4,2.2,6s1.4,4,2.2,6.1s1.5,4,2.3,6
			c0.8,2,1.8,3.9,2.8,5.8c0,0.1-0.1,0.2-0.2,0.3c-0.1,0-0.2,0-0.3,0c-0.5,0-1,0-1.5-0.1c-0.5-0.1-0.9-0.2-1.3-0.3
			c-0.4-0.1-0.9-0.2-1.3-0.3c-0.4-0.1-0.9-0.1-1.4-0.1c-0.5,0-0.9,0-1.4,0.1c-0.5,0.1-0.9,0.1-1.4,0.2c-0.5,0.1-0.9,0.1-1.4,0.2
			c-0.5,0.1-1,0.1-1.5,0.1c0-0.3,0-0.6,0.1-0.8c0.1-0.2,0.2-0.5,0.3-0.7c0.1-0.3,0.2-0.5,0.3-0.9s0.1-0.7,0.1-1.2
			c-0.1-0.9-0.3-1.9-0.6-2.8s-0.6-1.8-0.9-2.8c-0.3-0.9-0.7-1.8-1-2.7c-0.4-0.9-0.7-1.8-1-2.8c-0.7,1.3-1.3,2.6-1.9,4
			c-0.6,1.4-1,2.8-1.3,4.3c0,0.8,0.2,1.6,0.4,2.3c0.3,0.7,0.5,1.3,0.8,1.9s0.6,1,0.8,1.4c0.2,0.4,0.4,0.6,0.4,0.8
			c-0.6,0-1.1,0-1.5-0.1c-0.5-0.1-0.9-0.2-1.4-0.3c-0.5-0.1-1-0.2-1.5-0.3c-0.5-0.1-1.2-0.1-1.9-0.1c-0.6,0-1.1,0-1.6,0.1
			c-0.5,0.1-0.9,0.2-1.3,0.3c-0.4,0.1-0.9,0.2-1.3,0.3c-0.4,0.1-0.9,0.1-1.4,0.1c0-0.5,0.1-1,0.3-1.4c0.2-0.4,0.4-0.8,0.6-1.3
			c0.2-0.5,0.4-1,0.6-1.6c0.2-0.6,0.3-1.3,0.3-2.2V22.2C109.1,21.7,109,21.2,108.8,20.7z"/>
	</g>
	<g>
		<path class="st0" d="M145.7,0c0.1,0,0.2,0,0.3,0s0.2,0,0.3,0c0.4,0,0.7,0,1,0.1s0.7,0.2,1,0.3c0.3,0.1,0.7,0.2,1,0.3
			S150,1,150.4,1c0.6,0,1.2,0,1.7-0.1s1.1-0.2,1.6-0.3c0.5-0.1,1-0.2,1.5-0.3c0.5-0.1,1-0.1,1.6-0.1c0.6,0,1.2,0,1.7,0.1
			c0.6,0.1,1.1,0.2,1.7,0.3c0.6,0.1,1.2,0.2,1.7,0.3c0.6,0.1,1.2,0.1,1.8,0.1c0.5,0,0.9,0,1.4-0.1c0.5-0.1,0.9-0.2,1.4-0.3
			s0.9-0.2,1.4-0.3c0.5-0.1,1-0.1,1.4-0.1c0,0.5-0.1,1.1-0.3,1.9c-0.2,0.8-0.4,1.7-0.7,2.7s-0.5,2-0.7,3s-0.3,2-0.3,2.9
			c0,0.8,0.1,1.5,0.2,2.2c0.1,0.6,0.2,1.3,0.2,1.9c0,0.2,0,0.3,0,0.5c0,0.2,0,0.3-0.1,0.5v0.1c-0.3-0.7-0.6-1.3-1-2.1
			c-0.3-0.7-0.7-1.5-1.1-2.2c-0.4-0.7-0.8-1.4-1.3-2.1c-0.5-0.7-1-1.3-1.6-1.8c-0.6-0.5-1.2-0.9-1.9-1.2S159.5,6,158.6,6
			c-0.3,0-0.6,0-1,0.1c-0.3,0.1-0.7,0.2-1,0.3c-0.3,0.2-0.5,0.4-0.7,0.6c-0.2,0.3-0.3,0.6-0.3,0.9v9.4c1.3,0,2.3-0.1,3-0.4
			c0.8-0.3,1.4-0.6,1.9-0.9c0.5-0.3,0.9-0.6,1.2-0.9s0.7-0.4,1-0.4c0,0.5,0,1-0.1,1.5c-0.1,0.4-0.2,0.9-0.3,1.3s-0.2,0.9-0.3,1.3
			c-0.1,0.4-0.1,0.9-0.1,1.4c0,0.4,0,0.8,0.1,1.2c0.1,0.4,0.2,0.8,0.3,1.2c0.1,0.4,0.2,0.8,0.3,1.2c0.1,0.4,0.1,0.8,0.1,1.2
			c-0.6,0-1-0.1-1.4-0.4c-0.4-0.3-0.9-0.6-1.3-0.9c-0.5-0.3-1-0.7-1.7-0.9c-0.7-0.3-1.5-0.4-2.5-0.4v12c0,0.5,0.1,0.9,0.3,1.3
			s0.5,0.8,0.7,1.3c0.3,0.4,0.5,0.8,0.7,1.2c0.2,0.4,0.3,0.8,0.3,1.3c-0.5,0-0.9,0-1.4-0.1s-0.8-0.1-1.2-0.2s-0.8-0.2-1.2-0.2
			c-0.4-0.1-0.8-0.1-1.2-0.1c-0.7,0-1.4,0-2.1,0.1c-0.6,0.1-1.2,0.2-1.8,0.3c-0.6,0.1-1.2,0.2-1.8,0.3c-0.6,0.1-1.2,0.1-1.8,0.1
			c0-0.5,0.1-1,0.3-1.4s0.5-0.8,0.7-1.2c0.3-0.4,0.5-0.9,0.7-1.5c0.2-0.6,0.3-1.3,0.3-2.2V5.5c0-0.5-0.1-1-0.3-1.6s-0.4-1.1-0.7-1.6
			c-0.2-0.5-0.5-1-0.7-1.4C145.8,0.5,145.7,0.2,145.7,0z"/>
	</g>
	<g>
		<path class="st0" d="M179.6,28c0-1.8,0.3-3.5,0.9-4.8c0.6-1.4,1.4-2.5,2.4-3.5s2.1-1.6,3.4-2.1c1.3-0.5,2.6-0.7,4-0.7
			c1.4,0,2.7,0.2,4,0.7s2.4,1.2,3.4,2.1s1.8,2.1,2.3,3.6c0.6,1.4,0.9,3.1,0.9,5v15.9c0,1.8-0.3,3.4-0.8,4.9
			c-0.6,1.5-1.3,2.8-2.3,3.9s-2.1,1.9-3.4,2.5c-1.3,0.6-2.7,0.9-4.2,0.9c-1.3,0-2.5-0.2-3.8-0.6c-1.2-0.4-2.3-1-3.3-1.8
			c-1-0.8-1.8-1.8-2.4-3.1c-0.6-1.2-1-2.7-1-4.3V28z M192.9,28c0-0.6-0.1-1.2-0.2-1.7c-0.1-0.5-0.3-0.8-0.6-1.2
			c-0.2-0.3-0.5-0.5-0.8-0.7c-0.3-0.2-0.6-0.2-0.9-0.2c-0.3,0-0.7,0.1-1.1,0.3c-0.4,0.2-0.7,0.4-1,0.8c-0.3,0.3-0.5,0.8-0.7,1.3
			c-0.2,0.5-0.3,1.1-0.3,1.7v17.5c0.1,1,0.4,1.8,1,2.3c0.6,0.5,1.2,0.8,1.8,0.8c0.3,0,0.7-0.1,1-0.2c0.3-0.1,0.6-0.3,0.8-0.6
			c0.2-0.3,0.4-0.6,0.6-1c0.1-0.4,0.2-0.8,0.2-1.3V28z"/>
	</g>
	<g>
		<path class="st0" d="M217,41.6c0-0.5-0.1-0.9-0.3-1.3c-0.2-0.4-0.4-0.8-0.7-1.2c-0.2-0.4-0.5-0.8-0.7-1.2s-0.3-0.8-0.3-1.2
			c0.5,0,1,0,1.4,0.1c0.5,0.1,0.9,0.1,1.4,0.2c0.5,0.1,0.9,0.1,1.4,0.2c0.5,0.1,1,0.1,1.5,0.1c0.8,0,1.5-0.1,2.2-0.2
			c0.7-0.1,1.4-0.2,2.1-0.4c0.7-0.1,1.4-0.3,2.1-0.4s1.4-0.2,2.1-0.2c1.6,0,3.1,0.3,4.3,0.9c1.2,0.6,2.3,1.4,3.1,2.5
			c0.8,1,1.5,2.2,1.9,3.5s0.6,2.7,0.6,4.1c0,0.9-0.1,1.9-0.3,2.8c-0.2,0.9-0.5,1.8-1,2.6s-1,1.6-1.6,2.3s-1.4,1.3-2.3,1.8
			c1.1,0.8,2,1.8,2.7,2.9c0.6,1.1,1.1,2.3,1.4,3.5c0.3,1.2,0.5,2.5,0.5,3.8c0,1.3,0.1,2.6,0.1,3.8v0.2c0,0.7,0.1,1.3,0.3,1.8
			c0.2,0.5,0.4,1,0.7,1.4c0.3,0.4,0.5,0.9,0.7,1.3c0.2,0.4,0.3,0.9,0.3,1.3c-0.5,0-1-0.1-1.7-0.2s-1.3-0.2-2.1-0.4
			c-0.8-0.1-1.6-0.2-2.5-0.4c-0.9-0.1-1.9-0.2-2.9-0.2h0c-0.2,0-0.4-0.2-0.6-0.6c-0.1-0.4-0.2-0.8-0.3-1.4c-0.1-0.5-0.1-1.1-0.1-1.7
			s0-1.1,0-1.5c0-0.7,0-1.4,0.1-2.3c0.1-0.8,0.1-1.7,0.1-2.6c0-0.8-0.1-1.5-0.2-2.3s-0.3-1.4-0.6-2c-0.3-0.6-0.7-1-1.3-1.4
			c-0.6-0.4-1.3-0.5-2.2-0.6c-0.2,0-0.5,0-0.7,0s-0.5,0.1-0.7,0.1v11.8c0,0.5,0.1,1,0.2,1.4c0.2,0.4,0.3,0.8,0.6,1.2
			c0.2,0.4,0.4,0.7,0.6,1.1c0.2,0.3,0.2,0.7,0.2,1c-0.5,0-1.1,0-1.6-0.1c-0.5-0.1-1.1-0.1-1.7-0.2s-1.1-0.2-1.7-0.2
			c-0.6-0.1-1.1-0.1-1.6-0.1c-0.5,0-0.9,0-1.4,0.1s-0.9,0.2-1.4,0.3s-0.9,0.2-1.4,0.3s-1,0.1-1.4,0.1c0-0.3,0.1-0.6,0.2-0.9
			c0.1-0.3,0.3-0.6,0.5-0.9s0.4-0.7,0.7-1.1c0.2-0.4,0.5-0.8,0.7-1.3c0.2-0.5,0.4-1,0.5-1.7s0.2-1.3,0.2-2.2V41.6z M224.9,53.8
			c0.3,0.1,0.7,0.2,1,0.2s0.6,0,0.9,0c0.8,0,1.4-0.2,2-0.5c0.6-0.3,1-0.8,1.4-1.4c0.4-0.6,0.7-1.2,0.8-1.9c0.2-0.7,0.3-1.4,0.3-2.2
			c0-0.7-0.1-1.4-0.3-2.1c-0.2-0.7-0.4-1.3-0.8-1.8c-0.3-0.5-0.8-1-1.3-1.3c-0.5-0.3-1.1-0.5-1.7-0.5c-0.7,0-1.5,0.2-2.3,0.7V53.8z"
			/>
	</g>
	<g>
		<path class="st0" d="M255.8,95.1c0-0.4,0.1-0.8,0.4-1.2c0.2-0.4,0.5-0.8,0.8-1.3c0.3-0.5,0.6-1,0.8-1.5s0.4-1.2,0.4-1.8
			c0-2,0-4.2,0.1-6.4c0-2.2,0.1-4.5,0.1-6.7c0-2.3,0.1-4.6,0.1-6.9c0-2.3,0-4.6,0-6.8c0-0.3-0.1-0.6-0.2-0.9
			c-0.1-0.3-0.4-0.4-0.7-0.4c-0.5,0-1,0.2-1.4,0.6c-0.4,0.4-0.8,0.9-1.2,1.5c-0.4,0.6-0.7,1.2-1,1.9c-0.3,0.7-0.6,1.3-0.9,1.9
			c-0.3,0.6-0.6,1.1-0.8,1.5c-0.3,0.4-0.5,0.6-0.8,0.6c0-1.4-0.1-2.9-0.1-4.3s-0.1-2.8-0.1-4.3c0-0.5,0-0.9-0.1-1.4
			s-0.2-0.9-0.3-1.4c-0.1-0.5-0.2-0.9-0.3-1.4c-0.1-0.5-0.1-0.9-0.1-1.4c0.3,0,0.6,0.1,0.9,0.2c0.3,0.1,0.6,0.2,0.9,0.4
			c0.3,0.1,0.6,0.3,0.8,0.4c0.3,0.1,0.6,0.2,0.9,0.2c0.7,0,1.5,0,2.2-0.1c0.7-0.1,1.4-0.1,2.1-0.2c0.7-0.1,1.4-0.1,2.1-0.2
			s1.4-0.1,2.1-0.1c0.8,0,1.5,0.1,2.2,0.2c0.7,0.1,1.4,0.3,2.1,0.5c0.7,0.2,1.4,0.3,2.1,0.5c0.7,0.1,1.4,0.2,2.1,0.2
			c0.4,0,0.7-0.1,1.1-0.2c0.4-0.1,0.7-0.3,1.1-0.5c0.4-0.2,0.7-0.3,1-0.5s0.7-0.2,1-0.2c-0.1,1-0.3,2-0.4,2.9
			c-0.2,0.9-0.3,1.8-0.5,2.7s-0.3,1.8-0.4,2.8c-0.1,1-0.2,2-0.2,3.2c0,0.5,0,1.1,0,1.7c0,0.6,0.1,1.2,0.1,1.9
			c-0.3,0-0.6-0.2-0.8-0.7c-0.2-0.4-0.5-1-0.7-1.7c-0.2-0.7-0.5-1.4-0.7-2.2c-0.3-0.8-0.6-1.5-0.9-2.2c-0.4-0.7-0.8-1.2-1.2-1.7
			c-0.5-0.4-1.1-0.7-1.7-0.7c-0.3,0-0.5,0.1-0.7,0.3s-0.3,0.5-0.3,0.8c0,2.4,0,4.8,0,7.3c0,2.5,0,4.9,0.1,7.1s0,4.4,0.1,6.4
			c0,2,0,3.7,0,5.2c0,0.6,0.1,1.2,0.4,1.8c0.3,0.6,0.6,1.2,0.9,1.8s0.6,1.2,0.9,1.7s0.4,1,0.4,1.5c-0.6,0-1.1-0.1-1.8-0.3
			c-0.6-0.2-1.3-0.4-1.9-0.6c-0.7-0.2-1.3-0.4-2-0.6c-0.7-0.2-1.4-0.3-2.1-0.3c-0.6,0-1.1,0.1-1.6,0.2c-0.5,0.1-1,0.3-1.4,0.4
			c-0.5,0.1-0.9,0.3-1.4,0.4C256.8,95,256.3,95.1,255.8,95.1z"/>
	</g>
	<g>
		<path class="st0" d="M290.4,100.1c0-0.2-0.1-0.8-0.4-1.6s-0.6-1.9-1.1-3.2c-0.5-1.2-1-2.6-1.6-4.2c-0.6-1.5-1.2-3.1-1.9-4.6
			c-0.7-1.6-1.4-3.1-2.1-4.6c-0.7-1.5-1.4-2.8-2-4c0.5,0,1,0,1.5,0.1c0.5,0.1,1,0.2,1.5,0.3s1,0.2,1.5,0.3c0.5,0.1,1,0.1,1.6,0.1
			c0.5,0,1,0,1.4-0.1s0.9-0.2,1.2-0.3c0.4-0.1,0.8-0.2,1.1-0.3c0.4-0.1,0.7-0.1,1.1-0.1c0,0.3-0.1,0.6-0.1,0.8
			c-0.1,0.3-0.1,0.5-0.2,0.8c-0.1,0.3-0.2,0.5-0.2,0.8c-0.1,0.3-0.1,0.5-0.1,0.8c0,0.5,0.1,1.2,0.4,2s0.5,1.7,0.9,2.6
			s0.7,1.8,1.1,2.8c0.4,0.9,0.7,1.8,1,2.6c0.3-0.9,0.6-1.9,1-2.9c0.4-1,0.8-1.9,1.1-2.9c0.4-0.9,0.7-1.9,0.9-2.8
			c0.3-0.9,0.4-1.7,0.4-2.5c0-0.2,0-0.5-0.1-0.6c-0.1-0.2-0.2-0.3-0.3-0.5c-0.1-0.2-0.2-0.3-0.3-0.5c-0.1-0.2-0.1-0.3-0.1-0.6
			c0.5,0,0.9,0.1,1.4,0.2c0.4,0.1,0.9,0.2,1.3,0.4c0.4,0.1,0.9,0.3,1.3,0.4c0.4,0.1,0.9,0.2,1.5,0.2c0.5,0,0.9,0,1.3-0.1
			c0.4-0.1,0.8-0.1,1.2-0.2c0.4-0.1,0.8-0.1,1.2-0.2c0.4-0.1,0.8-0.1,1.2-0.1c-0.8,1.1-1.5,2.4-2.3,3.9c-0.8,1.5-1.5,3-2.3,4.5
			s-1.4,3.1-2.1,4.7c-0.6,1.5-1.2,2.9-1.7,4.2c-0.5,1.3-0.8,2.4-1.1,3.3s-0.4,1.5-0.4,1.8v11.2c0,0.8,0.2,1.6,0.5,2.2
			c0.3,0.6,0.7,1.2,1.1,1.6c0.4,0.4,0.8,0.8,1.1,1.1s0.5,0.5,0.5,0.7c-0.6,0-1.2-0.1-1.8-0.2c-0.6-0.1-1.2-0.2-1.8-0.4
			s-1.2-0.3-1.9-0.4c-0.6-0.1-1.3-0.2-2-0.2c-0.5,0-1,0-1.5,0.1c-0.5,0.1-1,0.2-1.5,0.3c-0.5,0.1-1,0.2-1.5,0.3
			c-0.5,0.1-1,0.1-1.6,0.1c0-0.3,0.1-0.8,0.4-1.3c0.3-0.5,0.6-1.1,0.9-1.7c0.3-0.6,0.6-1.3,0.9-1.9s0.4-1.3,0.4-2V100.1z"/>
	</g>
</g>
<g>
	<g>
		<path class="st0" d="M0.3,196.7c-0.2-1.1-0.3-2.3-0.3-3.6c0-5.7,2.1-9,6-9c3.9,0,6.1,3.2,6.1,8.7c0,3.6-0.8,6.4-2.4,7.7
			c-0.9,0.8-2.4,1.3-3.7,1.3C3.1,201.9,0.9,199.9,0.3,196.7z M8.9,193.1c0-3.9-0.9-5.8-2.8-5.8c-2,0-3,1.8-3,5.7
			c0,3.9,0.9,5.7,2.7,5.7H6C8,198.6,8.9,196.8,8.9,193.1z"/>
		<path class="st0" d="M24.7,194v-9.6h3.2v17.1h-2.7l-5.8-10.3v10.3h-3.2v-17.1h3.2L24.7,194z"/>
		<path class="st0" d="M35.7,198.6h7.5v3H32.5v-17.1h3.2V198.6z"/>
		<path class="st0" d="M46.1,184.4l3.8,6.1l3.8-6.1h3.9l-6,9.7v7.4h-3.3v-7.5l-5.9-9.7H46.1z"/>
		<path class="st0" d="M63.9,184.4h10.7v3h-3.7v14.1h-3.3v-14.1h-3.7V184.4z"/>
		<path class="st0" d="M81,191.1h5.3v-6.7h3.2v17.1h-3.2v-7.2h-5.3v7.2h-3.3v-17.1H81V191.1z"/>
		<path class="st0" d="M104.4,187.7h-6.9v3.4h4.7v3.2h-4.7v3.9h7.5v3.3H94.2v-17.1h10.2V187.7z"/>
		<path class="st0" d="M117.2,191.1h5.3v-6.7h3.2v17.1h-3.2v-7.2h-5.3v7.2H114v-17.1h3.2V191.1z"/>
		<path class="st0" d="M133.6,201.6h-3.2v-17.1h3.2V201.6z"/>
		<path class="st0" d="M151.3,191.4v3.2h-1.1v4.2c-1.1,1.8-3.6,3.1-6,3.1c-3.8,0-6.5-3.9-6.5-8.8c0-4.8,2.8-9,6.9-9
			c2.2,0,4.3,1.4,5.4,3.4l-2.5,1.8c-0.6-1.2-1.6-1.9-2.9-1.9c-2.2,0-3.4,2.4-3.4,5.5c0,3.5,1.3,5.7,3.5,5.7c1.1,0,2.1-0.5,2.5-1.4
			v-2.8h-1.9v-3.2H151.3z"/>
		<path class="st0" d="M158.1,191.1h5.3v-6.7h3.2v17.1h-3.2v-7.2h-5.3v7.2h-3.3v-17.1h3.2V191.1z"/>
		<path class="st0" d="M181.4,187.7h-6.9v3.4h4.7v3.2h-4.7v3.9h7.5v3.3h-10.7v-17.1h10.2V187.7z"/>
		<path class="st0" d="M192.9,196.6c0-1.2-1-2.2-2.6-2.4c-1.7-0.3-2.2-0.4-3.2-0.9c-1.2-0.8-2-1.9-2-3.8c0-2.8,2.5-5.3,5.4-5.3
			c2.5,0,4.3,1.4,5.1,3.9l-3,1.2c-0.1-0.3-0.2-0.4-0.3-0.7c-0.4-0.8-1-1.2-1.9-1.2c-1.1,0-2,0.9-2,2c0,0.8,0.4,1.2,1.5,1.4
			c2,0.4,2.4,0.6,3.4,1c1.8,0.9,2.8,2.8,2.8,4.7c0,3-2.4,5.3-5.3,5.3c-3.1,0-5.2-1.8-6.3-4.5l2.9-1.5c0.8,2,1.8,2.8,3.3,2.8
			C191.9,198.7,192.9,197.8,192.9,196.6z"/>
		<path class="st0" d="M198.5,184.4h10.7v3h-3.7v14.1h-3.3v-14.1h-3.7V184.4z"/>
		<path class="st0" d="M229.5,204c-0.7,0.7-1.5,1.1-2.7,1.1c-1,0-1.8-0.3-3.1-1.2c-1.1-0.7-2-0.9-3.1-0.9c-1,0-1.8,0.3-2.6,0.9
			l-1.1-2.6c0.5-0.6,1.3-1,2-1c-0.9-0.9-1.5-2.1-1.8-3.6c-0.2-1.1-0.3-2.3-0.3-3.6c0-5.7,2.1-9,6-9c3.9,0,6.1,3.2,6.1,8.7
			c0,3.6-0.8,6.4-2.4,7.7c-0.4,0.3-0.9,0.7-1.5,0.9c0.7,0.4,1.3,0.7,1.9,0.7c0.4,0,0.9-0.1,1.3-0.4L229.5,204z M220.1,192.9
			c0,3.9,0.9,5.7,2.7,5.7h0.1c2-0.1,2.9-1.8,2.9-5.6c0-3.9-0.9-5.8-2.8-5.8C221.1,187.3,220.1,189.1,220.1,192.9z"/>
		<path class="st0" d="M238.9,198.7c1.6,0,2.7-1.2,2.7-3v-11.3h3.2v11.2c0,3.7-2.5,6.3-5.8,6.3c-3.4,0-5.9-2.6-5.9-6.1v-11.4h3.2
			v11.3C236.3,197.6,237.2,198.7,238.9,198.7z"/>
		<path class="st0" d="M256.1,184.4l5.9,17.1h-3.4l-1.6-4.7h-4.6l-1.7,4.7h-3.4l5.9-17.1H256.1z M255.8,193.6l-1.2-3.5l-1.2,3.5
			H255.8z"/>
		<path class="st0" d="M268.3,198.6h7.5v3h-10.7v-17.1h3.2V198.6z"/>
		<path class="st0" d="M282.2,201.6h-3.2v-17.1h3.2V201.6z"/>
		<path class="st0" d="M285.3,184.4H296v3h-3.7v14.1H289v-14.1h-3.7V184.4z"/>
		<path class="st0" d="M302,184.4l3.8,6.1l3.8-6.1h3.9l-6,9.7v7.4H304v-7.5l-5.9-9.7H302z"/>
		<path class="st0" d="M56.5,222.2v-9.6h3.2v17.1H57l-5.8-10.3v10.3h-3.2v-17.1h3.2L56.5,222.2z"/>
		<path class="st0" d="M71.8,212.6l5.8,17.1h-3.4l-1.6-4.7h-4.6l-1.7,4.7h-3.4l5.9-17.1H71.8z M71.4,221.8l-1.2-3.5l-1.2,3.5H71.4z"
			/>
		<path class="st0" d="M78,212.6h10.7v3H85v14.1h-3.3v-14.1H78V212.6z"/>
		<path class="st0" d="M97.6,226.8c1.6,0,2.7-1.2,2.7-3v-11.3h3.2v11.2c0,3.7-2.5,6.3-5.9,6.3c-3.4,0-5.8-2.6-5.8-6.1v-11.4H95v11.3
			C95,225.7,96,226.8,97.6,226.8z"/>
		<path class="st0" d="M119.4,217.6c0,1.7-0.7,3.1-2.1,4l-0.3,0.2l2.9,7.9h-3.4l-2.6-7.2l-2.5,0v7.2H108v-17.1h6.1
			C117.2,212.6,119.4,214.7,119.4,217.6z M116.2,217.5c0-0.9-0.7-1.7-1.5-1.7h-3.4v3.5l3.1,0h0.3
			C115.5,219.2,116.2,218.5,116.2,217.5z"/>
		<path class="st0" d="M131.5,212.6l5.8,17.1h-3.4l-1.6-4.7h-4.6l-1.7,4.7h-3.4l5.9-17.1H131.5z M131.2,221.8l-1.2-3.5l-1.2,3.5
			H131.2z"/>
		<path class="st0" d="M143.7,226.7h7.5v3h-10.7v-17.1h3.2V226.7z"/>
		<path class="st0" d="M157.6,226.7h7.5v3h-10.7v-17.1h3.2V226.7z"/>
		<path class="st0" d="M168,212.6l3.8,6.1l3.8-6.1h3.9l-6,9.7v7.4h-3.3v-7.5l-5.9-9.7H168z"/>
		<path class="st0" d="M200.6,219.6v3.2h-1.1v4.2c-1.1,1.8-3.6,3.1-6,3.1c-3.8,0-6.5-3.9-6.5-8.8c0-4.8,2.8-9,6.9-9
			c2.2,0,4.3,1.4,5.4,3.4l-2.5,1.8c-0.6-1.2-1.6-1.9-2.9-1.9c-2.2,0-3.4,2.4-3.4,5.5c0,3.5,1.3,5.7,3.5,5.7c1.1,0,2.1-0.5,2.5-1.4
			v-2.8h-1.9v-3.2H200.6z"/>
		<path class="st0" d="M215.5,217.6c0,1.7-0.7,3.1-2.1,4l-0.3,0.2l2.9,7.9h-3.4l-2.6-7.2l-2.5,0v7.2h-3.2v-17.1h6.1
			C213.3,212.6,215.5,214.7,215.5,217.6z M212.3,217.5c0-0.9-0.7-1.7-1.5-1.7h-3.4v3.5l3.1,0h0.3
			C211.6,219.2,212.3,218.5,212.3,217.5z"/>
		<path class="st0" d="M219.2,224.8c-0.2-1.1-0.3-2.3-0.3-3.6c0-5.7,2.1-9,6-9c3.9,0,6.1,3.2,6.1,8.7c0,3.6-0.8,6.4-2.4,7.7
			c-0.9,0.8-2.4,1.3-3.7,1.3C222,230,219.8,228.1,219.2,224.8z M227.8,221.2c0-3.9-0.9-5.8-2.8-5.8c-2,0-3,1.8-3,5.7
			s0.9,5.7,2.7,5.7h0.1C226.9,226.7,227.8,225,227.8,221.2z"/>
		<path class="st0" d="M237,212.6l1,7.5l1.9-7.5h2.8l1.8,7.5l1.1-7.5h3.3l-2.4,17.1h-2.9l-2.3-9.4l-2.4,9.4H236l-2.4-17.1H237z"/>
		<path class="st0" d="M260.9,222.2v-9.6h3.2v17.1h-2.7l-5.8-10.3v10.3h-3.2v-17.1h3.2L260.9,222.2z"/>
	</g>
</g>
<path class="st1" d="M156.7,88.6c4.3,0,8,2.8,9.2,6.7c0.3-1,0.5-2,0.5-3c0-5.4-4.4-9.7-9.7-9.7c-5.4,0-9.7,4.4-9.7,9.7
	c0,1.1,0.2,2.1,0.5,3C148.7,91.4,152.3,88.6,156.7,88.6z"/>
<g>
	<g>
		<polygon class="st1" points="136.7,287 156,287 136.7,273.7 		"/>
		<polygon class="st1" points="176.7,287 176.7,273.7 157.3,287 		"/>
		<polygon class="st1" points="136.7,259.2 136.7,272.4 156,259.2 		"/>
		<polygon class="st1" points="157.3,259.2 176.7,272.4 176.7,259.2 		"/>
	</g>
	<path class="st1" d="M156.7,260.8l-18,12.3l18,12.3l18-12.3L156.7,260.8z M159.2,277.6l-4.7-6.8h-0.1v6.8h-1.5v-8.5h2l3.9,5.6h0.1
		v-5.6h1.5v8.5H159.2z"/>
</g>
</svg>
