<?xml version="1.0" encoding="utf-8"?>
<!-- Generator: Adobe Illustrator 22.0.1, SVG Export Plug-In . SVG Version: 6.00 Build 0)  -->
<svg version="1.1" id="Layer_1" xmlns="http://www.w3.org/2000/svg" xmlns:xlink="http://www.w3.org/1999/xlink" x="0px" y="0px"
	 viewBox="0 0 330.7 311.4" style="enable-background:new 0 0 330.7 311.4;" xml:space="preserve">
<style type="text/css">
	.st0{fill:#EFEBE5;}
	.st1{fill:#B1834F;}
</style>
<g>
	<path class="st0" d="M208.6,132.8c-0.7-0.4-1.5-0.3-1.9,0.1c-0.3,0.3-1.1,0.9-3.3,3.1c-0.1,0.1-0.3,0.3-0.4,0.4c0-0.9,0-1.7,0-2.4
		c0-1.4,0-2.5,0-3.2c0-3.4-0.7-4.3-1.1-4.9c-0.2-0.3-0.4-0.4-0.6-0.4c-0.4,0-0.8,0.3-1.2,0.7c-0.2,0.2-0.8,0.7-1.4,1.2
		c-0.6,0.5-1.1,1-1.5,1.3c-0.5,0.4-0.2,0.8,0,1.1c0.2,0.2,0.2,0.3,0.4,0.5l0.1,0.2c0.2,0.2,0.2,0.3,0.3,1.2c0,0.9,0.1,8.2,0.1,9.2
		c0,0.1,0,0.3,0,0.4h0c0,4.2,0.5,8.8,4.2,11.5c1.3,0.9,2.1,1.5,3.9,2.4c0.5,0.2,0.8,0.4,1.2,0.4c0,0,0,0,0,0c0,0,0,0,0,0
		c0.3,0,0.6-0.1,0.8-0.3c0,0,0,0,0,0c0,0,0,0,0,0l0,0c3.1-2.7,6.9-7,6.9-12.6C215,137.3,211.8,134.7,208.6,132.8z M203,141.4
		c0-1.7,0.6-3.4,1.7-4.5c0.2-0.2,0.4-0.3,0.6-0.3c0.1,0,0.3,0.1,0.5,0.2c3,1.7,5,3.9,5.7,6.6c0.9,3.3-0.3,6.3-0.7,7.1
		c-0.3,0.5-0.6,0.9-1,1c-0.3,0.1-0.7-0.1-1.3-0.4c-4.6-2.9-5.5-4.9-5.5-9.3C203,141.6,203,141.5,203,141.4z"/>
	<path class="st0" d="M239.7,144.5c-1-2.4-2.9-3.4-4.6-4.3c-1.4-0.7-2.7-1.4-3.6-2.8c-0.5-0.7-0.1-1.5,0.3-1.9
		c0.1-0.1,0.3-0.2,0.4-0.1c2.7,2.3,4.8,3.4,5.7,2.9c0.7-0.4,1.7-1.9,2-2.5c0.1-0.1,0.1-0.3,0.1-0.4c0-0.1-0.1-0.2-0.3-0.3
		c-1.7-0.8-3.9-2-5.2-2.9c-0.3-0.2-0.7-0.3-1.2,0.1c-0.3,0.2-0.6,0.5-0.8,0.7c-2.4,1.9-3.9,3.2-3.9,6.8c0,2.1,1.6,3.9,4.8,5.4
		c2.3,1.1,3.7,2.4,4.1,3.8c0.2,0.8,0.1,1.6-0.4,2.3c-0.1,0.1-0.2,0.2-0.4,0.2c-0.4,0.1-1-0.2-1.8-0.7c-1.3-1-3-2.1-5.3-3.5
		c-0.2-0.1-0.4-0.1-0.5-0.1c-0.1,0-0.3,0.1-0.5,0.4c-0.1,0.2-1.2,2.1-1.6,2.6c-0.2,0.3-0.3,0.6-0.2,0.8c0.1,0.3,0.2,0.5,0.5,0.7
		c0.1,0.1,0.4,0.2,0.7,0.4c0.9,0.5,2.6,1.5,4.3,2.5l0.2,0.1c0.3,0.2,0.7,0.5,1.2,0.5c0.3,0,0.6-0.1,1-0.3
		C240.3,151.7,240.9,147.3,239.7,144.5z"/>
	<path class="st0" d="M223.4,133.7c-0.3-0.4-0.5-0.7-0.7-0.9c-0.2-0.2-0.4-0.4-0.8-0.5c0,0,0,0,0,0c-0.3,0-0.5,0.1-0.9,0.4
		c-0.5,0.4-1.5,1-2.3,1.4c-0.2,0.1-0.5,0.2-0.6,0.3c-0.2,0.1-0.3,0.3-0.3,0.4c0,0.2,0,0.3,0.2,0.4c0,0,0.1,0.1,0.1,0.1
		c0.3,0.3,0.8,0.7,0.8,1.8c0,1.2,0,2.4,0,3.6c0,4.8,0,9.8-0.3,12.9c-0.1,0.5-0.1,0.8,0.1,1c0.2,0.2,0.4,0.2,0.7,0.2h4.3
		c0.3,0,0.5,0,0.7-0.2c0.2-0.2,0.1-0.4,0-0.9c-0.1-0.3-0.1-0.8-0.2-1.4c-0.2-2.8-0.1-14.7-0.1-14.8c0-0.8,0.2-1.4,0.5-1.7
		c0.2-0.2,0.3-0.6,0-0.9C224.1,134.7,223.7,134.2,223.4,133.7z"/>
	<path class="st0" d="M221.9,130.9c0.7,0,1.2-0.2,1.4-0.2c0.2-0.1,0.7-0.3,0.8-0.7c0-0.2,0-0.4-0.4-0.6c-1.1-0.6-1.6-1.7-1.7-3.3
		l0-0.1c0-0.2-0.1-0.4-0.3-0.5c-0.3-0.1-0.7,0-0.9,0.2v0c-0.5,0.4-1.5,1-2.2,1.3c-0.3,0.1-0.5,0.3-0.6,0.6c-0.1,0.3,0.1,0.6,0.1,0.7
		C219.1,130.5,220.7,130.9,221.9,130.9z"/>
	<path class="st0" d="M172.9,138.6c0-0.5,0.2-0.8,0.3-1c0.3-0.4,0.3-0.7-0.4-1.2c-2.1-1.6-4-3.1-4.7-3.7c-0.7-0.5-1.1-0.3-1.5,0.1
		l-0.1,0.1c-1.7,1.5-2.8,2.4-3.3,2.8c-0.7,0.5-0.9,0.3-1.3,0c-0.5-0.3-1.6-1.5-2.1-2c-0.2-0.3-0.5-0.4-0.7-0.4c0,0,0,0,0,0
		c-0.3,0-0.5,0.2-0.7,0.4c-0.1,0.1-1.6,1.4-2.2,2c-0.3,0.3-0.5,0.5-0.4,0.7c0,0.2,0.2,0.3,0.3,0.4c0,0,0.1,0,0.1,0.1
		c0.8,0.5,0.8,1,0.8,1.8v0.2c0,0.2,0,0.7,0,1.5c0,3.4,0.1,12.5,0,13.2l0,0.2c-0.1,0.6-0.2,1,0,1.2c0.1,0.1,0.2,0.2,0.4,0.2h4.3
		c0.2,0,0.4,0,0.6-0.2c0.1-0.2,0.1-0.4,0-0.9l-0.1-0.3c-0.2-1-0.2-11.4-0.2-13.9c0-1,0.1-1.1,0.3-1.4l0.1-0.1
		c0.2-0.3,1.4-1.2,1.9-1.6c0.4-0.3,0.6-0.3,0.9-0.1c0.3,0.2,1.7,1.5,2.1,1.8c0.5,0.5,0.5,0.7,0.5,1.4c0,0.1,0.1,10.1,0,13.6
		c0,0.8,0,1.2,0.3,1.4c0.2,0.2,0.5,0.2,0.7,0.2h3.8c0.2,0,0.5,0,0.7-0.2c0.2-0.2,0.1-0.6,0.1-1c0-0.2-0.1-0.4-0.1-0.7
		c-0.3-2.3-0.2-9.6-0.2-13L172.9,138.6z"/>
	<path class="st0" d="M151.4,138.6c0-0.5,0.2-0.8,0.3-1c0.3-0.4,0.3-0.7-0.4-1.2c-2.3-1.7-4.3-3.4-4.7-3.7c-0.7-0.5-0.9-0.3-1.3,0
		c-0.3,0.3-2.9,2.4-3.7,2.9c-0.7,0.5-0.9,0.3-1.3,0c-0.5-0.3-1.6-1.4-2.1-2c-0.2-0.3-0.5-0.4-0.7-0.4c0,0,0,0,0,0
		c-0.3,0-0.5,0.2-0.7,0.4c-0.1,0.1-1.6,1.4-2.2,2c-0.3,0.3-0.5,0.5-0.4,0.7c0,0.2,0.2,0.3,0.3,0.4c0,0,0.1,0,0.1,0.1
		c0.8,0.5,0.8,1,0.8,1.8v0.2c0,0.2,0,0.7,0,1.5c0,3.4,0.1,12.5,0,13.2l0,0.2c-0.1,0.6-0.2,1,0,1.2c0.1,0.1,0.2,0.2,0.4,0.2h4.3
		c0.2,0,0.4,0,0.6-0.2c0.1-0.2,0.1-0.4,0-0.9l-0.1-0.3c-0.2-1-0.2-11.4-0.2-13.9c0-1,0.1-1.1,0.3-1.4l0.1-0.1
		c0.2-0.3,1.4-1.2,1.9-1.6c0.4-0.3,0.6-0.3,0.9-0.1c0.3,0.2,1.7,1.5,2.1,1.8c0.5,0.5,0.5,0.7,0.5,1.4c0,0.1,0.1,10.1,0,13.6
		c0,0.8,0,1.2,0.3,1.4c0.2,0.2,0.5,0.2,0.7,0.2h3.8c0.2,0,0.5,0,0.7-0.2c0.2-0.2,0.1-0.6,0.1-1c0-0.2-0.1-0.4-0.1-0.7
		c-0.3-2.3-0.2-9.6-0.2-13L151.4,138.6z"/>
	<path class="st0" d="M110.5,128.2c-3.2-1.2-4.3-1.9-5.9-3c-0.5-0.3-1-0.3-1.5,0c-1.4,0.8-2.8,1.9-4.7,3.4c-2,1.6-8,6.5-8,14.3
		c0,3.4,1.2,6.5,3.6,8.7c2.4,2.4,5.9,3.7,9.6,3.7c0.2,0,0.3,0,0.5,0c2.3-0.1,2.8-0.2,3.2-1l0.1-0.2c1.8-3.1,2.8-4.8,2.9-5.1
		c0.1-0.2,0.1-0.4-0.1-0.6c-0.2-0.2-0.5-0.2-0.7,0c-0.2,0.1-0.4,0.2-0.5,0.3c-1.1,0.7-1.9,1.3-4.4,1.3c-5.7,0-8.7-5.3-8.7-10.5
		c0-3.2,1.3-6.7,3.8-9.8c0.4-0.5,0.8-0.6,1.3-0.3c0.4,0.3,4.1,2.1,5.4,2.7c1.4,0.6,2.2,0.6,2.7,0l0.3-0.3c0.5-0.6,1.5-1.5,2-2.1
		c0.3-0.3,0.5-0.5,0.4-0.8C111.7,128.7,111.3,128.5,110.5,128.2z"/>
	<path class="st0" d="M131.3,150.1c-0.3-0.3-0.7-0.6-1-0.9c-0.4-0.4-0.5-0.6-0.5-1.3v-10c0-1.4-0.3-2-1.3-3.2
		c-1.2-1.4-2.4-1.4-3.4-1.3l-0.2,0c-2.2,0-5.2,0-6.4-0.2c-0.7-0.1-1,0.2-1.4,0.6c-0.2,0.1-0.4,0.4-0.7,0.7c-0.5,0.5-1.2,1.2-1.6,1.6
		c-0.4,0.4-0.4,0.8-0.2,1.1c0.2,0.2,0.5,0.4,1,0.2c2-1,3.8-1.6,6.2-1.6c1.7,0,1.8,0.2,1.9,0.6l0,0c0,0.5-1.1,0.9-2.2,1.3
		c-0.9,0.4-2,0.8-2.9,1.4c-4.1,2.6-5,6.1-5.2,8.5c-0.1,2.9,3.1,6.1,4.1,7c0.5,0.5,1,0.7,1.5,0.7c0.5,0,0.9-0.2,1.4-0.6
		c0.5-0.4,1.7-1.4,2.6-2.4l0.8-0.8c0.4-0.4,0.8-0.6,1.1-0.6c0.3,0,0.5,0.2,0.5,0.3c0.1,0.1,0.3,0.4,0.6,0.8c0.4,0.6,0.9,1.3,1.2,1.7
		l0.1,0.2c0.3,0.5,0.7,1.1,1.2,1.1c0,0,0,0,0,0c0.3,0,0.5-0.2,0.7-0.5c0.5-0.8,1.4-1.8,2-2.4c0.1-0.2,0.3-0.3,0.3-0.4
		c0.3-0.3,0.5-0.8,0-1.3C131.5,150.3,131.4,150.2,131.3,150.1z M124.3,149.1L124.3,149.1c-0.1,0.1-0.3,0.3-0.5,0.4
		c-0.6,0.5-1.5,1.3-1.9,1.3c-0.4,0-1.6,0-3.2-3.1c-1.5-3,0.2-6.4,2.5-8.1c1.2-0.9,2.2-1,2.8-1c0.6,0,0.9,0.2,0.9,1.4v8.3
		C124.9,148.6,124.9,148.7,124.3,149.1L124.3,149.1z"/>
	<path class="st0" d="M194.3,150.1c-0.3-0.3-0.7-0.6-1-0.9c-0.4-0.4-0.5-0.6-0.5-1.3v-9.3c0-1.6-0.4-2.8-1.3-3.9
		c-1.2-1.4-2.4-1.4-3.4-1.3l-0.2,0c-2.2,0-5.2,0-6.4-0.2c-0.7-0.1-1,0.2-1.4,0.6c-0.1,0.1-0.4,0.4-0.7,0.7c-0.5,0.5-1.2,1.2-1.7,1.6
		c-0.4,0.4-0.4,0.8-0.2,1.1c0.2,0.3,0.5,0.4,1,0.2c2-1,3.8-1.6,6.2-1.6c1.6,0,1.8,0.2,1.9,0.6v0c0,0.5-1.5,1.4-3.3,2.6
		c-0.7,0.4-1.5,0.9-2.3,1.5c-3.5,2.3-4.9,4.6-4.6,7.3c0.3,3.1,2.7,5.7,4.1,6.9c0.5,0.5,1,0.7,1.5,0.7c0.5,0,0.9-0.2,1.4-0.6
		c0.5-0.4,1.6-1.4,2.6-2.3l0.8-0.8c0.4-0.4,0.8-0.6,1.1-0.6c0.3,0,0.5,0.2,0.5,0.3c0.1,0.1,0.3,0.4,0.6,0.8c0.4,0.6,0.9,1.3,1.2,1.7
		l0.1,0.2c0.3,0.5,0.7,1.1,1.2,1.1c0,0,0,0,0,0c0.3,0,0.5-0.2,0.7-0.5c0.5-0.8,1.4-1.8,2-2.4c0.1-0.2,0.3-0.3,0.3-0.4
		c0.3-0.3,0.5-0.8,0-1.3C194.6,150.3,194.5,150.2,194.3,150.1z M187.4,149.1L187.4,149.1c-0.1,0.1-0.3,0.3-0.5,0.4
		c-0.6,0.5-1.5,1.3-1.9,1.3c-0.6,0-1.5,0-3.5-3.7c-1.3-2.4-0.5-4.3,2.5-6.6c1.1-0.8,2.7-1.5,3.4-1.5c0.4,0,0.6,0.1,0.6,0.6v8.6
		C188,148.6,188,148.7,187.4,149.1L187.4,149.1z"/>
</g>
<g>
	<g>
		<path class="st0" d="M11.1,123.4c-0.5,0-0.9,0.1-1.3,0.2c-0.4,0.1-0.9,0.2-1.3,0.3c-0.4,0.1-0.9,0.2-1.3,0.3
			c-0.4,0.1-0.9,0.2-1.4,0.2c0-0.6,0.1-1.1,0.2-1.6c0.1-0.5,0.3-1,0.5-1.5c0.2-0.5,0.4-0.9,0.6-1.4c0.2-0.5,0.4-1,0.6-1.5V90.2
			c0-0.7-0.1-1.3-0.2-1.9c-0.1-0.6-0.3-1.2-0.5-1.7s-0.3-1.1-0.5-1.7c-0.1-0.6-0.2-1.1-0.2-1.7c0.1,0,0.4,0,0.7,0.1
			c0.4,0.1,0.8,0.1,1.2,0.2c0.5,0.1,0.9,0.1,1.4,0.2s0.9,0.1,1.3,0.1c0.8,0,1.6-0.1,2.4-0.2c0.8-0.1,1.5-0.3,2.2-0.4
			c0.7-0.1,1.4-0.3,2.2-0.4s1.5-0.2,2.2-0.2c1.7,0,3.2,0.3,4.5,1c1.3,0.7,2.5,1.5,3.4,2.6c0.9,1.1,1.6,2.3,2.1,3.8
			c0.5,1.4,0.7,2.9,0.7,4.4c0,0.9-0.1,1.8-0.3,2.8c-0.2,0.9-0.5,1.8-0.9,2.6c-0.4,0.8-0.9,1.6-1.6,2.2c-0.6,0.7-1.4,1.3-2.3,1.8
			c0.9,0.5,1.6,1.1,2.3,1.8c0.7,0.7,1.2,1.5,1.6,2.3c0.4,0.8,0.7,1.7,0.9,2.6c0.2,0.9,0.3,1.9,0.3,2.8c0,1.4-0.2,2.8-0.7,4.1
			c-0.4,1.3-1.1,2.5-1.9,3.5c-0.9,1-1.9,1.9-3.2,2.5c-1.3,0.6-2.7,0.9-4.3,0.9c-0.9,0-1.7,0-2.5-0.1c-0.8-0.1-1.6-0.2-2.4-0.3
			c-0.8-0.1-1.6-0.2-2.4-0.3C12.7,123.4,11.9,123.4,11.1,123.4z M15.9,100.9c1.4,0,2.6-0.2,3.4-0.5c0.8-0.3,1.5-0.7,1.9-1.3
			c0.4-0.6,0.7-1.2,0.8-2c0.1-0.8,0.2-1.6,0.2-2.5c0-0.7-0.1-1.4-0.2-2c-0.1-0.7-0.4-1.2-0.7-1.7c-0.3-0.5-0.7-0.9-1.3-1.2
			c-0.5-0.3-1.1-0.4-1.9-0.4c-0.3,0-0.7,0-1,0.1s-0.8,0.2-1.2,0.3V100.9z M15.9,117.2c0.4,0.2,0.8,0.4,1.2,0.5
			c0.4,0.1,0.7,0.1,1,0.1c0.6,0,1.2-0.2,1.7-0.5c0.5-0.3,0.9-0.8,1.3-1.4c0.3-0.6,0.6-1.2,0.8-1.9c0.2-0.7,0.3-1.4,0.3-2.2
			c0-0.7-0.1-1.4-0.2-2.1c-0.2-0.7-0.4-1.3-0.8-1.8c-0.4-0.5-0.8-1-1.3-1.3c-0.5-0.3-1.2-0.5-1.9-0.5c-0.3,0-0.6,0-1,0.1
			c-0.3,0.1-0.7,0.2-1.1,0.3V117.2z"/>
	</g>
	<g>
		<path class="st0" d="M58.9,99.7c0-0.4,0-0.9,0.1-1.3c0.1-0.4,0.2-0.9,0.2-1.3c0.1-0.4,0.2-0.9,0.2-1.3c0.1-0.4,0.1-0.9,0.1-1.3
			c0-0.6-0.1-1.2-0.3-1.8h-7c-0.1,0.4-0.2,0.8-0.3,1.2s-0.1,0.8-0.1,1.2c0,1,0.2,1.9,0.5,2.9c0.3,0.9,0.8,1.8,1.5,2.5
			c-0.1,0-0.2,0.1-0.3,0.1c-0.1,0-0.2,0-0.3,0c-0.5,0-1-0.1-1.5-0.2s-1-0.3-1.5-0.4c-0.5-0.1-1-0.3-1.5-0.4s-1-0.2-1.6-0.2
			c-0.4,0-0.9,0-1.3,0.1c-0.4,0.1-0.8,0.2-1.2,0.3c-0.4,0.1-0.8,0.2-1.2,0.3s-0.8,0.1-1.2,0.1h-0.1c0.6-0.4,1.1-1.1,1.6-2
			c0.5-1,0.9-2.1,1.3-3.5c0.4-1.4,0.8-2.9,1.2-4.6c0.4-1.7,0.7-3.5,1.1-5.3c0.3-1.9,0.7-3.8,1-5.7c0.3-2,0.7-3.9,1-5.9
			c0.3-1.9,0.7-3.8,1.1-5.6c0.4-1.8,0.8-3.5,1.2-5.1c0-0.3,0-0.6-0.1-0.9c-0.1-0.3-0.2-0.6-0.3-0.9s-0.2-0.6-0.3-0.9
			c-0.1-0.3-0.1-0.7-0.1-1c0.5,0,1.1,0.1,1.6,0.2c0.5,0.1,1,0.3,1.5,0.4c0.5,0.2,1,0.3,1.5,0.4c0.5,0.1,1,0.2,1.6,0.2
			c0.6,0,1.1-0.1,1.6-0.2s1-0.3,1.5-0.4c0.5-0.1,1-0.3,1.5-0.4c0.5-0.1,1-0.2,1.6-0.2c0,0.5-0.1,0.9-0.2,1.3s-0.2,0.8-0.3,1.2
			c-0.1,0.4-0.2,0.8-0.3,1.3s-0.2,0.9-0.2,1.5c0.4,1.5,0.7,3.1,1.1,4.9s0.7,3.6,1,5.5c0.3,1.9,0.7,3.8,1,5.7c0.3,1.9,0.7,3.8,1,5.6
			c0.4,1.8,0.7,3.5,1.1,5.2c0.4,1.6,0.7,3.1,1.1,4.3c0.4,1.3,0.7,2.3,1.1,3.2s0.8,1.4,1.2,1.7c-0.6,0-1.2,0-1.8-0.1
			s-1.2-0.2-1.9-0.3c-0.6-0.1-1.3-0.2-1.9-0.3c-0.6-0.1-1.3-0.1-1.9-0.1c-0.8,0-1.5,0.1-2.2,0.2C60.5,99.6,59.7,99.7,58.9,99.7z
			 M53,87.4h5.3l-2.5-13.6L53,87.4z"/>
	</g>
	<g>
		<path class="st0" d="M88,69.3c0,0.5,0.1,1,0.4,1.4c0.3,0.4,0.6,0.8,1,1s0.9,0.5,1.4,0.6c0.5,0.1,1,0.2,1.4,0.2
			c0.7,0,1.3-0.1,1.9-0.4c0.6-0.3,1.1-0.6,1.6-1.1c0.4-0.5,0.8-1,1.1-1.6c0.3-0.6,0.4-1.2,0.4-1.9c0-0.4,0-0.7-0.1-1
			c-0.1-0.3-0.2-0.6-0.3-0.9s-0.2-0.6-0.3-0.9c-0.1-0.3-0.1-0.7-0.1-1c0-0.3,0.2-0.5,0.6-0.5c0.8,0,1.5,0.2,2.1,0.6
			c0.6,0.4,1.1,1,1.5,1.6s0.7,1.4,0.9,2.2s0.3,1.5,0.3,2.3c0,1.3-0.3,2.6-0.8,3.8c-0.5,1.2-1.2,2.3-2.1,3.2
			c-0.9,0.9-1.9,1.6-3.1,2.2c-1.2,0.5-2.5,0.8-3.8,0.8c-0.9,0-1.8-0.1-2.7-0.2s-1.8-0.4-2.7-0.7c-0.9-0.3-1.7-0.7-2.5-1.2
			s-1.5-1.1-2.1-1.7c-0.6-0.7-1.1-1.4-1.4-2.2c-0.4-0.8-0.5-1.7-0.5-2.7V48.6c0-1.3,0.3-2.6,0.9-3.8c0.6-1.2,1.3-2.3,2.3-3.3
			c1-1,2-1.8,3.3-2.3c1.2-0.6,2.5-0.9,3.8-0.9c0.7,0,1.3,0.1,1.9,0.2c0.6,0.1,1.2,0.3,1.8,0.4c0.6,0.1,1.2,0.3,1.8,0.4
			c0.6,0.1,1.2,0.2,1.9,0.2s1.3-0.1,2-0.2c0.6-0.1,1.3-0.3,1.8-0.6c-0.1,0.6-0.2,1.2-0.3,1.8c-0.2,0.6-0.3,1.2-0.5,1.7
			c-0.2,0.6-0.4,1.2-0.6,1.8c-0.2,0.6-0.4,1.2-0.5,1.8c-0.2,0.8-0.4,1.7-0.5,2.6c-0.1,0.9-0.2,1.7-0.3,2.6c-0.1,0.3-0.2,0.6-0.2,0.9
			c-0.1,0.3-0.1,0.6-0.2,1C98,53,98,53.3,97.9,53.6c-0.1,0.3-0.2,0.6-0.4,0.8c-0.2-0.6-0.3-1.2-0.5-1.8c-0.2-0.7-0.3-1.3-0.6-2
			c-0.2-0.7-0.5-1.3-0.7-1.9c-0.3-0.6-0.6-1.2-1-1.6c-0.4-0.5-0.9-0.9-1.5-1.1c-0.6-0.3-1.2-0.4-2-0.4c-0.4,0-0.8,0.1-1.1,0.2
			s-0.7,0.4-1,0.7c-0.3,0.3-0.5,0.6-0.7,1c-0.2,0.4-0.3,0.8-0.3,1.2V69.3z"/>
	</g>
	<g>
		<path class="st0" d="M114.8,21.8c-0.2-0.5-0.4-1-0.7-1.4c-0.3-0.4-0.5-0.9-0.7-1.3c-0.2-0.4-0.3-0.8-0.3-1.3
			c0.6,0,1.1,0.1,1.6,0.2c0.5,0.1,1.1,0.2,1.6,0.4c0.5,0.1,1.1,0.3,1.6,0.4c0.6,0.1,1.2,0.2,1.8,0.2c0.6,0,1.1-0.1,1.6-0.2
			c0.5-0.1,1-0.2,1.5-0.3c0.5-0.1,1-0.2,1.4-0.3c0.5-0.1,0.9-0.2,1.4-0.2c-0.4,1-0.8,1.9-1.3,2.9c-0.4,1-0.8,2-1,3v12.3
			c0.5-1.2,1.1-2.5,1.7-3.7c0.6-1.2,1.2-2.5,1.7-3.8c0.6-1.3,1-2.5,1.4-3.8c0.4-1.3,0.7-2.6,0.8-4c0-0.3,0-0.6-0.1-0.8
			c-0.1-0.2-0.1-0.4-0.2-0.6c-0.1-0.2-0.1-0.4-0.2-0.6c-0.1-0.2-0.1-0.4-0.1-0.7c0.2,0,0.5,0,0.7,0.1c0.3,0.1,0.6,0.1,1,0.2
			c0.4,0.1,0.9,0.2,1.4,0.2c0.5,0.1,1.2,0.1,2,0.1c1.2,0,2.3-0.1,3.2-0.3c0.9-0.2,1.7-0.3,2.4-0.3c-1,1.1-1.9,2.3-2.6,3.6
			c-0.7,1.3-1.4,2.6-1.9,4c-0.6,1.4-1.1,2.8-1.7,4.1c-0.5,1.4-1.1,2.8-1.7,4.1c0.8,2.1,1.6,4.2,2.4,6.4s1.5,4.3,2.3,6.4
			s1.6,4.2,2.5,6.3c0.9,2.1,1.9,4.1,3,6.1c0,0.2-0.1,0.2-0.2,0.3c-0.1,0-0.2,0-0.3,0c-0.5,0-1.1,0-1.6-0.1c-0.5-0.1-1-0.2-1.4-0.3
			c-0.5-0.1-0.9-0.2-1.4-0.3c-0.5-0.1-0.9-0.1-1.4-0.1c-0.5,0-1,0-1.5,0.1c-0.5,0.1-1,0.1-1.4,0.2c-0.5,0.1-1,0.2-1.4,0.2
			c-0.5,0.1-1,0.1-1.5,0.1c0-0.3,0.1-0.6,0.2-0.9c0.1-0.2,0.2-0.5,0.3-0.8c0.1-0.3,0.2-0.6,0.3-0.9s0.2-0.8,0.2-1.3
			c-0.1-1-0.3-2-0.6-3c-0.3-1-0.6-1.9-1-2.9c-0.4-1-0.7-1.9-1.1-2.9c-0.4-1-0.7-1.9-1-2.9c-0.7,1.3-1.4,2.7-2,4.2
			c-0.6,1.5-1.1,3-1.3,4.5c0,0.9,0.2,1.7,0.4,2.5c0.3,0.7,0.6,1.4,0.9,2c0.3,0.6,0.6,1,0.9,1.4c0.3,0.4,0.4,0.7,0.4,0.8
			c-0.6,0-1.1,0-1.6-0.1c-0.5-0.1-1-0.2-1.5-0.3c-0.5-0.1-1-0.2-1.6-0.3c-0.6-0.1-1.2-0.1-2-0.1c-0.6,0-1.2,0-1.7,0.1
			c-0.5,0.1-1,0.2-1.4,0.3c-0.4,0.1-0.9,0.2-1.4,0.3c-0.5,0.1-1,0.1-1.5,0.1c0-0.5,0.1-1,0.3-1.4c0.2-0.4,0.4-0.9,0.7-1.4
			c0.2-0.5,0.5-1,0.7-1.7c0.2-0.6,0.3-1.4,0.3-2.3v-29C115.1,22.9,115,22.3,114.8,21.8z"/>
	</g>
	<g>
		<path class="st0" d="M153.7,0.1c0.1,0,0.2-0.1,0.3-0.1c0.1,0,0.2,0,0.3,0c0.4,0,0.7,0.1,1.1,0.2s0.7,0.2,1.1,0.3
			c0.4,0.1,0.7,0.2,1.1,0.3c0.4,0.1,0.7,0.2,1.1,0.2c0.6,0,1.2-0.1,1.8-0.2s1.1-0.2,1.7-0.3s1.1-0.2,1.6-0.3
			c0.5-0.1,1.1-0.2,1.7-0.2c0.6,0,1.2,0.1,1.8,0.2c0.6,0.1,1.2,0.2,1.8,0.3c0.6,0.1,1.2,0.2,1.8,0.3s1.3,0.2,1.9,0.2
			c0.5,0,1-0.1,1.5-0.2c0.5-0.1,1-0.2,1.5-0.3c0.5-0.1,1-0.2,1.5-0.3c0.5-0.1,1-0.2,1.5-0.2c0,0.5-0.1,1.2-0.3,2s-0.4,1.8-0.7,2.9
			c-0.3,1-0.5,2.1-0.7,3.2s-0.3,2.1-0.3,3.1c0,0.9,0.1,1.6,0.2,2.3c0.1,0.7,0.2,1.3,0.2,2c0,0.2,0,0.4,0,0.5c0,0.2,0,0.3-0.1,0.5
			v0.1c-0.3-0.7-0.7-1.4-1-2.2c-0.4-0.8-0.7-1.5-1.1-2.3c-0.4-0.8-0.9-1.5-1.3-2.2c-0.5-0.7-1-1.3-1.6-1.9c-0.6-0.5-1.3-1-2-1.3
			s-1.6-0.5-2.5-0.5c-0.3,0-0.6,0-1,0.1c-0.4,0.1-0.7,0.2-1,0.3c-0.3,0.2-0.6,0.4-0.8,0.6s-0.3,0.6-0.3,1v9.9c1.3,0,2.4-0.2,3.2-0.5
			c0.8-0.3,1.5-0.6,2-1c0.5-0.4,0.9-0.7,1.3-1s0.7-0.5,1.1-0.5c0,0.6-0.1,1.1-0.2,1.5c-0.1,0.5-0.2,0.9-0.4,1.4
			c-0.1,0.5-0.2,0.9-0.3,1.4c-0.1,0.5-0.2,0.9-0.2,1.4c0,0.4,0,0.9,0.1,1.3c0.1,0.4,0.2,0.9,0.3,1.3c0.1,0.4,0.2,0.8,0.3,1.3
			c0.1,0.4,0.1,0.8,0.1,1.3c-0.6,0-1.1-0.1-1.5-0.4c-0.4-0.3-0.9-0.6-1.4-1c-0.5-0.4-1.1-0.7-1.8-1c-0.7-0.3-1.6-0.4-2.7-0.4v12.7
			c0,0.5,0.1,0.9,0.3,1.4c0.2,0.4,0.5,0.9,0.8,1.3c0.3,0.4,0.5,0.9,0.8,1.3c0.2,0.4,0.4,0.9,0.4,1.4c-0.5,0-1,0-1.4-0.1
			c-0.4-0.1-0.9-0.2-1.3-0.2c-0.4-0.1-0.8-0.2-1.2-0.2c-0.4-0.1-0.8-0.1-1.3-0.1c-0.8,0-1.5,0.1-2.2,0.2c-0.7,0.1-1.3,0.2-1.9,0.3
			c-0.6,0.1-1.2,0.2-1.8,0.3c-0.6,0.1-1.3,0.2-1.9,0.2c0-0.6,0.1-1.1,0.3-1.5c0.2-0.4,0.5-0.8,0.8-1.3c0.3-0.4,0.5-1,0.8-1.6
			c0.2-0.6,0.4-1.4,0.4-2.3V5.8c0-0.5-0.1-1.1-0.3-1.7S155,3,154.7,2.4c-0.3-0.5-0.5-1-0.7-1.5S153.7,0.2,153.7,0.1z"/>
	</g>
	<g>
		<path class="st0" d="M189.6,29.5c0-1.9,0.3-3.7,1-5.1c0.6-1.5,1.5-2.7,2.5-3.7c1-1,2.2-1.7,3.6-2.2c1.4-0.5,2.8-0.7,4.2-0.7
			c1.5,0,2.9,0.2,4.2,0.7s2.5,1.3,3.6,2.3c1,1,1.9,2.3,2.5,3.8c0.6,1.5,0.9,3.2,0.9,5.2v16.8c0,1.9-0.3,3.6-0.9,5.1
			s-1.4,2.9-2.4,4.1c-1,1.1-2.2,2-3.6,2.7c-1.4,0.6-2.9,1-4.4,1c-1.3,0-2.7-0.2-4-0.6c-1.3-0.4-2.5-1.1-3.5-1.9
			c-1-0.9-1.9-1.9-2.5-3.2c-0.7-1.3-1-2.8-1.1-4.6V29.5z M203.6,29.5c0-0.7-0.1-1.3-0.2-1.7c-0.1-0.5-0.3-0.9-0.6-1.2
			c-0.2-0.3-0.5-0.6-0.8-0.7s-0.6-0.2-1-0.2c-0.4,0-0.7,0.1-1.1,0.3c-0.4,0.2-0.7,0.5-1,0.8c-0.3,0.4-0.6,0.8-0.7,1.3
			s-0.3,1.1-0.3,1.8v18.5c0.1,1.1,0.4,1.9,1,2.4c0.6,0.5,1.2,0.8,2,0.8c0.4,0,0.7-0.1,1-0.2c0.3-0.1,0.6-0.3,0.9-0.6s0.5-0.6,0.6-1
			s0.2-0.9,0.2-1.4V29.5z"/>
	</g>
	<g>
		<path class="st0" d="M229.1,43.9c0-0.5-0.1-1-0.3-1.4c-0.2-0.4-0.5-0.8-0.7-1.2s-0.5-0.8-0.7-1.2c-0.2-0.4-0.3-0.8-0.3-1.3
			c0.5,0,1,0,1.5,0.1c0.5,0.1,1,0.1,1.4,0.2c0.5,0.1,1,0.1,1.5,0.2s1,0.1,1.6,0.1c0.8,0,1.6-0.1,2.4-0.2s1.5-0.3,2.2-0.4
			c0.7-0.1,1.5-0.3,2.2-0.4c0.7-0.1,1.5-0.2,2.2-0.2c1.7,0,3.2,0.3,4.6,1s2.4,1.5,3.3,2.6c0.9,1.1,1.5,2.3,2,3.7s0.7,2.8,0.7,4.3
			c0,1-0.1,2-0.3,2.9c-0.2,1-0.6,1.9-1,2.8s-1,1.7-1.7,2.4c-0.7,0.7-1.5,1.3-2.5,1.8c1.2,0.9,2.1,1.9,2.8,3s1.1,2.4,1.5,3.7
			c0.3,1.3,0.5,2.6,0.5,4c0.1,1.4,0.1,2.7,0.1,4v0.2c0,0.7,0.1,1.4,0.3,1.9c0.2,0.5,0.5,1,0.7,1.5s0.5,0.9,0.7,1.4
			c0.2,0.4,0.3,0.9,0.3,1.4c-0.5,0-1.1-0.1-1.7-0.2c-0.7-0.1-1.4-0.2-2.2-0.4c-0.8-0.1-1.7-0.3-2.6-0.4c-0.9-0.1-2-0.2-3-0.2h-0.1
			c-0.2,0-0.4-0.2-0.6-0.6c-0.1-0.4-0.3-0.9-0.3-1.5c-0.1-0.6-0.1-1.2-0.2-1.8c0-0.6,0-1.2,0-1.6c0-0.7,0-1.5,0.1-2.4
			c0.1-0.9,0.1-1.8,0.1-2.7c0-0.8-0.1-1.6-0.2-2.4c-0.1-0.8-0.3-1.5-0.7-2.1c-0.3-0.6-0.8-1.1-1.4-1.5c-0.6-0.4-1.4-0.6-2.3-0.6
			c-0.2,0-0.5,0-0.7,0c-0.3,0-0.5,0.1-0.8,0.1v12.5c0,0.5,0.1,1,0.3,1.4c0.2,0.4,0.4,0.8,0.6,1.2c0.2,0.4,0.4,0.8,0.6,1.1
			s0.3,0.7,0.3,1.1c-0.6,0-1.1,0-1.7-0.1s-1.1-0.1-1.7-0.2c-0.6-0.1-1.2-0.2-1.8-0.2c-0.6-0.1-1.2-0.1-1.7-0.1c-0.5,0-1,0-1.5,0.1
			c-0.5,0.1-1,0.2-1.5,0.3c-0.5,0.1-1,0.2-1.5,0.3c-0.5,0.1-1,0.1-1.5,0.1c0-0.3,0.1-0.7,0.2-1c0.1-0.3,0.3-0.6,0.5-1
			s0.4-0.7,0.7-1.1c0.2-0.4,0.5-0.9,0.7-1.4c0.2-0.5,0.4-1.1,0.5-1.8c0.1-0.7,0.2-1.4,0.2-2.3V43.9z M237.4,56.8
			c0.4,0.1,0.7,0.2,1,0.3c0.3,0,0.6,0.1,0.9,0.1c0.8,0,1.5-0.2,2.1-0.5c0.6-0.4,1.1-0.8,1.5-1.4c0.4-0.6,0.7-1.3,0.9-2
			c0.2-0.7,0.3-1.5,0.3-2.3c0-0.8-0.1-1.5-0.3-2.3c-0.2-0.7-0.5-1.4-0.8-2s-0.8-1-1.3-1.4c-0.5-0.3-1.1-0.5-1.8-0.5
			c-0.7,0-1.5,0.2-2.5,0.7V56.8z"/>
	</g>
	<g>
		<path class="st0" d="M270,100.4c0-0.4,0.1-0.9,0.4-1.3c0.3-0.4,0.5-0.9,0.9-1.4c0.3-0.5,0.6-1,0.9-1.6c0.3-0.6,0.4-1.2,0.4-2
			c0-2.2,0-4.4,0.1-6.7s0.1-4.7,0.1-7.1s0.1-4.8,0.1-7.2s0.1-4.8,0.1-7.2c0-0.3-0.1-0.6-0.2-1c-0.1-0.3-0.4-0.5-0.8-0.5
			c-0.5,0-1,0.2-1.5,0.6s-0.8,0.9-1.2,1.6c-0.4,0.6-0.7,1.3-1,2c-0.3,0.7-0.6,1.4-0.9,2s-0.6,1.1-0.9,1.6s-0.6,0.6-0.8,0.6
			c0-1.5-0.1-3-0.2-4.5c-0.1-1.5-0.1-3-0.1-4.5c0-0.5,0-1-0.1-1.5s-0.2-1-0.3-1.5c-0.1-0.5-0.2-1-0.3-1.5c-0.1-0.5-0.1-1-0.1-1.5
			c0.3,0,0.6,0.1,1,0.2s0.6,0.3,0.9,0.4c0.3,0.1,0.6,0.3,0.9,0.4c0.3,0.1,0.6,0.2,0.9,0.2c0.8,0,1.5,0,2.3-0.1s1.5-0.1,2.3-0.2
			c0.7-0.1,1.5-0.2,2.2-0.2s1.4-0.1,2.2-0.1c0.8,0,1.6,0.1,2.3,0.2c0.7,0.2,1.5,0.3,2.2,0.5c0.7,0.2,1.5,0.3,2.2,0.5
			c0.7,0.1,1.5,0.2,2.2,0.2c0.4,0,0.8-0.1,1.2-0.2c0.4-0.1,0.8-0.3,1.1-0.5c0.4-0.2,0.7-0.3,1.1-0.5c0.4-0.1,0.7-0.2,1-0.2
			c-0.1,1.1-0.3,2.1-0.5,3s-0.4,1.9-0.5,2.9s-0.3,1.9-0.4,3c-0.1,1-0.2,2.2-0.2,3.4c0,0.6,0,1.1,0,1.8c0,0.6,0.1,1.3,0.1,2
			c-0.3,0-0.6-0.2-0.9-0.7c-0.2-0.5-0.5-1.1-0.7-1.8c-0.2-0.7-0.5-1.5-0.8-2.3s-0.6-1.6-1-2.3c-0.4-0.7-0.8-1.3-1.3-1.8
			c-0.5-0.5-1.1-0.7-1.8-0.7c-0.3,0-0.5,0.1-0.8,0.4s-0.3,0.5-0.3,0.8c0,2.5,0,5.1,0,7.7c0,2.6,0,5.1,0.1,7.5c0,2.4,0.1,4.7,0.1,6.8
			c0,2.1,0,3.9,0,5.5c0,0.7,0.1,1.3,0.4,2c0.3,0.6,0.6,1.3,1,1.9c0.3,0.6,0.7,1.2,1,1.8c0.3,0.6,0.4,1.1,0.4,1.6
			c-0.6,0-1.2-0.1-1.9-0.3c-0.7-0.2-1.3-0.4-2-0.6c-0.7-0.2-1.4-0.4-2.1-0.6s-1.4-0.3-2.2-0.3c-0.6,0-1.1,0.1-1.7,0.2
			c-0.5,0.1-1,0.3-1.5,0.4c-0.5,0.1-1,0.3-1.5,0.4C271,100.3,270.5,100.4,270,100.4z"/>
	</g>
	<g>
		<path class="st0" d="M306.5,105.7c0-0.2-0.1-0.8-0.4-1.7c-0.3-0.9-0.7-2-1.2-3.3c-0.5-1.3-1.1-2.8-1.7-4.4s-1.3-3.2-2-4.9
			c-0.7-1.6-1.4-3.3-2.2-4.8c-0.7-1.6-1.4-3-2.1-4.2c0.5,0,1.1,0.1,1.6,0.2c0.5,0.1,1,0.2,1.6,0.3c0.5,0.1,1,0.2,1.6,0.3
			c0.5,0.1,1.1,0.2,1.7,0.2c0.6,0,1.1,0,1.5-0.1c0.5-0.1,0.9-0.2,1.3-0.3c0.4-0.1,0.8-0.2,1.2-0.3c0.4-0.1,0.8-0.1,1.2-0.1
			c0,0.3-0.1,0.6-0.1,0.9c-0.1,0.3-0.1,0.5-0.2,0.8s-0.2,0.5-0.2,0.8s-0.1,0.6-0.1,0.9c0,0.6,0.1,1.3,0.4,2.1s0.6,1.7,0.9,2.7
			c0.4,1,0.7,1.9,1.1,2.9c0.4,1,0.7,1.9,1,2.8c0.3-1,0.6-2,1.1-3c0.4-1,0.8-2,1.2-3c0.4-1,0.7-2,1-2.9c0.3-0.9,0.4-1.8,0.4-2.6
			c0-0.3-0.1-0.5-0.2-0.7s-0.2-0.4-0.3-0.5s-0.2-0.3-0.3-0.5s-0.2-0.4-0.2-0.6c0.5,0,1,0.1,1.4,0.2c0.5,0.1,0.9,0.3,1.4,0.4
			c0.5,0.1,0.9,0.3,1.4,0.4c0.5,0.1,1,0.2,1.5,0.2c0.5,0,1,0,1.4-0.1c0.4-0.1,0.9-0.1,1.3-0.2c0.4-0.1,0.9-0.1,1.3-0.2
			c0.4-0.1,0.8-0.1,1.3-0.1c-0.8,1.2-1.6,2.5-2.4,4.1s-1.6,3.1-2.4,4.8c-0.8,1.7-1.5,3.3-2.2,4.9c-0.7,1.6-1.3,3.1-1.8,4.5
			s-0.9,2.5-1.2,3.5s-0.4,1.6-0.4,1.9v11.8c0,0.9,0.2,1.7,0.5,2.3c0.4,0.7,0.7,1.2,1.2,1.7c0.4,0.5,0.8,0.8,1.2,1.1
			c0.4,0.3,0.5,0.5,0.5,0.7c-0.7,0-1.3-0.1-2-0.2c-0.6-0.1-1.3-0.2-1.9-0.4c-0.6-0.1-1.3-0.3-2-0.4c-0.7-0.1-1.4-0.2-2.1-0.2
			c-0.5,0-1.1,0-1.6,0.1c-0.5,0.1-1.1,0.2-1.6,0.3c-0.5,0.1-1.1,0.2-1.6,0.3c-0.5,0.1-1.1,0.1-1.6,0.1c0-0.3,0.2-0.8,0.5-1.3
			c0.3-0.6,0.6-1.1,1-1.8c0.4-0.6,0.7-1.3,1-2c0.3-0.7,0.5-1.4,0.5-2.1V105.7z"/>
	</g>
</g>
<g>
	<g>
		<path class="st0" d="M0.4,207.6c-0.2-1.2-0.4-2.5-0.4-3.8c0-6.1,2.3-9.5,6.3-9.5c4.1,0,6.5,3.3,6.5,9.2c0,3.9-0.9,6.7-2.5,8.1
			c-1,0.9-2.6,1.4-3.9,1.4C3.2,213.1,1,211,0.4,207.6z M9.4,203.8c0-4.1-1-6.1-2.9-6.1c-2.1,0-3.1,1.9-3.1,6s0.9,6,2.9,6h0.1
			C8.5,209.6,9.4,207.7,9.4,203.8z"/>
		<path class="st0" d="M26,204.8v-10.1h3.3v18.1h-2.9l-6.1-10.9v10.9H17v-18.1h3.3L26,204.8z"/>
		<path class="st0" d="M37.7,209.6h7.9v3.2H34.3v-18.1h3.4V209.6z"/>
		<path class="st0" d="M48.6,194.7l4,6.5l4-6.5h4.1L54.3,205v7.8h-3.5v-7.9l-6.2-10.2H48.6z"/>
		<path class="st0" d="M67.5,194.7h11.3v3.2h-3.9v14.9h-3.5v-14.9h-3.9V194.7z"/>
		<path class="st0" d="M85.5,201.7h5.6v-7h3.4v18.1h-3.4v-7.6h-5.6v7.6h-3.5v-18.1h3.4V201.7z"/>
		<path class="st0" d="M110.1,198.1h-7.3v3.6h5v3.4h-5v4.1h7.9v3.5H99.4v-18.1h10.8V198.1z"/>
		<path class="st0" d="M123.7,201.7h5.6v-7h3.4v18.1h-3.4v-7.6h-5.6v7.6h-3.5v-18.1h3.4V201.7z"/>
		<path class="st0" d="M141,212.8h-3.4v-18.1h3.4V212.8z"/>
		<path class="st0" d="M159.6,202v3.4h-1.2v4.4c-1.2,1.9-3.8,3.3-6.4,3.3c-4,0-6.9-4.1-6.9-9.3c0-5,2.9-9.5,7.3-9.5
			c2.3,0,4.6,1.5,5.7,3.6l-2.7,1.9c-0.7-1.3-1.7-2-3.1-2c-2.3,0-3.6,2.5-3.6,5.8c0,3.7,1.4,6.1,3.7,6.1c1.2,0,2.2-0.5,2.7-1.5v-2.9
			h-2V202H159.6z"/>
		<path class="st0" d="M166.8,201.7h5.6v-7h3.4v18.1h-3.4v-7.6h-5.6v7.6h-3.4v-18.1h3.4V201.7z"/>
		<path class="st0" d="M191.5,198.1h-7.3v3.6h5v3.4h-5v4.1h7.9v3.5h-11.3v-18.1h10.8V198.1z"/>
		<path class="st0" d="M203.6,207.5c0-1.3-1.1-2.3-2.7-2.6c-1.7-0.3-2.4-0.4-3.3-1c-1.3-0.8-2.1-2-2.1-4c0-2.9,2.7-5.6,5.7-5.6
			c2.6,0,4.6,1.5,5.4,4.1l-3.1,1.3c-0.1-0.3-0.2-0.5-0.3-0.7c-0.4-0.9-1.1-1.3-2-1.3c-1.2,0-2.1,0.9-2.1,2.1c0,0.9,0.4,1.2,1.6,1.5
			c2.1,0.4,2.6,0.6,3.6,1.1c1.9,0.9,2.9,2.9,2.9,5c0,3.1-2.5,5.6-5.6,5.6c-3.3,0-5.5-1.9-6.6-4.8l3-1.6c0.8,2.1,1.9,2.9,3.5,2.9
			C202.5,209.7,203.6,208.7,203.6,207.5z"/>
		<path class="st0" d="M209.5,194.7h11.3v3.2h-3.9v14.9h-3.5v-14.9h-3.9V194.7z"/>
		<path class="st0" d="M242.2,215.3c-0.7,0.8-1.6,1.1-2.8,1.1c-1.1,0-1.9-0.4-3.2-1.2c-1.2-0.7-2.1-0.9-3.3-0.9c-1,0-1.9,0.3-2.7,1
			l-1.1-2.7c0.5-0.6,1.4-1,2.1-1.1c-0.9-0.9-1.6-2.3-1.9-3.9c-0.2-1.2-0.4-2.5-0.4-3.8c0-6.1,2.3-9.5,6.3-9.5c4.1,0,6.5,3.3,6.5,9.2
			c0,3.9-0.9,6.7-2.5,8.1c-0.4,0.4-1,0.7-1.6,0.9c0.8,0.4,1.4,0.7,2,0.7c0.5,0,1-0.1,1.4-0.5L242.2,215.3z M232.3,203.6
			c0,4.1,0.9,6,2.9,6h0.1c2.1-0.1,3.1-1.9,3.1-5.9c0-4.1-1-6.1-2.9-6.1C233.3,197.7,232.3,199.6,232.3,203.6z"/>
		<path class="st0" d="M252.1,209.7c1.7,0,2.8-1.2,2.8-3.1v-11.9h3.4v11.8c0,3.9-2.6,6.6-6.2,6.6s-6.2-2.7-6.2-6.4v-12.1h3.4v11.9
			C249.3,208.5,250.4,209.7,252.1,209.7z"/>
		<path class="st0" d="M270.3,194.7l6.2,18.1h-3.6l-1.7-5h-4.9l-1.8,5h-3.6l6.2-18.1H270.3z M270,204.3l-1.3-3.7l-1.3,3.7H270z"/>
		<path class="st0" d="M283.2,209.6h7.9v3.2h-11.3v-18.1h3.4V209.6z"/>
		<path class="st0" d="M297.8,212.8h-3.4v-18.1h3.4V212.8z"/>
		<path class="st0" d="M301.1,194.7h11.3v3.2h-3.9v14.9H305v-14.9h-3.9V194.7z"/>
		<path class="st0" d="M318.7,194.7l4,6.5l4-6.5h4.1l-6.3,10.3v7.8h-3.5v-7.9l-6.2-10.2H318.7z"/>
		<path class="st0" d="M59.6,234.5v-10.1H63v18.1h-2.9L54,231.6v10.9h-3.4v-18.1h3.3L59.6,234.5z"/>
		<path class="st0" d="M75.7,224.4l6.2,18.1h-3.6l-1.7-5h-4.9l-1.8,5h-3.6l6.2-18.1H75.7z M75.4,234l-1.3-3.7l-1.3,3.7H75.4z"/>
		<path class="st0" d="M82.3,224.4h11.3v3.2h-3.9v14.9h-3.5v-14.9h-3.9V224.4z"/>
		<path class="st0" d="M103,239.4c1.7,0,2.8-1.2,2.8-3.1v-11.9h3.4v11.8c0,3.9-2.6,6.6-6.2,6.6s-6.2-2.7-6.2-6.4v-12.1h3.4v11.9
			C100.2,238.3,101.3,239.4,103,239.4z"/>
		<path class="st0" d="M126,229.7c0,1.8-0.8,3.3-2.2,4.2l-0.3,0.2l3,8.3h-3.6l-2.8-7.6l-2.7,0v7.6H114v-18.1h6.5
			C123.7,224.4,126,226.6,126,229.7z M122.6,229.6c0-1-0.8-1.8-1.6-1.8h-3.6v3.7l3.3,0h0.4C121.9,231.4,122.6,230.6,122.6,229.6z"/>
		<path class="st0" d="M138.8,224.4l6.2,18.1h-3.6l-1.7-5h-4.9l-1.8,5h-3.6l6.2-18.1H138.8z M138.5,234l-1.3-3.7l-1.3,3.7H138.5z"/>
		<path class="st0" d="M151.7,239.3h7.9v3.2h-11.3v-18.1h3.4V239.3z"/>
		<path class="st0" d="M166.3,239.3h7.9v3.2h-11.3v-18.1h3.4V239.3z"/>
		<path class="st0" d="M177.3,224.4l4,6.5l4-6.5h4.1l-6.3,10.3v7.8h-3.5v-7.9l-6.2-10.2H177.3z"/>
		<path class="st0" d="M211.7,231.7v3.4h-1.2v4.4c-1.2,1.9-3.8,3.3-6.4,3.3c-4,0-6.9-4.1-6.9-9.3c0-5,2.9-9.5,7.3-9.5
			c2.3,0,4.6,1.5,5.7,3.6l-2.7,1.9c-0.7-1.3-1.7-2-3-2c-2.3,0-3.6,2.5-3.6,5.8c0,3.7,1.4,6.1,3.7,6.1c1.2,0,2.2-0.5,2.7-1.5v-2.9h-2
			v-3.4H211.7z"/>
		<path class="st0" d="M227.5,229.7c0,1.8-0.8,3.3-2.2,4.2l-0.3,0.2l3,8.3h-3.6l-2.8-7.6l-2.7,0v7.6h-3.4v-18.1h6.5
			C225.1,224.4,227.5,226.6,227.5,229.7z M224.1,229.6c0-1-0.8-1.8-1.6-1.8h-3.6v3.7l3.3,0h0.4C223.3,231.4,224.1,230.6,224.1,229.6
			z"/>
		<path class="st0" d="M231.4,237.3c-0.2-1.2-0.4-2.5-0.4-3.8c0-6.1,2.3-9.5,6.3-9.5c4.1,0,6.5,3.3,6.5,9.2c0,3.9-0.9,6.7-2.5,8.1
			c-1,0.9-2.6,1.4-3.9,1.4C234.3,242.8,232,240.7,231.4,237.3z M240.4,233.5c0-4.1-1-6.1-2.9-6.1c-2.1,0-3.1,1.9-3.1,6s0.9,6,2.9,6
			h0.1C239.5,239.3,240.4,237.5,240.4,233.5z"/>
		<path class="st0" d="M250.1,224.4l1.1,7.9l2-7.9h3l1.9,7.9l1.2-7.9h3.4l-2.6,18.1h-3l-2.5-9.9l-2.5,9.9h-3l-2.5-18.1H250.1z"/>
		<path class="st0" d="M275.4,234.5v-10.1h3.3v18.1h-2.9l-6.1-10.9v10.9h-3.4v-18.1h3.3L275.4,234.5z"/>
	</g>
</g>
<path class="st1" d="M165.3,93.5c4.6,0,8.4,3,9.7,7.1c0.3-1,0.5-2.1,0.5-3.2c0-5.7-4.6-10.3-10.3-10.3c-5.7,0-10.3,4.6-10.3,10.3
	c0,1.1,0.2,2.2,0.5,3.2C156.9,96.5,160.8,93.5,165.3,93.5z"/>
<g>
	<g>
		<polygon class="st1" points="144.2,311.4 164.7,311.4 144.2,297.4 		"/>
		<polygon class="st1" points="186.4,311.4 186.4,297.4 166,311.4 		"/>
		<polygon class="st1" points="144.2,282 144.2,296 164.7,282 		"/>
		<polygon class="st1" points="166,282 186.4,296 186.4,282 		"/>
	</g>
	<path class="st1" d="M165.3,283.7l-19,13l19,13l19-13L165.3,283.7z M168,301.4l-4.9-7.2H163v7.2h-1.6v-9h2.1l4.1,5.9h0.1v-5.9h1.6
		v9H168z"/>
</g>
</svg>
