<?xml version="1.0" encoding="utf-8"?>
<!-- Generator: Adobe Illustrator 22.0.1, SVG Export Plug-In . SVG Version: 6.00 Build 0)  -->
<svg version="1.1" id="Layer_1" xmlns="http://www.w3.org/2000/svg" xmlns:xlink="http://www.w3.org/1999/xlink" x="0px" y="0px"
	 viewBox="0 0 131.5 37" style="enable-background:new 0 0 131.5 37;" xml:space="preserve">
<style type="text/css">
	.st0{fill:none;stroke:#B1834F;stroke-miterlimit:10;}
	.st1{fill:none;stroke:#EFEBE5;stroke-miterlimit:10;}
	.st2{fill:none;stroke:#EFEBE5;stroke-linecap:square;stroke-miterlimit:10;}
	.st3{fill:none;stroke:#B1834F;stroke-linecap:square;stroke-miterlimit:10;}
</style>
<g>
	<g>
		<path class="st0" d="M130.8,0.9h-8.1h-22.5h-7.6l5.8,17.6L92.5,36h7.6h22.5h8.1L125,18.5L130.8,0.9z M17.9,34.3
			c2.7,0,5.1,1.6,8.7,1.6c2.4,0,4.6-1,6.2-2.6c1.6-1.6,2.6-3.8,2.6-6.2c0-3.7-1.6-6-1.6-8.7s1.6-5.1,1.6-8.7c0-2.4-1-4.6-2.6-6.2
			C31.2,2,29,1.1,26.6,1.1c-3.7,0-6,1.6-8.7,1.6s-5.1-1.6-8.7-1.6c-2.4,0-4.6,1-6.2,2.6C1.5,5.2,0.5,7.4,0.5,9.8
			c0,3.7,1.6,6,1.6,8.7s-1.6,5.1-1.6,8.7c0,2.4,1,4.6,2.6,6.2c1.6,1.6,3.8,2.6,6.2,2.6C12.9,35.9,15.2,34.3,17.9,34.3z"/>
		<path class="st1" d="M79.1,18.5c0,3.5-2.8,6.3-6.3,6.3c-3.5,0-6.3-2.8-6.3-6.3s2.8-6.3,6.3-6.3C76.3,12.2,79.1,15,79.1,18.5z
			 M65.5,36.4c0,0,9.1-4.4,16.9-8.1c4.3-2,6.7-5.4,6.7-9.9c0-4.5-2.5-7.9-6.7-9.9C74.7,5,65.5,0.6,65.5,0.6s-9,4.4-16.9,8.1
			c-4.3,2-6.7,5.4-6.7,9.9c0,4.5,2.5,7.9,6.7,9.9C56.3,31.9,65.5,36.4,65.5,36.4z"/>
	</g>
	<polyline class="st2" points="61.6,24.6 61.6,12.3 61,12.3 53.2,20.9 53.2,21.5 64.4,21.5 	"/>
	<g>
		<path class="st3" d="M21.9,28.7h-10V18.5h2.7 M21.9,18.5h-10V8.3h2.7 M21.9,18.5c2.8,0,5.1,2.3,5.1,5.1c0,2.8-2.3,5.1-5.1,5.1
			 M21.9,8.3c2.8,0,5.1,2.3,5.1,5.1s-2.3,5.1-5.1,5.1 M14.7,8.3h7.3 M20,15.9v-5h-0.3l-3.1,3.2v0.5h4.6 M21.7,23.6
			c0,1.4-1.1,2.6-2.6,2.6c-1.4,0-2.6-1.1-2.6-2.6c0-1.4,1.1-2.6,2.6-2.6C20.6,21,21.7,22.2,21.7,23.6z"/>
		<path class="st0" d="M121.4,22.9c0,1.8-1.4,3.2-3.2,3.2c-1.8,0-3.2-1.4-3.2-3.2c0-1.8,1.4-3.2,3.2-3.2
			C120,19.7,121.4,21.2,121.4,22.9z"/>
	</g>
	<polyline class="st3" points="119.5,17.1 119.5,10.8 119.1,10.8 115.2,14.9 115.2,15.5 121.2,15.5 	"/>
	<g>
		<path class="st0" d="M108.5,26.1h-5v-7.6h2 M108.5,18.5h-5v-7.6h2 M108.5,18.5c2.1,0,3.8,1.7,3.8,3.8c0,2.1-1.7,3.8-3.8,3.8
			 M108.5,10.8c2.1,0,3.8,1.7,3.8,3.8c0,2.1-1.7,3.8-3.8,3.8 M105.6,10.8h2.9"/>
	</g>
</g>
</svg>
