<?xml version="1.0" encoding="utf-8"?>
<!-- Generator: Adobe Illustrator 22.0.1, SVG Export Plug-In . SVG Version: 6.00 Build 0)  -->
<svg version="1.1" id="Layer_1" xmlns="http://www.w3.org/2000/svg" xmlns:xlink="http://www.w3.org/1999/xlink" x="0px" y="0px"
	 viewBox="0 0 139.7 42.6" style="enable-background:new 0 0 139.7 42.6;" xml:space="preserve">
<style type="text/css">
	.st0{fill:none;stroke:#B1834F;stroke-miterlimit:10;}
	.st1{fill:none;stroke:#EFEBE5;stroke-miterlimit:10;}
</style>
<g>
	<g>
		<path class="st0" d="M49.6,32.4c0,0,14.3,4.8,16,5.5c1.7,0.7,5.2,1.5,7.6,1.5s5.9-0.9,7.6-1.5c1.7-0.7,16-5.5,16-5.5V10.2
			c0,0-14.3-4.8-16-5.5c-1.7-0.7-5.2-1.5-7.6-1.5s-5.9,0.9-7.6,1.5c-1.7,0.7-16,5.5-16,5.5V32.4z"/>
	</g>
	<g>
		<path class="st1" d="M22.2,0.5c2.5,0,4.6,1,6,2.5C33,7.9,38.5,13.6,41.9,17c1.3,1.4,1.9,2.7,1.9,4.3c0,1.6-0.6,2.9-1.9,4.3
			c-3.3,3.4-8.9,9.1-13.7,14c-1.4,1.4-3.6,2.5-6,2.5c-2.5,0-4.6-1-6-2.5C11.3,34.7,5.8,29,2.4,25.6c-1.3-1.4-1.9-2.7-1.9-4.3
			c0-1.6,0.6-2.9,1.9-4.3c3.3-3.4,8.9-9.1,13.7-14C17.5,1.5,19.7,0.5,22.2,0.5z"/>
	</g>
	<circle class="st0" cx="80.9" cy="21.3" r="6.3"/>
	<polyline class="st0" points="69.5,27.5 69.5,15.1 68.9,15.1 61,23.8 61,24.4 72.3,24.4 	"/>
	<g>
		<g>
			<circle class="st1" cx="23" cy="26.4" r="2.6"/>
			<polyline class="st1" points="23.9,18.7 23.9,13.6 23.6,13.6 20.4,16.9 20.4,17.4 25,17.4 			"/>
		</g>
		<g>
			<line class="st1" x1="18.5" y1="11" x2="25.8" y2="11"/>
			<g>
				<path class="st1" d="M25.8,11c2.8,0,5.2,2.3,5.2,5.2s-2.3,5.2-5.2,5.2"/>
				<path class="st1" d="M25.8,21.3c2.8,0,5.2,2.3,5.2,5.2s-2.3,5.2-5.2,5.2"/>
				<polyline class="st1" points="25.8,21.3 15.7,21.3 15.7,11 18.5,11 				"/>
				<polyline class="st1" points="25.8,31.6 15.7,31.6 15.7,21.3 18.5,21.3 				"/>
			</g>
		</g>
	</g>
	<circle class="st1" cx="126.6" cy="25.8" r="3.2"/>
	<polyline class="st1" points="128,19.9 128,13.6 127.6,13.6 123.7,17.7 123.7,18.3 129.6,18.3 	"/>
	<g>
		<line class="st1" x1="113.9" y1="13.6" x2="116.8" y2="13.6"/>
		<g>
			<path class="st1" d="M116.8,13.6c2.1,0,3.9,1.7,3.9,3.9s-1.7,3.9-3.9,3.9"/>
			<path class="st1" d="M116.8,21.3c2.1,0,3.9,1.7,3.9,3.9S119,29,116.8,29"/>
			<polyline class="st1" points="116.8,21.3 111.8,21.3 111.8,13.6 113.9,13.6 			"/>
			<polyline class="st1" points="116.8,29 111.8,29 111.8,21.3 113.9,21.3 			"/>
		</g>
	</g>
	<g>
		<path class="st1" d="M138.8,3.6c0,0-4.1,6.9-4.1,17.7c0,10.8,4.1,17.7,4.1,17.7h-19.1h-19.1c0,0,4.1-6.9,4.1-17.7
			c0-10.8-4.1-17.7-4.1-17.7H138.8z"/>
	</g>
</g>
</svg>
