<?xml version="1.0" encoding="utf-8"?>
<!-- Generator: Adobe Illustrator 22.0.1, SVG Export Plug-In . SVG Version: 6.00 Build 0)  -->
<svg version="1.1" id="Layer_1" xmlns="http://www.w3.org/2000/svg" xmlns:xlink="http://www.w3.org/1999/xlink" x="0px" y="0px"
	 viewBox="0 0 159.6 93.3" style="enable-background:new 0 0 159.6 93.3;" xml:space="preserve">
<style type="text/css">
	.st0{fill:#B1834F;}
	.st1{fill:#EFEBE5;}
</style>
<g>
	<g>
		<polygon class="st0" points="91.3,13.1 89.3,12.3 90.4,10.4 88.4,11.2 87.8,9.1 87,11.2 85.1,10.1 85.9,12.1 83.8,12.7 85.9,13.5
			84.8,15.4 86.8,14.5 87.4,16.6 88.2,14.6 90.1,15.7 89.2,13.7 		"/>
		<polygon class="st0" points="18.9,58.4 19.8,56.4 17.9,57.5 17.1,55.4 16.5,57.5 14.5,56.6 15.6,58.5 13.5,59.3 15.6,59.9
			14.7,61.9 16.6,60.9 17.4,62.9 18,60.8 20,61.7 19,59.8 21,59 		"/>
		<polygon class="st0" points="106.2,21.1 104.4,19.8 106,18.3 103.8,18.6 103.8,16.4 102.5,18.2 100.9,16.7 101.2,18.8 99,18.9
			100.8,20.2 99.3,21.7 101.5,21.4 101.5,23.6 102.8,21.8 104.4,23.3 104,21.2 		"/>
		<polygon class="st0" points="113.9,27.8 111.7,27.6 112.2,25.4 110.5,26.9 109.3,25 109.1,27.2 107,26.7 108.4,28.4 106.5,29.5
			108.7,29.7 108.2,31.9 109.9,30.4 111.1,32.3 111.3,30.1 113.4,30.6 112,28.9 		"/>
		<path class="st0" d="M83,14.2L20.7,57c-0.2,0.1-0.3,0.4-0.1,0.7c0.1,0.1,0.2,0.2,0.4,0.2c0.1,0,0.2,0,0.3-0.1L83.5,15
			c0.2-0.1,0.3-0.4,0.1-0.7C83.5,14.2,83.2,14.1,83,14.2z"/>
		<path class="st0" d="M99.3,17.9c0.2,0,0.4-0.1,0.4-0.3c0.1-0.2,0-0.5-0.3-0.6l-8-2.8c-0.2-0.1-0.5,0-0.6,0.3
			c-0.1,0.2,0,0.5,0.3,0.6l8,2.8C99.2,17.9,99.2,17.9,99.3,17.9z"/>
		<path class="st0" d="M108,26c0.1,0,0.2,0,0.3-0.1c0.2-0.2,0.2-0.5,0.1-0.7l-2.4-3c-0.2-0.2-0.5-0.2-0.7-0.1
			c-0.2,0.2-0.2,0.5-0.1,0.7l2.4,3C107.8,25.9,107.9,26,108,26z"/>
	</g>
	<g>
		<path class="st1" d="M116.3,34.4c-0.2,0-0.5,0.2-0.5,0.4c0,0.4-0.1,0.8-0.2,1.2c-0.1,0.3,0.1,0.5,0.3,0.6c0,0,0.1,0,0.1,0
			c0.2,0,0.4-0.1,0.5-0.3c0.1-0.5,0.2-0.9,0.2-1.4C116.7,34.6,116.5,34.4,116.3,34.4z"/>
		<path class="st1" d="M115,26.5c-0.3,0-0.5,0.2-0.5,0.5c0,0.4,0.1,0.9,0.1,1.4c0,0.2,0.2,0.4,0.5,0.4c0,0,0,0,0.1,0
			c0.3,0,0.4-0.3,0.4-0.5c-0.1-0.4-0.1-0.9-0.1-1.3C115.5,26.7,115.3,26.5,115,26.5z"/>
		<path class="st1" d="M116,32.7C116,32.7,116.1,32.7,116,32.7c0.4-0.1,0.5-0.3,0.5-0.6c-0.1-0.4-0.2-0.9-0.3-1.3
			c-0.1-0.3-0.3-0.4-0.6-0.3c-0.3,0.1-0.4,0.3-0.3,0.6c0.1,0.4,0.2,0.9,0.3,1.3C115.6,32.5,115.8,32.7,116,32.7z"/>
		<path class="st1" d="M112.4,51.3c0-0.3-0.3-0.4-0.5-0.4c-0.3,0-0.4,0.3-0.4,0.5c0.1,0.4,0.1,0.9,0.1,1.3c0,0.3,0.2,0.4,0.5,0.4
			c0,0,0,0,0,0c0.3,0,0.5-0.2,0.4-0.5C112.5,52.3,112.5,51.8,112.4,51.3z"/>
		<path class="st1" d="M108.2,64.2c0.1,0,0.3-0.1,0.4-0.2c0.3-0.3,0.6-0.7,0.8-1.1c0.2-0.2,0.1-0.5-0.1-0.7
			c-0.2-0.2-0.5-0.1-0.7,0.1c-0.3,0.3-0.5,0.7-0.8,1c-0.2,0.2-0.1,0.5,0.1,0.7C108,64.2,108.1,64.2,108.2,64.2z"/>
		<path class="st1" d="M106.1,65.3c-0.3,0.3-0.6,0.6-1,0.9c-0.2,0.2-0.2,0.5,0,0.7c0.1,0.1,0.2,0.2,0.4,0.2c0.1,0,0.2,0,0.3-0.1
			c0.3-0.3,0.7-0.6,1-0.9c0.2-0.2,0.2-0.5,0-0.7C106.6,65.2,106.3,65.2,106.1,65.3z"/>
		<path class="st1" d="M111.2,58.8c-0.2-0.1-0.5,0-0.6,0.3c-0.2,0.4-0.3,0.8-0.5,1.2c-0.1,0.2,0,0.5,0.2,0.6c0.1,0,0.1,0.1,0.2,0.1
			c0.2,0,0.3-0.1,0.4-0.3c0.2-0.4,0.4-0.8,0.6-1.2C111.5,59.2,111.4,58.9,111.2,58.8z"/>
		<path class="st1" d="M102.5,69.3c0.1,0,0.2,0,0.2-0.1c0.3-0.2,0.6-0.4,0.9-0.6c0.2-0.1,0.3-0.4,0.1-0.7c-0.1-0.2-0.4-0.3-0.7-0.1
			c-0.3,0.2-0.6,0.4-0.9,0.6c-0.2,0.1-0.3,0.4-0.2,0.6C102.2,69.2,102.3,69.3,102.5,69.3z"/>
		<path class="st1" d="M111.7,57.1C111.7,57.2,111.7,57.2,111.7,57.1c0.3,0,0.5-0.1,0.6-0.4c0.1-0.5,0.2-0.9,0.2-1.3
			c0-0.3-0.2-0.5-0.4-0.5c-0.3,0-0.5,0.1-0.5,0.4c-0.1,0.4-0.1,0.8-0.2,1.3C111.3,56.8,111.4,57.1,111.7,57.1z"/>
		<path class="st1" d="M111.5,49.3c0.3-0.1,0.4-0.3,0.3-0.6c-0.1-0.4-0.2-0.8-0.4-1.3c-0.1-0.2-0.3-0.4-0.6-0.3
			c-0.2,0.1-0.4,0.3-0.3,0.6c0.1,0.4,0.3,0.8,0.4,1.3c0.1,0.2,0.2,0.3,0.5,0.3C111.4,49.3,111.5,49.3,111.5,49.3z"/>
		<path class="st1" d="M121.7,66.3c-0.4-0.1-0.8-0.3-1.2-0.4c-0.2-0.1-0.5,0-0.6,0.3c-0.1,0.2,0,0.5,0.3,0.6
			c0.4,0.1,0.9,0.3,1.3,0.4c0,0,0.1,0,0.1,0c0.2,0,0.4-0.1,0.5-0.3C122.1,66.6,121.9,66.4,121.7,66.3z"/>
		<path class="st1" d="M118,64.9c-0.3-0.1-0.5-0.4-0.7-0.7c-0.1-0.2-0.4-0.3-0.6-0.2c-0.2,0.1-0.3,0.4-0.2,0.6
			c0.3,0.5,0.7,0.9,1.2,1.1c0.1,0,0.1,0,0.2,0c0.2,0,0.4-0.1,0.4-0.3C118.3,65.3,118.2,65,118,64.9z"/>
		<path class="st1" d="M125.5,67.3c-0.4-0.1-0.8-0.2-1.3-0.3c-0.3-0.1-0.5,0.1-0.6,0.3c-0.1,0.3,0.1,0.5,0.3,0.6
			c0.5,0.1,0.9,0.2,1.3,0.3c0,0,0.1,0,0.1,0c0.2,0,0.4-0.1,0.5-0.4C125.9,67.6,125.8,67.3,125.5,67.3z"/>
		<path class="st1" d="M129.4,68.3c-0.3-0.1-0.6-0.2-0.8-0.3c-0.1,0-0.3-0.1-0.5-0.1c-0.3-0.1-0.5,0.1-0.6,0.3
			c-0.1,0.3,0.1,0.5,0.3,0.6c0.1,0,0.3,0.1,0.3,0.1c0.2,0.1,0.5,0.2,0.9,0.3c0.1,0,0.1,0,0.2,0c0.2,0,0.4-0.1,0.4-0.3
			C129.8,68.7,129.7,68.4,129.4,68.3z"/>
		<path class="st1" d="M115.6,58.4c0,0,0.1,0,0.1,0c0.2-0.1,0.4-0.3,0.3-0.6c-0.2-0.6-0.4-1-0.7-1.3c-0.2-0.2-0.5-0.2-0.7,0
			c-0.2,0.2-0.2,0.5,0,0.7c0.2,0.2,0.4,0.6,0.5,1C115.3,58.3,115.4,58.4,115.6,58.4z"/>
		<path class="st1" d="M115.6,60.6l0,0.2c0,0.4,0.1,0.7,0.1,1.1c0,0.2,0.2,0.4,0.5,0.4c0,0,0,0,0.1,0c0.3,0,0.4-0.3,0.4-0.5
			c0-0.4-0.1-0.7-0.1-1.1l0-0.2c0-0.3-0.3-0.4-0.5-0.4C115.8,60.1,115.6,60.3,115.6,60.6z"/>
		<path class="st1" d="M140.3,73.3c0.1,0,0.1,0,0.2,0c0.2,0,0.3-0.1,0.4-0.3c0.1-0.2,0-0.5-0.2-0.6c-0.3-0.2-0.8-0.3-1.2-0.5
			c-0.2-0.1-0.5,0-0.6,0.3c-0.1,0.2,0,0.5,0.3,0.6C139.6,73,140,73.2,140.3,73.3z"/>
		<path class="st1" d="M149.9,78c-0.2-0.2-0.5-0.1-0.7,0.1c-0.2,0.2-0.1,0.5,0.1,0.7c0.3,0.3,0.7,0.5,1,0.8c0.1,0.1,0.2,0.1,0.3,0.1
			c0.1,0,0.3-0.1,0.4-0.2c0.2-0.2,0.1-0.5-0.1-0.7C150.6,78.5,150.3,78.2,149.9,78z"/>
		<path class="st1" d="M156.3,85.3c0.1,0,0.2,0,0.3-0.1c0.2-0.2,0.3-0.4,0.1-0.7c-0.3-0.4-0.6-0.7-0.8-1.1c-0.2-0.2-0.5-0.2-0.7-0.1
			c-0.2,0.2-0.2,0.5-0.1,0.7c0.3,0.3,0.5,0.7,0.8,1C156,85.2,156.1,85.3,156.3,85.3z"/>
		<path class="st1" d="M146.1,76.5l0.4,0.2c0.2,0.1,0.5,0.3,0.7,0.5c0.1,0.1,0.2,0.1,0.3,0.1c0.2,0,0.3-0.1,0.4-0.2
			c0.1-0.2,0.1-0.5-0.1-0.7c-0.3-0.2-0.6-0.4-0.8-0.5l-0.4-0.2c-0.2-0.1-0.5,0-0.6,0.2C145.8,76,145.9,76.3,146.1,76.5z"/>
		<path class="st1" d="M158.6,88.1c-0.2-0.4-0.4-0.9-0.6-1.3c-0.1-0.2-0.4-0.3-0.6-0.2c-0.2,0.1-0.3,0.4-0.2,0.6
			c0.2,0.4,0.4,0.8,0.5,1.2c0.1,0.2,0.3,0.3,0.4,0.3c0.1,0,0.1,0,0.2,0C158.6,88.6,158.7,88.4,158.6,88.1z"/>
		<path class="st1" d="M159.4,90.8c-0.1-0.3-0.3-0.4-0.6-0.4c-0.3,0.1-0.4,0.3-0.4,0.6c0.1,0.4,0.1,0.8,0.2,1.3
			c0,0.2,0.2,0.4,0.5,0.4c0,0,0,0,0.1,0c0.3,0,0.4-0.3,0.4-0.5C159.5,91.6,159.5,91.2,159.4,90.8z"/>
		<path class="st1" d="M152.7,81.6c0.1,0.1,0.3,0.3,0.4,0.4l0.1,0.1c0.1,0.1,0.2,0.1,0.3,0.1c0.1,0,0.2,0,0.3-0.1
			c0.2-0.2,0.2-0.5,0-0.7l-0.1-0.1c-0.2-0.2-0.3-0.3-0.4-0.4c-0.1-0.1-0.2-0.2-0.4-0.4c-0.2-0.2-0.5-0.2-0.7,0
			c-0.2,0.2-0.2,0.5,0,0.7C152.5,81.4,152.6,81.5,152.7,81.6z"/>
		<path class="st1" d="M143.8,75.2c0.1,0,0.1,0.1,0.2,0.1c0.2,0,0.3-0.1,0.4-0.2c0.1-0.2,0-0.5-0.2-0.6l-1.2-0.6
			c-0.2-0.1-0.5,0-0.6,0.2c-0.1,0.2,0,0.5,0.2,0.6L143.8,75.2z"/>
		<path class="st1" d="M133.2,69.7l-1.3-0.4c-0.2-0.1-0.5,0-0.6,0.3c-0.1,0.2,0,0.5,0.3,0.6l1.3,0.4c0.1,0,0.1,0,0.2,0
			c0.2,0,0.4-0.1,0.4-0.3C133.5,70,133.4,69.7,133.2,69.7z"/>
		<path class="st1" d="M135.4,71.4l1.3,0.4c0.1,0,0.1,0,0.2,0c0.2,0,0.4-0.1,0.4-0.3c0.1-0.2,0-0.5-0.3-0.6l-1.3-0.4
			c-0.2-0.1-0.5,0-0.6,0.3C135,71.1,135.1,71.3,135.4,71.4z"/>
		<path class="st1" d="M144.4,82.1c-0.4-0.2-0.8-0.5-1.2-0.7c-0.2-0.1-0.5-0.1-0.6,0.2c-0.1,0.2-0.1,0.5,0.2,0.6
			c0.4,0.2,0.8,0.4,1.1,0.7c0.1,0,0.2,0.1,0.2,0.1c0.2,0,0.3-0.1,0.4-0.2C144.7,82.5,144.7,82.2,144.4,82.1z"/>
		<path class="st1" d="M113.2,77.9c-0.5-0.1-0.9-0.1-1.2-0.2c-0.3-0.1-0.5,0.1-0.6,0.3c-0.1,0.2,0.1,0.5,0.3,0.6
			c0.4,0.1,0.8,0.2,1.4,0.3c0,0,0,0,0.1,0c0.2,0,0.4-0.2,0.5-0.4C113.6,78.2,113.4,78,113.2,77.9z"/>
		<path class="st1" d="M137,78.8c-0.4-0.1-0.9-0.2-1.3-0.3c-0.2-0.1-0.5,0.1-0.6,0.4c-0.1,0.3,0.1,0.5,0.4,0.6
			c0.4,0.1,0.9,0.2,1.3,0.3c0,0,0.1,0,0.1,0c0.2,0,0.4-0.1,0.5-0.4C137.5,79.1,137.3,78.9,137,78.8z"/>
		<path class="st1" d="M125,77.8l-1.3,0.1c-0.3,0-0.5,0.2-0.5,0.5c0,0.3,0.2,0.5,0.5,0.5c0,0,0,0,0,0l1.3-0.1c0.3,0,0.5-0.2,0.5-0.5
			C125.5,78,125.3,77.8,125,77.8z"/>
		<path class="st1" d="M150,87.8l-0.3-1.3c-0.1-0.3-0.3-0.4-0.6-0.4c-0.3,0.1-0.4,0.3-0.4,0.6l0.3,1.3c0.1,0.2,0.2,0.4,0.5,0.4
			c0,0,0.1,0,0.1,0C149.9,88.3,150,88,150,87.8z"/>
		<path class="st1" d="M129,77.7c-0.4,0-0.9,0-1.3,0c-0.3,0-0.5,0.2-0.5,0.5c0,0.3,0.2,0.5,0.5,0.5c0,0,0,0,0,0c0.4,0,0.9,0,1.3,0
			c0.3,0,0.5-0.2,0.5-0.5C129.5,77.9,129.3,77.7,129,77.7z"/>
		<path class="st1" d="M146.7,83.5c-0.2-0.1-0.5-0.1-0.7,0.1c-0.1,0.2-0.1,0.5,0.1,0.7c0.4,0.3,0.8,0.5,1.1,0.8
			c0.1,0.1,0.2,0.1,0.3,0.1c0.1,0,0.3-0.1,0.4-0.2c0.2-0.2,0.1-0.5-0.1-0.7C147.5,84.1,147.1,83.8,146.7,83.5z"/>
		<path class="st1" d="M121.1,77.9l-1.3,0.1c-0.3,0-0.5,0.2-0.5,0.5c0,0.3,0.2,0.5,0.5,0.5c0,0,0,0,0,0l1.3-0.1
			c0.3,0,0.5-0.2,0.5-0.5C121.5,78.1,121.3,77.9,121.1,77.9z"/>
		<path class="st1" d="M150.6,90.4c-0.1-0.3-0.3-0.4-0.6-0.4c-0.3,0.1-0.4,0.3-0.4,0.6l0.3,1.3c0.1,0.2,0.2,0.4,0.5,0.4
			c0,0,0.1,0,0.1,0c0.3-0.1,0.4-0.3,0.4-0.6L150.6,90.4z"/>
		<path class="st1" d="M117.1,78.1C117.1,78.1,117.1,78.1,117.1,78.1c-0.4,0-0.7,0-1,0l-0.3,0c0,0,0,0,0,0c-0.3,0-0.5,0.2-0.5,0.5
			c0,0.3,0.2,0.5,0.5,0.5l0.3,0c0.3,0,0.7,0,1,0c0.3,0,0.5-0.2,0.5-0.5C117.6,78.3,117.4,78.1,117.1,78.1z"/>
		<path class="st1" d="M133.1,78c-0.5-0.1-0.9-0.1-1.3-0.2c-0.3,0-0.5,0.2-0.5,0.4c0,0.3,0.2,0.5,0.4,0.5c0.4,0,0.8,0.1,1.3,0.2
			c0,0,0,0,0.1,0c0.2,0,0.4-0.2,0.5-0.4C133.5,78.3,133.3,78,133.1,78z"/>
		<path class="st1" d="M140.9,80.1l-0.2-0.1c-0.3-0.1-0.7-0.3-1-0.4c-0.2-0.1-0.5,0-0.6,0.3c-0.1,0.2,0,0.5,0.3,0.6
			c0.3,0.1,0.7,0.3,1,0.4l0.2,0.1c0.1,0,0.1,0,0.2,0c0.2,0,0.3-0.1,0.4-0.3C141.2,80.5,141.1,80.2,140.9,80.1z"/>
		<path class="st1" d="M111.2,22.1c-0.2,0.2-0.1,0.5,0.1,0.7l0.2,0.2c0.3,0.2,0.6,0.4,0.9,0.6c0.1,0,0.2,0.1,0.2,0.1
			c0.2,0,0.3-0.1,0.4-0.2c0.1-0.2,0.1-0.5-0.2-0.6c-0.3-0.2-0.6-0.4-0.8-0.5l-0.2-0.2C111.7,21.8,111.4,21.9,111.2,22.1z"/>
		<path class="st1" d="M116.5,24.1c-0.4-0.1-0.8-0.2-1.2-0.4c-0.2-0.1-0.5,0-0.6,0.3s0,0.5,0.3,0.6c0.4,0.1,0.9,0.3,1.3,0.4
			c0,0,0.1,0,0.1,0c0.2,0,0.4-0.1,0.5-0.4C116.9,24.5,116.8,24.2,116.5,24.1z"/>
		<path class="st1" d="M128.2,22.1c-0.2-0.2-0.4-0.3-0.7-0.1c-0.3,0.3-0.7,0.5-1.1,0.7c-0.2,0.1-0.3,0.4-0.2,0.6
			c0.1,0.2,0.2,0.2,0.4,0.2c0.1,0,0.2,0,0.2-0.1c0.4-0.2,0.8-0.5,1.2-0.8C128.3,22.6,128.3,22.3,128.2,22.1z"/>
		<path class="st1" d="M124.7,24c-0.1-0.2-0.3-0.4-0.6-0.3c-0.4,0.1-0.8,0.3-1.2,0.4c-0.3,0.1-0.4,0.3-0.3,0.6
			c0.1,0.2,0.2,0.4,0.5,0.4c0,0,0.1,0,0.1,0c0.5-0.1,0.9-0.2,1.3-0.4C124.6,24.5,124.8,24.3,124.7,24z"/>
		<path class="st1" d="M120.8,24.9c0-0.3-0.3-0.5-0.5-0.4c-0.4,0-0.8,0-1.3,0l0,0.9c0.5,0,0.9,0,1.4,0
			C120.6,25.4,120.8,25.2,120.8,24.9z"/>
		<path class="st1" d="M107.9,19.9c-0.1,0.2,0,0.5,0.2,0.6c0.4,0.2,0.7,0.4,1.1,0.6c0.1,0.1,0.2,0.1,0.3,0.1c0.2,0,0.3-0.1,0.4-0.2
			c0.1-0.2,0.1-0.5-0.1-0.7c-0.4-0.3-0.8-0.5-1.2-0.7C108.3,19.5,108,19.6,107.9,19.9z"/>
		<path class="st1" d="M130.7,19c-0.2-0.1-0.5-0.1-0.6,0.2c-0.2,0.4-0.5,0.7-0.7,1c-0.2,0.2-0.1,0.5,0.1,0.7
			c0.1,0.1,0.2,0.1,0.3,0.1c0.1,0,0.3-0.1,0.4-0.2c0.3-0.4,0.6-0.7,0.8-1.1C131,19.5,130.9,19.2,130.7,19z"/>
		<path class="st1" d="M108.4,12.2c0.1-0.3-0.1-0.5-0.3-0.6c-0.4-0.1-0.9-0.2-1.4-0.2c-0.2,0-0.5,0.2-0.5,0.4c0,0.3,0.2,0.5,0.4,0.5
			c0.4,0,0.8,0.1,1.2,0.2c0,0,0.1,0,0.1,0C108.2,12.6,108.4,12.4,108.4,12.2z"/>
		<path class="st1" d="M117.7,19.3c0.2,0,0.3-0.1,0.4-0.2c0.1-0.2,0-0.5-0.2-0.6c-0.4-0.2-0.7-0.4-1.1-0.7c-0.2-0.1-0.5-0.1-0.7,0.1
			c-0.1,0.2-0.1,0.5,0.1,0.7c0.4,0.3,0.8,0.5,1.2,0.7C117.5,19.3,117.6,19.3,117.7,19.3z"/>
		<path class="st1" d="M110.6,12.7c-0.2-0.1-0.5-0.1-0.7,0.2c-0.1,0.2-0.1,0.5,0.2,0.7c0.3,0.2,0.6,0.4,0.9,0.7l0.1,0.1
			c0.1,0.1,0.2,0.1,0.3,0.1c0.1,0,0.3-0.1,0.4-0.2c0.2-0.2,0.2-0.5,0-0.7l-0.1-0.1C111.4,13.2,111,12.9,110.6,12.7z"/>
		<path class="st1" d="M102.7,12.8c0,0,0.1,0,0.2,0c0.4-0.1,0.8-0.2,1.2-0.3c0.3,0,0.4-0.3,0.4-0.6c0-0.3-0.3-0.4-0.6-0.4
			c-0.5,0.1-0.9,0.2-1.3,0.4c-0.2,0.1-0.4,0.4-0.3,0.6C102.3,12.7,102.5,12.8,102.7,12.8z"/>
		<path class="st1" d="M99.3,14.8c0.1,0,0.2,0,0.3-0.1c0.3-0.3,0.7-0.5,1-0.8c0.2-0.1,0.3-0.4,0.1-0.7c-0.1-0.2-0.4-0.3-0.7-0.1
			c-0.4,0.3-0.8,0.5-1.1,0.9c-0.2,0.2-0.2,0.5,0,0.7C99,14.7,99.2,14.8,99.3,14.8z"/>
		<path class="st1" d="M124.1,20.5C124.1,20.5,124.1,20.5,124.1,20.5c0.5-0.1,1-0.2,1.4-0.3c0.3-0.1,0.4-0.3,0.3-0.6
			c-0.1-0.3-0.3-0.4-0.6-0.3c-0.4,0.1-0.8,0.2-1.3,0.2c-0.3,0-0.4,0.3-0.4,0.5C123.7,20.3,123.9,20.5,124.1,20.5z"/>
		<path class="st1" d="M114.1,16.9c0.1,0.1,0.2,0.1,0.3,0.1c0.1,0,0.3-0.1,0.4-0.2c0.2-0.2,0.1-0.5-0.1-0.7c-0.3-0.3-0.7-0.6-1-0.9
			c-0.2-0.2-0.5-0.2-0.7,0c-0.2,0.2-0.2,0.5,0,0.7C113.5,16.3,113.8,16.6,114.1,16.9z"/>
		<path class="st1" d="M127.9,19.3c0.1,0,0.2,0,0.2-0.1c0.4-0.2,0.8-0.5,1.2-0.8c0.2-0.2,0.2-0.5,0.1-0.7c-0.2-0.2-0.5-0.2-0.7-0.1
			c-0.3,0.3-0.7,0.5-1,0.7c-0.2,0.1-0.3,0.4-0.2,0.6C127.5,19.2,127.7,19.3,127.9,19.3z"/>
		<path class="st1" d="M120,20.3c0.5,0.1,0.9,0.2,1.4,0.3c0,0,0,0,0.1,0c0.2,0,0.4-0.2,0.5-0.4c0-0.3-0.2-0.5-0.4-0.5
			c-0.4,0-0.8-0.1-1.2-0.2c-0.3-0.1-0.5,0.1-0.6,0.3C119.6,20,119.8,20.2,120,20.3z"/>
		<path class="st1" d="M95.3,22.6c-0.1,0.4-0.1,0.9-0.1,1.3v0c0,0.3,0.2,0.4,0.5,0.4c0.3,0,0.5-0.2,0.5-0.5c0-0.4,0-0.8,0.1-1.2
			c0-0.3-0.2-0.5-0.4-0.5C95.5,22.1,95.3,22.3,95.3,22.6z"/>
		<path class="st1" d="M105.1,33.4l0.2,0c0.4,0,0.8,0,1.2-0.1c0.3,0,0.5-0.3,0.4-0.5c0-0.3-0.3-0.5-0.5-0.4c-0.4,0-0.8,0-1.1,0
			l-0.1,0c0,0,0,0,0,0c-0.3,0-0.5,0.2-0.5,0.5C104.6,33.2,104.8,33.4,105.1,33.4z"/>
		<path class="st1" d="M100.8,32.1c-0.1,0.2,0,0.5,0.3,0.6c0.4,0.2,0.9,0.3,1.3,0.4c0,0,0.1,0,0.1,0c0.2,0,0.4-0.1,0.5-0.4
			c0.1-0.3-0.1-0.5-0.3-0.6c-0.4-0.1-0.8-0.2-1.2-0.4C101.1,31.7,100.9,31.8,100.8,32.1z"/>
		<path class="st1" d="M96.5,26.5c-0.1-0.3-0.3-0.4-0.6-0.3c-0.3,0.1-0.4,0.3-0.3,0.6c0.1,0.5,0.3,0.9,0.5,1.3
			c0.1,0.2,0.3,0.3,0.4,0.3c0.1,0,0.1,0,0.2,0c0.2-0.1,0.3-0.4,0.2-0.6C96.7,27.3,96.6,26.9,96.5,26.5z"/>
		<path class="st1" d="M97.6,30.4c0.3,0.3,0.7,0.7,1,1c0.1,0.1,0.2,0.1,0.3,0.1c0.1,0,0.3-0.1,0.4-0.2c0.2-0.2,0.1-0.5-0.1-0.7
			c-0.3-0.3-0.6-0.5-0.9-0.9c-0.2-0.2-0.5-0.2-0.7,0C97.4,29.9,97.4,30.2,97.6,30.4z"/>
		<path class="st1" d="M96.9,18.3c-0.2-0.1-0.5,0-0.6,0.3c-0.1,0.2-0.2,0.7-0.4,1.3c-0.1,0.3,0.1,0.5,0.3,0.6c0,0,0.1,0,0.1,0
			c0.2,0,0.4-0.1,0.5-0.3c0.2-0.6,0.3-1,0.4-1.2C97.3,18.7,97.1,18.4,96.9,18.3z"/>
		<path class="st1" d="M117.2,11.7c0.2,0.4,0.3,0.8,0.4,1.1c0.1,0.2,0.3,0.3,0.4,0.3c0.1,0,0.1,0,0.2,0c0.2-0.1,0.4-0.4,0.3-0.6
			c-0.1-0.4-0.3-0.7-0.4-1.1c-0.1-0.2-0.4-0.4-0.6-0.3C117.2,11.2,117.1,11.5,117.2,11.7z"/>
		<path class="st1" d="M118.5,14.8c-0.3,0-0.5,0.2-0.5,0.4c0,0.4-0.1,0.8-0.2,1.2c-0.1,0.2,0,0.5,0.3,0.6c0.1,0,0.1,0,0.2,0
			c0.2,0,0.4-0.1,0.4-0.3c0.2-0.5,0.3-1,0.3-1.4C119,15,118.8,14.8,118.5,14.8z"/>
		<path class="st1" d="M109.9,4.9c0.4,0,0.9,0.1,1.3,0.1c0,0,0,0,0.1,0c0.2,0,0.4-0.2,0.5-0.4c0-0.3-0.1-0.5-0.4-0.5
			c-0.5-0.1-0.9-0.1-1.4-0.1c-0.3,0-0.5,0.2-0.5,0.5C109.4,4.6,109.6,4.9,109.9,4.9z"/>
		<path class="st1" d="M104.4,6.6c-0.2-0.1-0.5-0.1-0.7,0.1c-0.3,0.4-0.5,0.8-0.7,1.3c-0.1,0.2,0,0.5,0.3,0.6c0,0,0.1,0,0.2,0
			c0.2,0,0.4-0.1,0.4-0.3c0.1-0.4,0.3-0.7,0.5-1.1C104.7,7,104.6,6.7,104.4,6.6z"/>
		<path class="st1" d="M113.5,5.7c0.4,0.2,0.7,0.4,1.1,0.6c0.1,0.1,0.2,0.1,0.3,0.1c0.1,0,0.3-0.1,0.4-0.2c0.2-0.2,0.1-0.5-0.1-0.7
			c-0.4-0.3-0.8-0.5-1.2-0.7c-0.2-0.1-0.5,0-0.6,0.2C113.2,5.3,113.3,5.6,113.5,5.7z"/>
		<path class="st1" d="M106,5.6c0.1,0,0.2,0,0.3-0.1l0.1-0.1c0.1-0.1,0.4-0.2,0.9-0.4c0.3-0.1,0.4-0.3,0.4-0.6
			c-0.1-0.3-0.3-0.4-0.6-0.4c-0.6,0.1-1,0.3-1.3,0.5c0,0-0.1,0.1-0.1,0.1c-0.2,0.2-0.2,0.5-0.1,0.7C105.8,5.5,105.9,5.6,106,5.6z"/>
		<path class="st1" d="M116.3,9.4c0,0.2,0.2,0.4,0.5,0.4c0,0,0,0,0,0c0.3,0,0.5-0.2,0.4-0.5c0-0.5-0.1-1-0.3-1.4
			c-0.1-0.2-0.4-0.4-0.6-0.3c-0.2,0.1-0.4,0.4-0.3,0.6C116.1,8.6,116.2,9,116.3,9.4z"/>
		<path class="st1" d="M95.5,1.6c0.1,0,0.1,0,0.2,0c0.4-0.1,0.8-0.3,1.2-0.4c0.3-0.1,0.4-0.3,0.4-0.6c-0.1-0.3-0.3-0.4-0.6-0.4
			c-0.4,0.1-0.9,0.2-1.3,0.4C95.1,0.8,95,1,95.1,1.3C95.1,1.5,95.3,1.6,95.5,1.6z"/>
		<path class="st1" d="M99.4,0.9c0.4,0,0.8,0.1,1.2,0.2c0,0,0.1,0,0.1,0c0.2,0,0.4-0.1,0.5-0.4c0.1-0.3-0.1-0.5-0.4-0.6
			C100.4,0.1,99.9,0,99.4,0c-0.3,0-0.5,0.2-0.5,0.5C98.9,0.7,99.1,0.9,99.4,0.9z"/>
		<path class="st1" d="M92,3.5c0.1,0,0.2,0,0.3-0.1c0.3-0.3,0.7-0.5,1-0.7c0.2-0.1,0.3-0.4,0.1-0.7c-0.1-0.2-0.4-0.3-0.7-0.1
			c-0.4,0.3-0.8,0.5-1.1,0.8c-0.2,0.2-0.2,0.5-0.1,0.7C91.8,3.5,91.9,3.5,92,3.5z"/>
		<path class="st1" d="M89.4,6.6c0.1,0,0.1,0,0.2,0c0.2,0,0.4-0.1,0.4-0.3c0.2-0.4,0.4-0.7,0.6-1.1c0.1-0.2,0.1-0.5-0.1-0.7
			c-0.2-0.1-0.5-0.1-0.7,0.1c-0.3,0.4-0.5,0.8-0.7,1.2C89.1,6.2,89.2,6.5,89.4,6.6z"/>
		<path class="st1" d="M87.7,4c0,0,0.1,0,0.1,0c0.4-0.1,0.8-0.2,1.2-0.2c0.3,0,0.5-0.2,0.5-0.5c0-0.3-0.2-0.5-0.5-0.5c0,0,0,0,0,0
			c-0.4,0-1,0.1-1.4,0.3c-0.2,0.1-0.4,0.3-0.3,0.6C87.3,3.8,87.5,4,87.7,4z"/>
		<path class="st1" d="M58.3,24c0.1,0,0.1,0,0.2,0c0.4-0.2,0.8-0.3,1.2-0.5c0.2-0.1,0.4-0.3,0.3-0.6c-0.1-0.2-0.3-0.4-0.6-0.3
			c-0.4,0.1-0.9,0.3-1.3,0.5c-0.2,0.1-0.3,0.4-0.2,0.6C57.9,23.9,58.1,24,58.3,24z"/>
		<path class="st1" d="M62.1,23C62.1,23,62.1,23,62.1,23c0.4,0,0.7,0,1.1,0l0.3,0c0,0,0,0,0,0c0.3,0,0.5-0.2,0.5-0.5
			c0-0.3-0.2-0.5-0.5-0.5l-0.3,0c-0.4,0-0.7,0-1.1,0c-0.3,0-0.5,0.2-0.4,0.5C61.6,22.9,61.8,23,62.1,23z"/>
		<path class="st1" d="M55,26.3c0.1,0,0.2,0,0.3-0.1c0.3-0.3,0.6-0.6,0.9-0.9c0.2-0.2,0.2-0.5,0.1-0.7c-0.2-0.2-0.5-0.2-0.7-0.1
			c-0.4,0.3-0.7,0.6-1,0.9c-0.2,0.2-0.2,0.5,0,0.7C54.8,26.3,54.9,26.3,55,26.3z"/>
		<path class="st1" d="M66,23.3c0.4,0.1,0.9,0.2,1.3,0.3c0,0,0.1,0,0.1,0c0.2,0,0.4-0.1,0.5-0.4c0.1-0.3-0.1-0.5-0.3-0.6
			c-0.4-0.1-0.9-0.2-1.3-0.3c-0.3,0-0.5,0.1-0.5,0.4C65.5,23,65.7,23.2,66,23.3z"/>
		<path class="st1" d="M73,25.3c-0.4,0.1-0.8,0.1-1.2,0.1c-0.3,0-0.5,0.2-0.5,0.4c0,0.3,0.2,0.5,0.4,0.5c0.1,0,0.3,0,0.4,0
			c0.4,0,0.7,0,1-0.1c0.3-0.1,0.4-0.3,0.4-0.6C73.5,25.4,73.3,25.3,73,25.3z"/>
		<path class="st1" d="M75.2,22.4c-0.3,0-0.5,0.2-0.5,0.5l0,0.2c0,0.4-0.1,0.7-0.1,1c-0.1,0.2,0,0.5,0.3,0.6c0.1,0,0.1,0,0.2,0
			c0.2,0,0.4-0.1,0.4-0.3c0.1-0.4,0.2-0.8,0.2-1.3l0-0.2C75.7,22.6,75.5,22.4,75.2,22.4z"/>
		<path class="st1" d="M76.6,7.2c0.1,0,0.2,0,0.3-0.1c0.2-0.2,0.5-0.4,0.7-0.5c0.1,0,0.2-0.1,0.3-0.1c0.2-0.1,0.4-0.4,0.2-0.6
			c-0.1-0.2-0.4-0.4-0.6-0.2c-0.1,0.1-0.2,0.1-0.4,0.2c-0.3,0.1-0.6,0.4-0.9,0.6c-0.2,0.2-0.2,0.5,0,0.7C76.4,7.2,76.5,7.2,76.6,7.2
			z"/>
		<path class="st1" d="M73.9,14.5c0.3,0,0.5-0.2,0.5-0.5c0-0.4,0-0.9,0.1-1.3c0-0.3-0.2-0.5-0.4-0.5c-0.2,0-0.5,0.2-0.5,0.4
			c-0.1,0.4-0.1,0.9-0.1,1.4C73.4,14.3,73.6,14.5,73.9,14.5C73.9,14.5,73.9,14.5,73.9,14.5z"/>
		<path class="st1" d="M74.3,18.5C74.3,18.5,74.3,18.5,74.3,18.5c0.3-0.1,0.5-0.3,0.5-0.6c-0.1-0.4-0.2-0.9-0.2-1.3
			c0-0.3-0.3-0.4-0.5-0.4c-0.3,0-0.4,0.3-0.4,0.5c0.1,0.4,0.1,0.9,0.2,1.3C73.9,18.3,74.1,18.5,74.3,18.5z"/>
		<path class="st1" d="M74.4,10.6c0.1,0,0.1,0,0.2,0c0.2,0,0.4-0.1,0.4-0.3c0.1-0.4,0.3-0.8,0.5-1.2c0.1-0.2,0-0.5-0.2-0.6
			c-0.2-0.1-0.5,0-0.6,0.2c-0.2,0.4-0.4,0.8-0.5,1.3C74.1,10.2,74.2,10.5,74.4,10.6z"/>
		<path class="st1" d="M80.3,5.7C80.3,5.7,80.4,5.7,80.3,5.7c0.5-0.1,0.9-0.2,1.4-0.2c0.3,0,0.4-0.3,0.4-0.5c0-0.3-0.3-0.4-0.5-0.4
			c-0.5,0.1-0.9,0.1-1.4,0.2c-0.3,0.1-0.4,0.3-0.4,0.6C79.9,5.6,80.1,5.7,80.3,5.7z"/>
		<path class="st1" d="M84.2,5.5c0.4,0,0.9,0.1,1.3,0.2c0,0,0.1,0,0.1,0c0.2,0,0.4-0.2,0.5-0.4c0.1-0.3-0.1-0.5-0.4-0.6
			c-0.4-0.1-0.9-0.2-1.4-0.2c-0.3,0-0.5,0.2-0.5,0.4C83.8,5.2,84,5.4,84.2,5.5z"/>
		<path class="st1" d="M80.4,20.6c0.1,0,0.1,0,0.2,0c0.2,0,0.3-0.1,0.4-0.3c0.1-0.1,0.1-0.2,0.2-0.4c0.1-0.3,0.3-0.5,0.4-0.9
			c0.1-0.2,0-0.5-0.3-0.6c-0.2-0.1-0.5,0-0.6,0.3c-0.1,0.3-0.2,0.5-0.3,0.8c-0.1,0.1-0.1,0.3-0.2,0.4C80.1,20.3,80.2,20.5,80.4,20.6
			z"/>
		<path class="st1" d="M83.1,40.4c-0.2-0.2-0.5-0.2-0.7-0.1c-0.3,0.2-0.6,0.4-1,0.5c-0.2,0.1-0.4,0.4-0.3,0.6
			c0.1,0.2,0.3,0.3,0.4,0.3c0,0,0.1,0,0.2,0c0.5-0.2,0.9-0.4,1.3-0.7C83.2,40.9,83.2,40.6,83.1,40.4z"/>
		<path class="st1" d="M76.2,35.8c0,0,0.1,0,0.1,0c0.2,0,0.4-0.1,0.5-0.4c0.1-0.4,0.2-0.8,0.4-1.2c0.1-0.2,0-0.5-0.3-0.6
			c-0.2-0.1-0.5,0-0.6,0.3c-0.2,0.5-0.3,0.9-0.4,1.3C75.8,35.5,76,35.8,76.2,35.8z"/>
		<path class="st1" d="M78,30.3c-0.2,0.4-0.4,0.7-0.5,1.1l0,0.1c-0.1,0.2,0,0.5,0.2,0.6c0.1,0,0.1,0,0.2,0c0.2,0,0.3-0.1,0.4-0.3
			l0-0.1c0.2-0.4,0.4-0.7,0.5-1.1c0.1-0.2,0-0.5-0.2-0.6C78.4,30,78.2,30.1,78,30.3z"/>
		<path class="st1" d="M75.8,37.5c-0.3,0-0.5,0.2-0.5,0.5c0,0.1,0,0.2,0,0.3c0,0.4,0,0.8,0.1,1.2c0.1,0.2,0.2,0.4,0.5,0.4
			c0,0,0.1,0,0.1,0c0.3-0.1,0.4-0.3,0.3-0.6c-0.1-0.3-0.1-0.6-0.1-1c0-0.1,0-0.1,0-0.2C76.3,37.7,76.1,37.5,75.8,37.5z"/>
		<path class="st1" d="M80.2,24.6C80.2,24.6,80.2,24.6,80.2,24.6c0.3,0,0.5-0.2,0.5-0.4c0-0.1,0-0.3,0-0.4c0-0.2,0-0.4,0-0.5l0-0.4
			c0-0.3-0.2-0.5-0.5-0.5c-0.3,0-0.5,0.2-0.5,0.5l0,0.4c0,0.2,0,0.3,0,0.5c0,0.1,0,0.3,0,0.4C79.8,24.4,79.9,24.6,80.2,24.6z"/>
		<path class="st1" d="M79,41c-0.4-0.1-0.8-0.2-1.2-0.3c-0.2-0.1-0.5,0-0.6,0.3c-0.1,0.2,0,0.5,0.3,0.6c0.4,0.2,0.9,0.3,1.4,0.4
			c0,0,0,0,0.1,0c0.2,0,0.4-0.2,0.5-0.4C79.4,41.3,79.2,41.1,79,41z"/>
		<path class="st1" d="M79.3,28.5c0,0,0.1,0,0.1,0c0.2,0,0.4-0.1,0.5-0.3c0.1-0.4,0.3-0.9,0.4-1.3c0.1-0.3-0.1-0.5-0.4-0.6
			c-0.3-0.1-0.5,0.1-0.6,0.4c-0.1,0.4-0.2,0.8-0.3,1.2C78.9,28.2,79.1,28.4,79.3,28.5z"/>
		<path class="st1" d="M80.5,14.1c0,0,0.1,0,0.1,0c0.2,0,0.4-0.1,0.5-0.4c0.1-0.4,0.2-0.8,0.4-1.2c0.1-0.2,0-0.5-0.2-0.6
			c-0.2-0.1-0.5,0-0.6,0.2c-0.2,0.5-0.4,0.9-0.5,1.3C80.1,13.8,80.2,14.1,80.5,14.1z"/>
		<path class="st1" d="M82.1,10.5c0.1,0.1,0.2,0.1,0.3,0.1c0.1,0,0.3-0.1,0.4-0.2c0.3-0.3,0.6-0.6,0.9-0.9c0.2-0.2,0.2-0.5,0-0.7
			c-0.2-0.2-0.5-0.2-0.7,0c-0.3,0.3-0.7,0.6-1,1C81.9,10,81.9,10.3,82.1,10.5z"/>
		<path class="st1" d="M85.1,7.9c0.1,0.2,0.3,0.3,0.4,0.3c0.1,0,0.1,0,0.2,0c0.4-0.1,0.8-0.2,1.2-0.3c0.3,0,0.4-0.3,0.4-0.5
			c0-0.3-0.3-0.4-0.5-0.4c-0.5,0.1-0.9,0.2-1.4,0.4C85.1,7.4,85,7.7,85.1,7.9z"/>
		<path class="st1" d="M85.2,42.1c-0.3,0.3-0.6,0.5-1,0.7c-0.2,0.1-0.3,0.4-0.2,0.6c0.1,0.2,0.2,0.2,0.4,0.2c0.1,0,0.2,0,0.2-0.1
			c0.4-0.2,0.8-0.5,1.1-0.9c0.2-0.2,0.2-0.5,0-0.7C85.7,41.9,85.4,41.9,85.2,42.1z"/>
		<path class="st1" d="M90.2,38.7c0.1,0.2,0.2,0.4,0.5,0.4c0,0,0.1,0,0.1,0c0.4-0.1,0.9-0.3,1.3-0.5c0.2-0.1,0.3-0.4,0.2-0.6
			c-0.1-0.2-0.4-0.3-0.6-0.2c-0.4,0.2-0.8,0.4-1.1,0.5C90.3,38.2,90.1,38.4,90.2,38.7z"/>
		<path class="st1" d="M88.6,39.2C88.5,39,88.2,39,88,39.2c-0.3,0.3-0.6,0.6-1,1c-0.2,0.2-0.2,0.5,0,0.7c0.1,0.1,0.2,0.1,0.3,0.1
			c0.1,0,0.2,0,0.3-0.1c0.3-0.4,0.6-0.6,0.9-0.9C88.8,39.7,88.8,39.4,88.6,39.2z"/>
		<path class="st1" d="M78.2,43.2c-0.4-0.2-0.8-0.4-1-0.6c-0.2-0.2-0.5-0.2-0.7,0c-0.2,0.2-0.2,0.5,0,0.7c0.3,0.3,0.7,0.6,1.3,0.8
			c0.1,0,0.1,0,0.2,0c0.2,0,0.4-0.1,0.4-0.3C78.6,43.6,78.5,43.3,78.2,43.2z"/>
		<path class="st1" d="M80.2,44.2c0,0.3,0.2,0.5,0.5,0.5c0.1,0,0.2,0,0.3,0c0.4,0,0.8,0,1.2-0.1c0.3-0.1,0.4-0.3,0.3-0.6
			s-0.4-0.4-0.6-0.3c-0.3,0.1-0.7,0.1-1.1,0.1c0,0,0,0,0,0C80.4,43.8,80.2,44,80.2,44.2z"/>
		<path class="st1" d="M93.7,36.8c0.1,0.1,0.2,0.2,0.3,0.2c0.1,0,0.2,0,0.3-0.1c0.4-0.3,0.7-0.7,1-1c0.2-0.2,0.1-0.5-0.1-0.7
			C95,35,94.7,35,94.6,35.2c-0.2,0.3-0.5,0.6-0.9,0.9C93.5,36.3,93.5,36.6,93.7,36.8z"/>
		<path class="st1" d="M77.5,36.7c-0.2,0.2-0.3,0.5-0.1,0.7c0.3,0.4,0.6,0.8,0.9,1.1c0.1,0.1,0.2,0.2,0.3,0.2c0.1,0,0.2,0,0.3-0.1
			c0.2-0.2,0.2-0.5,0-0.7c-0.3-0.3-0.5-0.6-0.8-1C78,36.6,77.7,36.6,77.5,36.7z"/>
		<path class="st1" d="M80.6,38.7c0.1,0.2,0.2,0.2,0.4,0.2c0.1,0,0.2,0,0.2-0.1c0.4-0.2,0.7-0.5,1.1-0.8c0.2-0.2,0.2-0.5,0-0.7
			c-0.2-0.2-0.5-0.2-0.7,0c-0.4,0.3-0.7,0.6-1,0.7C80.5,38.2,80.4,38.5,80.6,38.7z"/>
		<path class="st1" d="M88.7,24.8c0.1,0,0.3-0.1,0.4-0.2c0.4-0.4,0.5-0.8,0.6-1.2l0-0.1c0.1-0.2,0-0.5-0.3-0.6
			c-0.2-0.1-0.5,0-0.6,0.3l0,0.1c-0.1,0.3-0.2,0.7-0.5,0.9c-0.2,0.2-0.1,0.5,0.1,0.7C88.5,24.8,88.6,24.8,88.7,24.8z"/>
		<path class="st1" d="M90.6,21.5c0.1,0.2,0.3,0.3,0.4,0.3c0.1,0,0.1,0,0.2,0c0.3-0.1,0.7-0.2,1.2-0.3c0.3,0,0.4-0.3,0.4-0.5
			c0-0.3-0.3-0.4-0.5-0.4c-0.5,0.1-1,0.2-1.4,0.3C90.7,21,90.6,21.3,90.6,21.5z"/>
		<path class="st1" d="M91,24.5c0.1,0,0.1,0,0.2,0c0.3-0.1,0.7-0.4,1.2-0.9c0.2-0.2,0.2-0.5,0-0.7c-0.2-0.2-0.5-0.2-0.7,0
			c-0.6,0.5-0.9,0.7-0.9,0.7c-0.2,0.1-0.4,0.4-0.2,0.6C90.6,24.4,90.8,24.5,91,24.5z"/>
		<path class="st1" d="M106.7,2.5c0.4,0.1,0.8,0.3,1.1,0.5c0.1,0.1,0.2,0.1,0.3,0.1c0.2,0,0.3-0.1,0.4-0.2c0.1-0.2,0.1-0.5-0.1-0.7
			c-0.4-0.2-0.8-0.5-1.3-0.6c-0.2-0.1-0.5,0.1-0.6,0.3C106.3,2.1,106.4,2.4,106.7,2.5z"/>
		<path class="st1" d="M102.9,2.3c0,0,0.1,0,0.1,0c0.3-0.1,0.7-0.2,1.2-0.2c0.3,0,0.5-0.2,0.5-0.5c0-0.3-0.2-0.5-0.5-0.5
			c0,0,0,0,0,0c-0.6,0-1.1,0.1-1.5,0.2c-0.2,0.1-0.4,0.3-0.3,0.6C102.5,2.2,102.7,2.3,102.9,2.3z"/>
		<path class="st1" d="M75.9,30.3c-0.1-0.3-0.3-0.4-0.6-0.4c-0.4,0.1-0.9,0.2-1.3,0.2c-0.3,0-0.4,0.3-0.4,0.5c0,0.2,0.2,0.4,0.5,0.4
			c0,0,0,0,0.1,0c0.4-0.1,0.9-0.1,1.3-0.2C75.8,30.8,75.9,30.6,75.9,30.3z"/>
		<path class="st1" d="M70,31c0.4,0.1,0.9,0.2,1.4,0.2c0,0,0,0,0,0c0.2,0,0.4-0.2,0.5-0.4c0-0.3-0.2-0.5-0.4-0.5
			c-0.4,0-0.8-0.1-1.2-0.2c-0.3-0.1-0.5,0.1-0.6,0.3C69.6,30.7,69.8,30.9,70,31z"/>
		<path class="st1" d="M66.7,28.5c-0.2-0.1-0.5,0-0.6,0.2c-0.1,0.2,0,0.5,0.2,0.6c0.2,0.1,0.4,0.2,0.6,0.3l0.6,0.3
			c0.1,0,0.1,0.1,0.2,0.1c0.2,0,0.3-0.1,0.4-0.3c0.1-0.2,0-0.5-0.2-0.6l-0.6-0.3C67.1,28.7,66.9,28.6,66.7,28.5z"/>
		<path class="st1" d="M72.5,83.2c-0.4-0.1-0.8-0.2-1.2-0.4c-0.2-0.1-0.5,0.1-0.6,0.3c-0.1,0.2,0.1,0.5,0.3,0.6
			c0.4,0.1,0.9,0.3,1.3,0.4c0,0,0.1,0,0.1,0c0.2,0,0.4-0.1,0.5-0.4C72.9,83.5,72.7,83.3,72.5,83.2z"/>
		<path class="st1" d="M94.7,71.5c0.2,0,0.4-0.1,0.5-0.4c0.1-0.3-0.1-0.5-0.3-0.6c-0.4-0.1-0.9-0.2-1.3-0.3
			c-0.3-0.1-0.5,0.1-0.6,0.4c-0.1,0.3,0.1,0.5,0.4,0.6c0.4,0.1,0.9,0.2,1.3,0.3C94.6,71.5,94.7,71.5,94.7,71.5z"/>
		<path class="st1" d="M103.9,83.6c-0.2,0-0.5-0.1-0.7-0.1c-0.2,0-0.4-0.1-0.6-0.1c-0.2,0-0.5,0.2-0.5,0.4c0,0.3,0.2,0.5,0.4,0.5
			c0.2,0,0.4,0,0.5,0.1c0.3,0.1,0.5,0.1,0.8,0.1c0,0,0,0,0.1,0c0.2,0,0.4-0.2,0.5-0.4C104.4,83.9,104.2,83.7,103.9,83.6z"/>
		<path class="st1" d="M102.3,73.8c0.2,0,0.4-0.1,0.4-0.3c0.1-0.2,0-0.5-0.3-0.6c-0.4-0.2-0.8-0.3-1.3-0.5c-0.2-0.1-0.5,0-0.6,0.3
			c-0.1,0.2,0,0.5,0.3,0.6c0.4,0.2,0.9,0.3,1.2,0.5C102.2,73.8,102.3,73.8,102.3,73.8z"/>
		<path class="st1" d="M98.6,72.6c0.2,0,0.4-0.1,0.5-0.3c0.1-0.3-0.1-0.5-0.3-0.6c-0.4-0.1-0.8-0.2-1.3-0.4
			c-0.3-0.1-0.5,0.1-0.6,0.3c-0.1,0.3,0.1,0.5,0.3,0.6c0.4,0.1,0.9,0.2,1.3,0.4C98.5,72.6,98.5,72.6,98.6,72.6z"/>
		<path class="st1" d="M95.9,84.4c-0.4,0.1-0.8,0.2-1.3,0.3c-0.3,0.1-0.4,0.3-0.4,0.6c0,0.2,0.2,0.4,0.5,0.4c0,0,0.1,0,0.1,0
			c0.5-0.1,0.9-0.2,1.3-0.3c0.3-0.1,0.4-0.3,0.3-0.6C96.4,84.5,96.2,84.4,95.9,84.4z"/>
		<path class="st1" d="M99.9,83.5c-0.4,0.1-0.9,0.2-1.3,0.3c-0.3,0.1-0.4,0.3-0.4,0.6c0,0.2,0.2,0.4,0.5,0.4c0,0,0.1,0,0.1,0
			c0.4-0.1,0.9-0.2,1.3-0.3c0.3,0,0.4-0.3,0.4-0.5C100.4,83.6,100.1,83.5,99.9,83.5z"/>
		<path class="st1" d="M109.6,79.7c-0.3,0-0.5,0.2-0.5,0.4c0,0.4-0.1,0.8-0.2,1.2c-0.1,0.2,0.1,0.5,0.3,0.6c0,0,0.1,0,0.1,0
			c0.2,0,0.4-0.1,0.5-0.3c0.1-0.4,0.2-0.9,0.3-1.4C110.1,80,109.9,79.7,109.6,79.7z"/>
		<path class="st1" d="M68.8,81.9c-0.4-0.2-0.7-0.4-1.1-0.7c-0.2-0.2-0.5-0.1-0.7,0.1C67,81.5,67,81.8,67.2,82
			c0.4,0.3,0.8,0.5,1.2,0.7c0.1,0,0.1,0.1,0.2,0.1c0.2,0,0.3-0.1,0.4-0.2C69.2,82.3,69.1,82,68.8,81.9z"/>
		<path class="st1" d="M109.2,78.1c0.2-0.1,0.3-0.4,0.1-0.7c-0.2-0.4-0.6-0.7-0.9-1.1c-0.2-0.2-0.5-0.2-0.7,0
			c-0.2,0.2-0.2,0.5,0,0.7c0.3,0.3,0.6,0.6,0.8,0.9c0.1,0.1,0.2,0.2,0.4,0.2C109,78.1,109.1,78.1,109.2,78.1z"/>
		<path class="st1" d="M106.2,74.7c-0.4-0.2-0.8-0.4-1.2-0.6c-0.2-0.1-0.5,0-0.6,0.2s0,0.5,0.2,0.6c0.4,0.2,0.8,0.4,1.1,0.6
			c0.1,0,0.2,0.1,0.2,0.1c0.2,0,0.3-0.1,0.4-0.2C106.5,75.1,106.4,74.8,106.2,74.7z"/>
		<path class="st1" d="M107.5,83.2c-0.3,0.2-0.7,0.3-1.1,0.4c-0.3,0.1-0.4,0.3-0.4,0.6c0,0.2,0.2,0.4,0.5,0.4c0,0,0.1,0,0.1,0
			c0.5-0.1,1-0.3,1.4-0.5c0.2-0.1,0.3-0.4,0.2-0.6C108,83.1,107.7,83,107.5,83.2z"/>
		<path class="st1" d="M86.9,70c0.2,0,0.4-0.2,0.5-0.4c0-0.3-0.1-0.5-0.4-0.5c-0.4-0.1-0.9-0.1-1.3-0.2c-0.3,0-0.5,0.1-0.5,0.4
			c0,0.3,0.1,0.5,0.4,0.5C85.9,69.8,86.4,69.9,86.9,70C86.8,70,86.9,70,86.9,70z"/>
		<path class="st1" d="M88.2,85.2c-0.4,0-0.8-0.1-1.3-0.1c-0.3,0-0.5,0.1-0.5,0.4c0,0.3,0.1,0.5,0.4,0.5c0.5,0.1,0.9,0.1,1.3,0.2
			c0,0,0,0,0,0c0.2,0,0.4-0.2,0.5-0.4C88.6,85.4,88.5,85.2,88.2,85.2z"/>
		<path class="st1" d="M82.9,69.4c0.2,0,0.4-0.2,0.5-0.4c0-0.3-0.2-0.5-0.4-0.5c-0.5-0.1-0.9-0.1-1.3-0.1c-0.2,0-0.5,0.2-0.5,0.4
			c0,0.3,0.2,0.5,0.4,0.5C82,69.3,82.4,69.4,82.9,69.4C82.9,69.4,82.9,69.4,82.9,69.4z"/>
		<path class="st1" d="M76.3,83.9c-0.4,0-0.9-0.1-1.3-0.2c-0.3,0-0.5,0.1-0.5,0.4c0,0.3,0.1,0.5,0.4,0.5c0.4,0.1,0.9,0.1,1.3,0.2
			c0,0,0,0,0,0c0.2,0,0.4-0.2,0.5-0.4C76.8,84.1,76.6,83.9,76.3,83.9z"/>
		<path class="st1" d="M84.3,84.5c-0.4-0.1-0.8-0.2-1.4-0.2c-0.3,0-0.5,0.2-0.5,0.4c0,0.3,0.2,0.5,0.4,0.5c0.5,0.1,0.9,0.1,1.2,0.2
			c0,0,0.1,0,0.1,0c0.2,0,0.4-0.1,0.5-0.4C84.7,84.8,84.6,84.6,84.3,84.5z"/>
		<path class="st1" d="M80.3,84.1c-0.4,0-0.9,0-1.3-0.1c-0.3,0-0.5,0.2-0.5,0.4c0,0.3,0.2,0.5,0.4,0.5c0.5,0,0.9,0,1.3,0.1
			c0,0,0,0,0,0c0.3,0,0.5-0.2,0.5-0.4C80.7,84.4,80.5,84.2,80.3,84.1z"/>
		<path class="st1" d="M92.1,85.1c-0.4,0-0.8,0.1-1.3,0.1c-0.3,0-0.5,0.2-0.5,0.5c0,0.3,0.2,0.5,0.5,0.5c0,0,0,0,0,0
			c0.5,0,0.9-0.1,1.4-0.1c0.3,0,0.4-0.3,0.4-0.5C92.6,85.3,92.3,85.1,92.1,85.1z"/>
		<path class="st1" d="M90.8,70.7c0.2,0,0.4-0.2,0.5-0.4c0.1-0.3-0.1-0.5-0.4-0.6c-0.4-0.1-0.9-0.2-1.3-0.3c-0.3,0-0.5,0.1-0.6,0.4
			c0,0.3,0.1,0.5,0.4,0.6C89.9,70.5,90.3,70.6,90.8,70.7C90.7,70.7,90.8,70.7,90.8,70.7z"/>
		<path class="st1" d="M80.7,78.3c-0.4-0.1-0.9-0.2-1.3-0.2c-0.3-0.1-0.5,0.1-0.6,0.4c-0.1,0.3,0.1,0.5,0.4,0.6
			c0.4,0.1,0.9,0.2,1.3,0.3c0,0,0.1,0,0.1,0c0.2,0,0.4-0.2,0.5-0.4C81.2,78.5,81,78.3,80.7,78.3z"/>
		<path class="st1" d="M96.5,78.1c-0.4,0.1-0.9,0.1-1.3,0.2c-0.3,0-0.4,0.3-0.4,0.5c0,0.2,0.2,0.4,0.5,0.4c0,0,0,0,0.1,0
			c0.5-0.1,0.9-0.1,1.3-0.2c0.3,0,0.4-0.3,0.4-0.5C97,78.2,96.7,78.1,96.5,78.1z"/>
		<path class="st1" d="M92.6,78.6c-0.4,0-0.9,0.1-1.3,0.1c-0.3,0-0.5,0.2-0.4,0.5c0,0.3,0.2,0.4,0.5,0.4c0,0,0,0,0,0
			c0.5,0,0.9-0.1,1.3-0.1c0.3,0,0.5-0.3,0.4-0.5C93,78.8,92.8,78.6,92.6,78.6z"/>
		<path class="st1" d="M88.6,78.8c-0.2,0-0.5,0-0.7,0l-0.6,0c0,0,0,0,0,0c-0.3,0-0.5,0.2-0.5,0.5c0,0.3,0.2,0.5,0.5,0.5l0.6,0
			c0,0,0,0,0.1,0c0.2,0,0.4,0,0.7,0c0.3,0,0.5-0.2,0.5-0.5C89.1,79,88.9,78.8,88.6,78.8z"/>
		<path class="st1" d="M84.7,78.7c-0.4,0-0.9-0.1-1.3-0.1c-0.3,0-0.5,0.2-0.5,0.4c0,0.3,0.2,0.5,0.4,0.5c0.4,0,0.9,0.1,1.3,0.1
			c0,0,0,0,0,0c0.2,0,0.5-0.2,0.5-0.4C85.1,78.9,84.9,78.7,84.7,78.7z"/>
		<path class="st1" d="M100.3,77.2c-0.4,0.1-0.8,0.2-1.3,0.3c-0.3,0.1-0.4,0.3-0.3,0.6c0.1,0.2,0.2,0.4,0.5,0.4c0,0,0.1,0,0.1,0
			c0.5-0.1,0.9-0.2,1.3-0.4c0.2-0.1,0.4-0.3,0.3-0.6C100.8,77.3,100.5,77.2,100.3,77.2z"/>
		<path class="st1" d="M76.9,77.4c-0.4-0.1-0.8-0.3-1.2-0.4c-0.2-0.1-0.5,0-0.6,0.3c-0.1,0.2,0,0.5,0.3,0.6c0.4,0.2,0.8,0.3,1.3,0.4
			c0,0,0.1,0,0.1,0c0.2,0,0.4-0.1,0.5-0.3C77.3,77.7,77.2,77.4,76.9,77.4z"/>
		<path class="st1" d="M3.9,83.4c-0.5,0-0.9-0.1-1.3-0.2c-0.3-0.1-0.5,0.1-0.6,0.4C2,83.8,2.2,84,2.5,84.1c0.4,0.1,0.8,0.2,1.4,0.2
			c0,0,0,0,0,0c0.2,0,0.4-0.2,0.5-0.4C4.4,83.6,4.2,83.4,3.9,83.4z"/>
		<path class="st1" d="M0.9,81.5c0-0.2,0-0.4,0.1-0.6c0-0.3-0.1-0.5-0.4-0.5c-0.3,0-0.5,0.1-0.5,0.4C0,81,0,81.2,0,81.5
			c0,0.3,0,0.5,0.1,0.8c0.1,0.2,0.2,0.3,0.5,0.3c0,0,0.1,0,0.1,0C0.9,82.5,1.1,82.3,1,82C1,81.8,0.9,81.7,0.9,81.5z"/>
		<path class="st1" d="M2,76.6c-0.2-0.1-0.5,0-0.6,0.3l-0.5,1.2c-0.1,0.2,0,0.5,0.3,0.6c0.1,0,0.1,0,0.2,0c0.2,0,0.4-0.1,0.4-0.3
			l0.5-1.2C2.4,77,2.2,76.7,2,76.6z"/>
		<path class="st1" d="M4.3,49.2c-0.2-0.1-0.5,0.1-0.6,0.3c-0.1,0.4-0.3,0.9-0.4,1.3c-0.1,0.3,0.1,0.5,0.3,0.6c0,0,0.1,0,0.1,0
			c0.2,0,0.4-0.1,0.5-0.3c0.1-0.4,0.2-0.8,0.4-1.2C4.7,49.6,4.5,49.3,4.3,49.2z"/>
		<path class="st1" d="M5.9,45.6c-0.2-0.1-0.5,0-0.6,0.2C5,46.2,4.8,46.6,4.7,47c-0.1,0.2,0,0.5,0.2,0.6c0.1,0,0.1,0,0.2,0
			c0.2,0,0.4-0.1,0.4-0.3c0.2-0.4,0.4-0.8,0.6-1.2C6.2,46,6.1,45.7,5.9,45.6z"/>
		<path class="st1" d="M2.8,67.2C2.8,67.2,2.8,67.2,2.8,67.2c0.3,0,0.5-0.3,0.5-0.5c-0.1-0.4-0.1-0.9-0.2-1.3c0-0.3-0.3-0.4-0.5-0.4
			c-0.3,0-0.4,0.3-0.4,0.5c0,0.5,0.1,0.9,0.2,1.3C2.3,67,2.5,67.2,2.8,67.2z"/>
		<path class="st1" d="M4,70.6c0-0.3-0.1-0.6-0.1-0.8c-0.1-0.2-0.1-0.4-0.2-0.6c-0.1-0.3-0.3-0.4-0.6-0.3c-0.3,0.1-0.4,0.3-0.3,0.6
			c0.1,0.2,0.1,0.5,0.2,0.7c0,0.1,0.1,0.3,0.1,0.5c0,0.3,0.2,0.5,0.5,0.5c0,0,0,0,0,0C3.8,71.1,4,70.9,4,70.6z"/>
		<path class="st1" d="M2.4,59.3C2.4,59.3,2.4,59.3,2.4,59.3c0.3,0,0.5-0.2,0.5-0.4c0-0.4,0.1-0.9,0.1-1.3C3,57.3,2.8,57,2.6,57
			c-0.3,0-0.5,0.2-0.5,0.4c0,0.4-0.1,0.9-0.1,1.3C1.9,59,2.1,59.2,2.4,59.3z"/>
		<path class="st1" d="M2.4,63.2C2.4,63.2,2.4,63.2,2.4,63.2c0.3,0,0.5-0.2,0.5-0.5c0-0.4,0-0.9,0-1.3c0-0.3-0.2-0.5-0.5-0.5
			c0,0,0,0,0,0c-0.3,0-0.5,0.2-0.5,0.5c0,0.5,0,0.9,0,1.3C1.9,63.1,2.1,63.2,2.4,63.2z"/>
		<path class="st1" d="M26.8,31.6c0.4-0.1,0.9-0.2,1.3-0.3c0.3-0.1,0.4-0.3,0.4-0.6c-0.1-0.3-0.3-0.4-0.6-0.4
			c-0.4,0.1-0.9,0.2-1.3,0.3c-0.3,0.1-0.4,0.3-0.3,0.6c0.1,0.2,0.2,0.4,0.5,0.4C26.7,31.6,26.8,31.6,26.8,31.6z"/>
		<path class="st1" d="M30.7,30.8c0.4-0.1,0.9-0.1,1.3-0.2c0.3,0,0.4-0.3,0.4-0.5c0-0.3-0.3-0.4-0.5-0.4c-0.4,0.1-0.9,0.1-1.3,0.2
			c-0.3,0-0.4,0.3-0.4,0.5C30.1,30.6,30.3,30.8,30.7,30.8C30.6,30.8,30.6,30.8,30.7,30.8z"/>
		<path class="st1" d="M2.6,75c0,0,0.1,0,0.1,0c0.2,0,0.4-0.1,0.4-0.3c0.1-0.4,0.3-0.9,0.4-1.3c0.1-0.3-0.1-0.5-0.3-0.6
			c-0.3-0.1-0.5,0.1-0.6,0.3c-0.1,0.4-0.2,0.8-0.4,1.2C2.2,74.6,2.3,74.9,2.6,75z"/>
		<path class="st1" d="M47.8,29.6c-0.4-0.1-0.9-0.1-1.3-0.2c-0.3,0-0.5,0.2-0.5,0.4c0,0.3,0.2,0.5,0.4,0.5c0.4,0,0.9,0.1,1.3,0.2
			c0,0,0,0,0.1,0c0.2,0,0.4-0.2,0.5-0.4C48.3,29.9,48.1,29.7,47.8,29.6z"/>
		<path class="st1" d="M7.8,83.5c-0.4,0-0.8,0-1.3,0c-0.3,0-0.5,0.2-0.5,0.5c0,0.3,0.2,0.5,0.5,0.5c0.2,0,0.4,0,0.6,0
			c0.3,0,0.5,0,0.7,0c0.3,0,0.5-0.2,0.5-0.5C8.3,83.7,8.1,83.5,7.8,83.5z"/>
		<path class="st1" d="M23,32.7l0.2-0.1c0.4-0.1,0.7-0.2,1.1-0.4c0.2-0.1,0.4-0.3,0.3-0.6c-0.1-0.2-0.3-0.4-0.6-0.3
			c-0.4,0.1-0.7,0.2-1.1,0.4l-0.2,0.1c-0.2,0.1-0.4,0.4-0.3,0.6c0.1,0.2,0.3,0.3,0.4,0.3C22.9,32.8,23,32.8,23,32.7z"/>
		<path class="st1" d="M13.1,36.7c-0.4,0.3-0.7,0.5-1.1,0.8c-0.2,0.2-0.2,0.5-0.1,0.7c0.1,0.1,0.2,0.2,0.4,0.2c0.1,0,0.2,0,0.3-0.1
			c0.3-0.3,0.7-0.5,1-0.8c0.2-0.2,0.3-0.4,0.1-0.7C13.6,36.6,13.3,36.5,13.1,36.7z"/>
		<path class="st1" d="M16.6,34.5c-0.4,0.2-0.8,0.4-1.2,0.7c-0.2,0.1-0.3,0.4-0.2,0.6c0.1,0.1,0.2,0.2,0.4,0.2c0.1,0,0.2,0,0.2-0.1
			c0.4-0.2,0.7-0.4,1.1-0.6c0.2-0.1,0.3-0.4,0.2-0.6C17.1,34.5,16.8,34.4,16.6,34.5z"/>
		<path class="st1" d="M19.2,34.2c0.1,0,0.1,0,0.2,0c0.4-0.2,0.8-0.4,1.2-0.5c0.2-0.1,0.4-0.4,0.3-0.6c-0.1-0.2-0.4-0.4-0.6-0.3
			c-0.4,0.2-0.8,0.4-1.2,0.5c-0.2,0.1-0.3,0.4-0.2,0.6C18.8,34.1,19,34.2,19.2,34.2z"/>
		<path class="st1" d="M6.7,44.1c0.1,0.1,0.2,0.1,0.3,0.1c0.2,0,0.3-0.1,0.4-0.2c0.2-0.4,0.5-0.7,0.7-1.1c0.2-0.2,0.1-0.5-0.1-0.7
			c-0.2-0.2-0.5-0.1-0.7,0.1c-0.3,0.4-0.5,0.7-0.8,1.1C6.4,43.7,6.5,44,6.7,44.1z"/>
		<path class="st1" d="M38.5,30C38.5,30,38.5,30,38.5,30c0.3,0,0.7,0,1,0l0.3,0c0,0,0,0,0,0c0.3,0,0.5-0.2,0.5-0.5
			c0-0.3-0.2-0.5-0.5-0.5l-0.3,0c-0.3,0-0.7,0-1,0c-0.3,0-0.5,0.2-0.5,0.5C38,29.8,38.2,30,38.5,30z"/>
		<path class="st1" d="M34.5,30.3C34.5,30.3,34.6,30.3,34.5,30.3c0.5,0,0.9-0.1,1.4-0.1c0.3,0,0.5-0.2,0.4-0.5
			c0-0.3-0.3-0.5-0.5-0.4c-0.4,0-0.9,0.1-1.3,0.1c-0.3,0-0.5,0.3-0.4,0.5C34.1,30.1,34.3,30.3,34.5,30.3z"/>
		<path class="st1" d="M54.3,31.6c0.5,0.1,0.9,0.1,1.3,0.2c0,0,0,0,0.1,0c0.2,0,0.4-0.2,0.5-0.4c0-0.3-0.2-0.5-0.4-0.5
			c-0.4,0-0.8-0.1-1.3-0.2c-0.3,0-0.5,0.1-0.5,0.4C53.8,31.3,54,31.5,54.3,31.6z"/>
		<path class="st1" d="M50.3,30.9c0.5,0.1,0.9,0.1,1.3,0.2c0,0,0.1,0,0.1,0c0.2,0,0.4-0.2,0.5-0.4c0-0.3-0.1-0.5-0.4-0.5
			c-0.4-0.1-0.9-0.1-1.3-0.2c-0.3,0-0.5,0.1-0.5,0.4C49.9,30.7,50.1,30.9,50.3,30.9z"/>
		<path class="st1" d="M9.4,41c0.1,0,0.3-0.1,0.3-0.2c0.3-0.3,0.6-0.6,0.9-0.9c0.2-0.2,0.2-0.5,0-0.7c-0.2-0.2-0.5-0.2-0.7,0
			c-0.3,0.3-0.6,0.6-0.9,1c-0.2,0.2-0.2,0.5,0,0.7C9.2,41,9.3,41,9.4,41z"/>
		<path class="st1" d="M42.5,30.1c0.4,0,0.9,0,1.3,0.1c0,0,0,0,0,0c0.2,0,0.5-0.2,0.5-0.4c0-0.3-0.2-0.5-0.4-0.5
			c-0.4,0-0.9-0.1-1.3-0.1c-0.3,0-0.5,0.2-0.5,0.4C42,29.9,42.2,30.1,42.5,30.1z"/>
		<path class="st1" d="M2.8,55.3C2.8,55.3,2.8,55.3,2.8,55.3c0.3,0,0.5-0.2,0.5-0.4c0.1-0.4,0.2-0.9,0.2-1.3
			c0.1-0.3-0.1-0.5-0.4-0.6C3,53,2.7,53.2,2.6,53.4c-0.1,0.4-0.2,0.9-0.2,1.3C2.4,55,2.5,55.3,2.8,55.3z"/>
		<path class="st1" d="M66.3,31.3c-0.4,0.1-0.8,0.3-1.2,0.3c-0.3,0-0.4,0.3-0.4,0.6c0,0.2,0.2,0.4,0.5,0.4c0,0,0.1,0,0.1,0
			c0.5-0.1,0.9-0.2,1.4-0.4c0.2-0.1,0.4-0.4,0.3-0.6C66.8,31.3,66.6,31.2,66.3,31.3z"/>
		<path class="st1" d="M62.6,31.8c-0.4,0-0.8,0-1.3-0.1c-0.2,0-0.5,0.2-0.5,0.4c0,0.3,0.2,0.5,0.4,0.5c0.5,0,0.9,0.1,1.3,0.1
			c0,0,0,0,0,0c0.3,0,0.5-0.2,0.5-0.5C63,32,62.8,31.8,62.6,31.8z"/>
		<path class="st1" d="M19.2,76.1C19.2,76.1,19.2,76.1,19.2,76.1c0.5-0.1,0.9-0.1,1.3-0.2c0.3,0,0.5-0.2,0.4-0.5
			c0-0.3-0.2-0.5-0.5-0.4c-0.5,0-1,0.1-1.4,0.2c-0.3,0.1-0.4,0.3-0.4,0.6C18.8,75.9,19,76.1,19.2,76.1z"/>
		<path class="st1" d="M49.6,83.4c-0.1-0.2-0.4-0.3-0.6-0.2c-0.2,0.1-0.3,0.4-0.2,0.6c0.2,0.4,0.3,0.7,0.4,1.1
			c0.1,0.2,0.2,0.4,0.5,0.4c0,0,0.1,0,0.1,0c0.3-0.1,0.4-0.3,0.3-0.6C50,84.3,49.9,83.8,49.6,83.4z"/>
		<path class="st1" d="M23.1,76c0.4,0,0.9,0.1,1.3,0.2c0,0,0,0,0.1,0c0.2,0,0.4-0.2,0.5-0.4c0-0.3-0.1-0.5-0.4-0.5
			c-0.5-0.1-0.9-0.1-1.3-0.2c-0.3,0-0.5,0.2-0.5,0.4C22.7,75.7,22.9,76,23.1,76z"/>
		<path class="st1" d="M35.5,78.4c0.2,0,0.4,0.1,0.6,0.1c0,0,0.1,0,0.1,0c0.2,0,0.4-0.2,0.5-0.4c0-0.3-0.1-0.5-0.4-0.5
			c-0.2,0-0.5-0.1-0.7-0.1c-0.2,0-0.4-0.1-0.6-0.1c-0.3,0-0.5,0.1-0.5,0.4c0,0.3,0.1,0.5,0.4,0.5C35.1,78.3,35.3,78.3,35.5,78.4z"/>
		<path class="st1" d="M27,76.6c0.4,0.1,0.9,0.2,1.3,0.3c0,0,0.1,0,0.1,0c0.2,0,0.4-0.2,0.5-0.4c0.1-0.3-0.1-0.5-0.4-0.6
			c-0.4-0.1-0.9-0.2-1.3-0.3c-0.2-0.1-0.5,0.1-0.6,0.4C26.6,76.3,26.7,76.6,27,76.6z"/>
		<path class="st1" d="M30.9,77.5c0.4,0.1,0.9,0.2,1.3,0.3c0,0,0.1,0,0.1,0c0.2,0,0.4-0.2,0.5-0.4c0.1-0.3-0.1-0.5-0.4-0.6
			c-0.4-0.1-0.9-0.2-1.3-0.3c-0.3-0.1-0.5,0.1-0.6,0.4C30.5,77.2,30.6,77.4,30.9,77.5z"/>
		<path class="st1" d="M40.2,78.4l-1.3-0.3c-0.3-0.1-0.5,0.1-0.6,0.3c-0.1,0.3,0.1,0.5,0.3,0.6l1.3,0.3c0,0,0.1,0,0.1,0
			c0.2,0,0.4-0.1,0.5-0.4C40.6,78.7,40.5,78.5,40.2,78.4z"/>
		<path class="st1" d="M44.1,79.3c-0.2-0.1-0.4-0.1-0.6-0.1c-0.2,0-0.5-0.1-0.7-0.1c-0.3,0-0.5,0.1-0.6,0.4c0,0.3,0.1,0.5,0.4,0.6
			c0.3,0,0.5,0.1,0.8,0.1c0.2,0,0.3,0.1,0.5,0.1c0,0,0.1,0,0.1,0c0.2,0,0.4-0.1,0.5-0.4C44.5,79.6,44.4,79.3,44.1,79.3z"/>
		<path class="st1" d="M46.7,80.4c-0.2-0.1-0.5-0.1-0.7,0.2c-0.1,0.2-0.1,0.5,0.2,0.7c0.4,0.2,0.7,0.5,1,0.7
			c0.1,0.1,0.2,0.1,0.3,0.1c0.1,0,0.3-0.1,0.4-0.2c0.2-0.2,0.1-0.5-0.1-0.7C47.5,80.9,47.1,80.6,46.7,80.4z"/>
		<path class="st1" d="M7.1,73.4c-0.3,0-0.4,0.3-0.4,0.5c0.1,0.5,0.1,0.9,0.2,1.3c0,0.2,0.2,0.4,0.5,0.4c0,0,0.1,0,0.1,0
			c0.3,0,0.4-0.3,0.4-0.6c-0.1-0.4-0.1-0.8-0.2-1.3C7.6,73.5,7.3,73.3,7.1,73.4z"/>
		<path class="st1" d="M12.8,84.7c-0.4-0.1-0.7-0.2-1-0.5c-0.2-0.2-0.5-0.1-0.7,0.1c-0.2,0.2-0.1,0.5,0.1,0.7
			c0.4,0.3,0.9,0.5,1.4,0.6c0,0,0.1,0,0.1,0c0.2,0,0.4-0.1,0.5-0.4C13.2,85,13,84.8,12.8,84.7z"/>
		<path class="st1" d="M16.5,84.3c-0.4,0.1-0.9,0.2-1.3,0.3c-0.3,0.1-0.4,0.3-0.4,0.6c0,0.2,0.2,0.4,0.5,0.4c0,0,0.1,0,0.1,0
			c0.4-0.1,0.9-0.2,1.3-0.3c0.3,0,0.4-0.3,0.4-0.6C17,84.5,16.8,84.3,16.5,84.3z"/>
		<path class="st1" d="M7.3,65.4c-0.3,0-0.5,0.2-0.5,0.4c-0.1,0.4-0.1,0.9-0.1,1.3c0,0.3,0.2,0.5,0.4,0.5c0,0,0,0,0,0
			c0.2,0,0.4-0.2,0.5-0.4c0-0.4,0.1-0.9,0.1-1.3C7.7,65.7,7.6,65.5,7.3,65.4z"/>
		<path class="st1" d="M36.3,84.5c-0.5,0.1-0.9,0.2-1.3,0.2c-0.3,0-0.4,0.3-0.4,0.5c0,0.2,0.2,0.4,0.5,0.4c0,0,0,0,0.1,0
			c0.4-0.1,0.9-0.1,1.3-0.2c0.3,0,0.4-0.3,0.4-0.6C36.8,84.6,36.5,84.5,36.3,84.5z"/>
		<path class="st1" d="M7,71.7C7,71.7,7,71.7,7,71.7c0.3,0,0.5-0.2,0.5-0.5c0-0.2,0-0.5,0-0.7c0-0.2,0-0.4,0-0.6
			c0-0.3-0.2-0.5-0.5-0.5c0,0,0,0,0,0c-0.3,0-0.5,0.2-0.5,0.5c0,0.2,0,0.4,0,0.6c0,0.3,0,0.5,0,0.8C6.5,71.5,6.7,71.7,7,71.7z"/>
		<path class="st1" d="M28.6,84.3l-0.1,0c-0.4-0.1-0.8-0.2-1.2-0.2c-0.3,0-0.5,0.1-0.5,0.4c0,0.3,0.1,0.5,0.4,0.5
			c0.4,0.1,0.8,0.2,1.2,0.2l0.1,0c0,0,0.1,0,0.1,0c0.2,0,0.4-0.2,0.5-0.4C29,84.6,28.8,84.4,28.6,84.3z"/>
		<path class="st1" d="M8.1,63.3c0.1-0.4,0.2-0.9,0.3-1.3c0.1-0.3-0.1-0.5-0.4-0.6c-0.3-0.1-0.5,0.1-0.6,0.4
			c-0.1,0.4-0.2,0.9-0.3,1.3c0,0.3,0.1,0.5,0.4,0.5c0,0,0.1,0,0.1,0C7.9,63.7,8.1,63.6,8.1,63.3z"/>
		<path class="st1" d="M32.4,84.9c-0.4,0-0.9,0-1.3-0.1c-0.3,0-0.5,0.2-0.5,0.4c0,0.3,0.2,0.5,0.4,0.5c0.4,0,0.9,0.1,1.4,0.1
			c0,0,0,0,0,0c0.3,0,0.5-0.2,0.5-0.5C32.9,85.1,32.7,84.9,32.4,84.9z"/>
		<path class="st1" d="M9.1,57.7c-0.2-0.1-0.5,0-0.6,0.3c-0.1,0.4-0.3,0.8-0.4,1.3c-0.1,0.3,0.1,0.5,0.3,0.6c0,0,0.1,0,0.1,0
			c0.2,0,0.4-0.1,0.5-0.3c0.1-0.4,0.3-0.8,0.4-1.2C9.5,58,9.4,57.8,9.1,57.7z"/>
		<path class="st1" d="M20.5,83.8c-0.4,0-0.9,0.1-1.3,0.1c-0.3,0-0.4,0.3-0.4,0.5c0,0.2,0.2,0.4,0.5,0.4c0,0,0,0,0.1,0
			c0.5-0.1,0.9-0.1,1.3-0.1c0.3,0,0.5-0.3,0.4-0.5C21,83.9,20.8,83.7,20.5,83.8z"/>
		<path class="st1" d="M10.4,81.1c0-0.3-0.2-0.5-0.5-0.5c-0.3,0-0.5,0.2-0.5,0.5c0,0.3,0.1,0.9,0.2,1.4c0.1,0.2,0.2,0.4,0.5,0.4
			c0,0,0.1,0,0.1,0c0.3-0.1,0.4-0.3,0.3-0.6C10.5,81.8,10.4,81.3,10.4,81.1z"/>
		<path class="st1" d="M10.2,54.3C10,54.6,9.8,55,9.6,55.5c-0.1,0.2,0,0.5,0.2,0.6c0.1,0,0.1,0.1,0.2,0.1c0.2,0,0.3-0.1,0.4-0.3
			c0.2-0.4,0.4-0.8,0.6-1.1c0.1-0.2,0.1-0.5-0.1-0.7C10.7,54,10.4,54,10.2,54.3z"/>
		<path class="st1" d="M24.6,83.7c-0.4,0-0.9-0.1-1.4-0.1c-0.3,0-0.5,0.2-0.5,0.5c0,0.3,0.2,0.5,0.5,0.5c0.5,0,0.9,0,1.3,0.1
			c0,0,0,0,0,0c0.2,0,0.5-0.2,0.5-0.4C25,84,24.8,83.7,24.6,83.7z"/>
		<path class="st1" d="M8.5,77.5c-0.1-0.2-0.4-0.4-0.6-0.3c-0.2,0.1-0.4,0.4-0.3,0.6c0.2,0.5,0.4,0.9,0.6,1.3
			c0.1,0.1,0.2,0.2,0.4,0.2c0.1,0,0.2,0,0.2-0.1c0.2-0.1,0.3-0.4,0.2-0.6C8.9,78.3,8.7,78,8.5,77.5z"/>
		<path class="st1" d="M47.1,77.4C47.1,77.4,47.2,77.4,47.1,77.4c0.3,0,0.5-0.1,0.6-0.4c0.1-0.3-0.1-0.5-0.4-0.6L46,76.2
			c-0.3,0-0.5,0.1-0.6,0.4c-0.1,0.3,0.1,0.5,0.4,0.6L47.1,77.4z"/>
		<path class="st1" d="M42,76.4l1.3,0.3c0,0,0.1,0,0.1,0c0.2,0,0.4-0.2,0.5-0.4c0.1-0.3-0.1-0.5-0.4-0.6l-1.3-0.3
			c-0.3-0.1-0.5,0.1-0.6,0.4C41.6,76.1,41.8,76.3,42,76.4z"/>
		<path class="st1" d="M51.5,77.8c0-0.3-0.1-0.5-0.4-0.5c-0.4-0.1-0.8-0.1-1.3-0.2c-0.3-0.1-0.5,0.1-0.5,0.4c0,0.3,0.1,0.5,0.4,0.6
			c0.4,0.1,0.9,0.2,1.3,0.2c0,0,0.1,0,0.1,0C51.3,78.2,51.5,78,51.5,77.8z"/>
		<path class="st1" d="M55.4,78.2c0-0.3-0.2-0.5-0.5-0.5c-0.4,0-0.8,0-1.3-0.1c-0.2,0-0.5,0.2-0.5,0.4c0,0.3,0.2,0.5,0.4,0.5
			c0.5,0,0.9,0.1,1.3,0.1c0,0,0,0,0,0C55.2,78.6,55.4,78.4,55.4,78.2z"/>
		<path class="st1" d="M64.9,80.2c-0.2-0.2-0.5-0.2-0.7-0.1c-0.2,0.2-0.2,0.5-0.1,0.7c0.3,0.3,0.5,0.7,0.7,1
			c0.1,0.2,0.2,0.3,0.4,0.3c0.1,0,0.1,0,0.2-0.1c0.2-0.1,0.3-0.4,0.2-0.6C65.5,80.9,65.2,80.5,64.9,80.2z"/>
		<path class="st1" d="M62.8,78.4c-0.4-0.2-0.8-0.4-1.2-0.6c-0.2-0.1-0.5,0-0.6,0.3c-0.1,0.2,0,0.5,0.3,0.6c0.4,0.1,0.7,0.3,1.1,0.5
			c0.1,0,0.2,0.1,0.2,0.1c0.2,0,0.3-0.1,0.4-0.2C63.1,78.8,63,78.5,62.8,78.4z"/>
		<path class="st1" d="M59.3,77.7c0-0.3-0.2-0.5-0.5-0.5c0,0,0,0,0,0c-0.5,0-0.9,0.1-1.4,0.2c-0.3,0.1-0.4,0.3-0.4,0.6
			c0,0.2,0.2,0.4,0.5,0.4c0,0,0.1,0,0.1,0c0.4-0.1,0.8-0.1,1.2-0.1C59.1,78.2,59.3,78,59.3,77.7z"/>
		<path class="st1" d="M39.5,75.9C39.5,75.9,39.5,75.9,39.5,75.9c0.3,0,0.5-0.2,0.5-0.4c0-0.3-0.1-0.5-0.4-0.5
			c-0.4-0.1-0.8-0.1-1.3-0.2c-0.2,0-0.5,0.1-0.5,0.4c0,0.3,0.1,0.5,0.4,0.5C38.6,75.7,39,75.8,39.5,75.9z"/>
		<path class="st1" d="M57,83c-0.4,0-0.9,0-1.3-0.1c-0.3,0-0.5,0.2-0.5,0.4c0,0.3,0.2,0.5,0.4,0.5c0.4,0,0.9,0,1.3,0.1c0,0,0,0,0,0
			c0.3,0,0.5-0.2,0.5-0.4C57.5,83.2,57.3,83,57,83z"/>
		<path class="st1" d="M64.7,82.9c-0.4,0.1-0.8,0.1-1.3,0.1c-0.3,0-0.5,0.2-0.4,0.5c0,0.2,0.2,0.4,0.5,0.4c0,0,0,0,0,0
			c0.5,0,0.9-0.1,1.3-0.2c0.3,0,0.4-0.3,0.4-0.5C65.2,83,65,82.8,64.7,82.9z"/>
		<path class="st1" d="M60.9,83.1l-0.2,0c-0.3,0-0.7,0-1.1,0c0,0,0,0,0,0c-0.3,0-0.5,0.2-0.5,0.5c0,0.3,0.2,0.5,0.5,0.5
			c0.4,0,0.7,0,1.1,0l0.2,0c0.3,0,0.5-0.2,0.5-0.5C61.4,83.3,61.2,83.1,60.9,83.1z"/>
		<path class="st1" d="M53.1,82.8l-1.3-0.1c-0.3,0-0.5,0.2-0.5,0.4c0,0.3,0.2,0.5,0.4,0.5l1.3,0.1c0,0,0,0,0,0
			c0.2,0,0.5-0.2,0.5-0.4C53.6,83,53.4,82.8,53.1,82.8z"/>
		<path class="st1" d="M69.6,78.3c-0.4,0.1-0.8,0.3-1.1,0.4c-0.3,0.1-0.4,0.3-0.3,0.6c0.1,0.2,0.2,0.3,0.5,0.3c0,0,0.1,0,0.1,0
			c0.4-0.1,0.8-0.3,1.2-0.4c0.2-0.1,0.4-0.4,0.3-0.6C70.1,78.3,69.8,78.2,69.6,78.3z"/>
		<path class="st1" d="M72.8,76.7c-0.3,0.2-0.7,0.4-1,0.6c-0.2,0.1-0.3,0.4-0.2,0.6c0.1,0.2,0.2,0.3,0.4,0.3c0.1,0,0.1,0,0.2-0.1
			c0.4-0.2,0.7-0.4,1.1-0.6c0.2-0.1,0.3-0.4,0.2-0.6C73.3,76.7,73,76.6,72.8,76.7z"/>
		<path class="st1" d="M40.7,69.8c-0.2,0.3-0.5,0.7-0.8,1c-0.2,0.2-0.1,0.5,0.1,0.7c0.1,0.1,0.2,0.1,0.3,0.1c0.1,0,0.3-0.1,0.4-0.2
			c0.3-0.4,0.6-0.7,0.8-1.1c0.1-0.2,0.1-0.5-0.1-0.7C41.2,69.6,40.9,69.6,40.7,69.8z"/>
		<path class="st1" d="M35.5,75c-0.1-0.2-0.4-0.3-0.6-0.2c-0.4,0.2-0.8,0.4-1.2,0.6c-0.2,0.1-0.3,0.4-0.2,0.6
			c0.1,0.2,0.3,0.3,0.4,0.3c0.1,0,0.1,0,0.2,0c0.4-0.2,0.8-0.4,1.2-0.6C35.5,75.5,35.6,75.2,35.5,75z"/>
		<path class="st1" d="M38.8,72.7c-0.2-0.2-0.5-0.2-0.7-0.1c-0.3,0.3-0.7,0.5-1,0.8c-0.2,0.1-0.3,0.4-0.1,0.7
			c0.1,0.1,0.2,0.2,0.4,0.2c0.1,0,0.2,0,0.3-0.1c0.4-0.3,0.7-0.5,1.1-0.8C38.9,73.2,39,72.9,38.8,72.7z"/>
		<path class="st1" d="M42.7,60.4C42.8,60.4,42.8,60.4,42.7,60.4c0.4-0.1,0.5-0.3,0.5-0.6c-0.1-0.4-0.2-0.9-0.3-1.3
			c-0.1-0.3-0.3-0.4-0.6-0.3c-0.3,0.1-0.4,0.3-0.3,0.6c0.1,0.4,0.2,0.8,0.3,1.3C42.3,60.2,42.5,60.4,42.7,60.4z"/>
		<path class="st1" d="M41.1,56.3c0.1,0.2,0.3,0.3,0.4,0.3c0.1,0,0.1,0,0.2,0c0.2-0.1,0.4-0.4,0.3-0.6c-0.2-0.4-0.4-0.8-0.5-1.2
			c-0.1-0.2-0.4-0.3-0.6-0.2c-0.2,0.1-0.3,0.4-0.2,0.6C40.7,55.5,40.9,55.9,41.1,56.3z"/>
		<path class="st1" d="M42.2,68.2c0.1,0,0.1,0,0.2,0c0.2,0,0.4-0.1,0.4-0.3c0.2-0.4,0.3-0.9,0.4-1.3c0.1-0.3-0.1-0.5-0.3-0.6
			c-0.3-0.1-0.5,0.1-0.6,0.3c-0.1,0.4-0.2,0.8-0.4,1.2C41.8,67.8,41.9,68.1,42.2,68.2z"/>
		<path class="st1" d="M43.6,63.9c0-0.2,0-0.3,0-0.5c0-0.3,0-0.6,0-0.9c0-0.3-0.2-0.5-0.5-0.4c-0.3,0-0.5,0.2-0.4,0.5
			c0,0.3,0,0.5,0,0.8c0,0.2,0,0.3,0,0.5c0,0.3,0.2,0.5,0.5,0.5c0,0,0,0,0,0C43.4,64.3,43.6,64.1,43.6,63.9z"/>
		<path class="st1" d="M99.4,3.9c0.1,0,0.2,0,0.3-0.1c0.4-0.3,0.7-0.5,1.1-0.6c0.2-0.1,0.4-0.4,0.3-0.6c-0.1-0.2-0.4-0.4-0.6-0.3
			C100,2.5,99.5,2.7,99.1,3c-0.2,0.1-0.3,0.4-0.1,0.7C99.1,3.8,99.2,3.9,99.4,3.9z"/>
		<path class="st1" d="M96.2,6c-0.1,0.2-0.1,0.5,0.2,0.6c0.1,0,0.2,0.1,0.2,0.1c0.2,0,0.3-0.1,0.4-0.2c0.2-0.3,0.5-0.7,0.7-1
			c0.2-0.2,0.2-0.5,0-0.7c-0.2-0.2-0.5-0.2-0.7,0C96.7,5.3,96.4,5.6,96.2,6z"/>
		<path class="st1" d="M39.9,85.3c-0.4-0.2-0.7-0.4-1.1-0.7c-0.2-0.2-0.5-0.1-0.7,0.1c-0.2,0.2-0.1,0.5,0.1,0.7
			c0.4,0.3,0.8,0.5,1.2,0.7c0.1,0,0.1,0.1,0.2,0.1c0.2,0,0.3-0.1,0.4-0.2C40.2,85.7,40.1,85.4,39.9,85.3z"/>
		<path class="st1" d="M43.5,86.1l-0.3,0c-0.4,0-0.7,0-1-0.1c-0.2,0-0.5,0.2-0.5,0.4c0,0.3,0.2,0.5,0.4,0.5c0.4,0,0.7,0.1,1.1,0.1
			l0.3,0c0.3,0,0.5-0.2,0.5-0.5C44,86.3,43.8,86.1,43.5,86.1z"/>
		<path class="st1" d="M47.5,86.1h-1.3c-0.3,0-0.5,0.2-0.5,0.5c0,0.3,0.2,0.5,0.5,0.5h1.3c0.3,0,0.5-0.2,0.5-0.5
			C48,86.3,47.7,86.1,47.5,86.1z"/>
		<path class="st1" d="M60.7,27.1c0.4,0,0.8,0.1,1.2,0.2c0,0,0.1,0,0.1,0c0.2,0,0.4-0.1,0.5-0.4c0.1-0.3-0.1-0.5-0.4-0.6
			c-0.5-0.1-0.9-0.2-1.4-0.2c-0.2,0-0.5,0.2-0.5,0.5C60.2,26.9,60.4,27.1,60.7,27.1z"/>
		<path class="st1" d="M56.3,27.5c0.1,0.2,0.3,0.3,0.4,0.3c0.1,0,0.1,0,0.2,0c0.4-0.2,0.8-0.3,1.2-0.4c0.3-0.1,0.4-0.3,0.3-0.6
			c-0.1-0.3-0.3-0.4-0.6-0.3c-0.4,0.1-0.8,0.2-1.3,0.4C56.4,27,56.2,27.2,56.3,27.5z"/>
		<path class="st1" d="M104.1,45.1c0-0.3-0.3-0.4-0.5-0.4c-0.3,0-0.4,0.3-0.4,0.5c0,0.4,0.1,0.9,0.1,1.3c0,0.3,0.2,0.4,0.5,0.4
			c0,0,0,0,0,0c0.3,0,0.5-0.2,0.4-0.5C104.1,46,104.1,45.6,104.1,45.1z"/>
		<path class="st1" d="M103,40.8c-0.3,0-0.4,0.3-0.4,0.5c0.1,0.4,0.1,0.9,0.2,1.3c0,0.2,0.2,0.4,0.5,0.4c0,0,0,0,0.1,0
			c0.3,0,0.4-0.3,0.4-0.5c-0.1-0.4-0.1-0.9-0.2-1.3C103.5,40.9,103.3,40.7,103,40.8z"/>
		<path class="st1" d="M103.3,36.8c-0.2-0.1-0.5,0-0.6,0.3c-0.1,0.4-0.2,0.9-0.3,1.4c0,0.3,0.2,0.5,0.4,0.5c0,0,0,0,0,0
			c0.3,0,0.5-0.2,0.5-0.4c0-0.5,0.1-0.8,0.2-1.2C103.6,37.2,103.5,36.9,103.3,36.8z"/>
		<path class="st1" d="M102.2,52.8c-0.2,0.4-0.4,0.7-0.7,1.1c-0.2,0.2-0.1,0.5,0.1,0.7c0.1,0.1,0.2,0.1,0.3,0.1
			c0.1,0,0.3-0.1,0.4-0.2c0.3-0.4,0.5-0.8,0.8-1.2c0.1-0.2,0-0.5-0.2-0.6C102.6,52.4,102.3,52.5,102.2,52.8z"/>
		<path class="st1" d="M103.7,48.7c-0.3,0-0.5,0.2-0.5,0.4c0,0.4-0.1,0.9-0.2,1.3c-0.1,0.3,0.1,0.5,0.4,0.6c0,0,0.1,0,0.1,0
			c0.2,0,0.4-0.2,0.5-0.4c0.1-0.4,0.2-0.9,0.2-1.4C104.2,48.9,104,48.7,103.7,48.7z"/>
		<path class="st1" d="M107.3,41.4C107.3,41.4,107.3,41.4,107.3,41.4c0.3,0,0.5-0.2,0.5-0.5c0-0.4,0-0.8,0.1-1.3
			c0-0.3-0.1-0.5-0.4-0.5c-0.2,0-0.5,0.1-0.5,0.4c-0.1,0.5-0.1,0.9-0.1,1.4C106.9,41.2,107.1,41.4,107.3,41.4z"/>
		<path class="st1" d="M109.2,36.2c0.2-0.2,0.1-0.5-0.1-0.7c-0.2-0.2-0.5-0.1-0.7,0.1c-0.3,0.3-0.5,0.8-0.7,1.2
			c-0.1,0.2,0,0.5,0.2,0.6c0.1,0,0.1,0,0.2,0c0.2,0,0.4-0.1,0.4-0.3C108.8,36.8,109,36.4,109.2,36.2z"/>
		<path class="st1" d="M108.2,45.2c0.2-0.1,0.4-0.4,0.3-0.6c-0.2-0.4-0.3-0.8-0.4-1.2c-0.1-0.3-0.3-0.4-0.6-0.4
			c-0.3,0.1-0.4,0.3-0.4,0.6c0.1,0.5,0.2,0.9,0.4,1.3c0.1,0.2,0.3,0.3,0.4,0.3C108.1,45.3,108.1,45.3,108.2,45.2z"/>
		<path class="st1" d="M98.9,65.1c0.1,0,0.2,0.1,0.2,0.1c0.2,0,0.3-0.1,0.4-0.2c0.2-0.4,0.4-0.8,0.6-1.2c0.1-0.2,0-0.5-0.3-0.6
			c-0.2-0.1-0.5,0-0.6,0.3c-0.2,0.4-0.4,0.8-0.6,1.1C98.6,64.7,98.7,65,98.9,65.1z"/>
		<path class="st1" d="M100.5,61.4c0.2,0,0.4-0.2,0.5-0.4c0.1-0.5,0.1-0.9,0.1-1.4c0-0.3-0.2-0.5-0.5-0.5c-0.3,0-0.5,0.2-0.5,0.5
			c0,0.4,0,0.8-0.1,1.3C100,61.2,100.2,61.4,100.5,61.4C100.4,61.4,100.5,61.4,100.5,61.4z"/>
		<path class="st1" d="M90.8,57.1C90.8,57.1,90.8,57.1,90.8,57.1c0.3,0,0.5-0.1,0.6-0.4c0.1-0.5,0.1-0.9,0.2-1.4
			c0-0.3-0.2-0.5-0.5-0.5c-0.3,0-0.5,0.2-0.5,0.5c0,0.4-0.1,0.8-0.2,1.2C90.4,56.8,90.5,57,90.8,57.1z"/>
		<path class="st1" d="M86.6,63.6c0.1,0,0.1,0,0.2-0.1c0.4-0.2,0.8-0.5,1.2-0.8c0.2-0.2,0.2-0.5,0-0.7c-0.2-0.2-0.5-0.2-0.7,0
			c-0.3,0.3-0.7,0.5-1,0.7c-0.2,0.1-0.3,0.4-0.2,0.6C86.3,63.5,86.4,63.6,86.6,63.6z"/>
		<path class="st1" d="M89.1,60.7c0.1,0,0.2,0.1,0.3,0.1c0.2,0,0.3-0.1,0.4-0.2c0.2-0.4,0.5-0.8,0.7-1.2c0.1-0.2,0-0.5-0.2-0.6
			c-0.2-0.1-0.5,0-0.6,0.2c-0.2,0.4-0.4,0.8-0.6,1.1C88.8,60.3,88.9,60.5,89.1,60.7z"/>
		<path class="st1" d="M85.8,55.7C85.8,55.7,85.9,55.7,85.8,55.7c0.3,0,0.5-0.3,0.5-0.5c-0.1-0.4-0.1-0.8-0.1-1.3
			c0-0.3-0.2-0.5-0.5-0.5c-0.3,0-0.5,0.2-0.5,0.5c0,0.5,0.1,0.9,0.1,1.4C85.4,55.5,85.6,55.7,85.8,55.7z"/>
		<path class="st1" d="M86.2,49.4c-0.3-0.1-0.5,0.1-0.6,0.4c-0.1,0.4-0.2,0.9-0.2,1.3c0,0.3,0.1,0.5,0.4,0.5c0,0,0,0,0.1,0
			c0.2,0,0.4-0.2,0.5-0.4c0.1-0.4,0.1-0.9,0.2-1.3C86.6,49.7,86.4,49.5,86.2,49.4z"/>
		<path class="st1" d="M86.8,47.8c0.2,0,0.4-0.1,0.4-0.3c0.2-0.4,0.3-0.8,0.5-1.2c0.1-0.2,0-0.5-0.2-0.6c-0.2-0.1-0.5,0-0.6,0.2
			c-0.2,0.4-0.4,0.8-0.6,1.2c-0.1,0.2,0,0.5,0.3,0.6C86.7,47.8,86.8,47.8,86.8,47.8z"/>
		<path class="st1" d="M88.9,44.5c0.1,0,0.3-0.1,0.3-0.1c0.3-0.3,0.6-0.6,0.9-0.8c0.2-0.2,0.2-0.5,0.1-0.7c-0.2-0.2-0.5-0.2-0.7-0.1
			c-0.4,0.3-0.7,0.6-1,0.9c-0.2,0.2-0.2,0.5,0,0.7C88.7,44.4,88.8,44.5,88.9,44.5z"/>
		<path class="st1" d="M92.2,48.6c0.1-0.4,0.3-0.8,0.5-1.2c0.1-0.2,0-0.5-0.2-0.6c-0.2-0.1-0.5,0-0.6,0.2c-0.2,0.4-0.4,0.8-0.5,1.3
			c-0.1,0.2,0,0.5,0.3,0.6c0.1,0,0.1,0,0.2,0C91.9,48.9,92.1,48.8,92.2,48.6z"/>
		<path class="st1" d="M91.2,50.6c-0.3,0-0.5,0.2-0.5,0.4c0,0.3,0,0.6,0,0.8c0,0.2,0,0.4,0,0.6c0,0.3,0.2,0.4,0.5,0.4c0,0,0,0,0,0
			c0.3,0,0.5-0.2,0.4-0.5c0-0.2,0-0.3,0-0.5c0-0.2,0-0.5,0-0.7C91.7,50.8,91.5,50.6,91.2,50.6z"/>
		<path class="st1" d="M94.4,43.7c-0.4,0.2-0.7,0.6-1.1,1c-0.2,0.2-0.2,0.5,0,0.7c0.1,0.1,0.2,0.1,0.3,0.1c0.1,0,0.3-0.1,0.4-0.2
			c0.3-0.3,0.6-0.6,0.9-0.8c0.2-0.1,0.3-0.4,0.1-0.7C94.9,43.6,94.7,43.6,94.4,43.7z"/>
		<path class="st1" d="M107.4,55.1c0.2,0,0.4-0.2,0.5-0.4c0.1-0.4,0.1-0.9,0.1-1.4c0-0.3-0.2-0.5-0.4-0.5c-0.3,0-0.5,0.2-0.5,0.4
			c0,0.4-0.1,0.9-0.1,1.3C106.9,54.8,107,55,107.4,55.1C107.3,55.1,107.4,55.1,107.4,55.1z"/>
		<path class="st1" d="M106.9,56.7c-0.2-0.1-0.5,0-0.6,0.3c-0.2,0.4-0.3,0.8-0.5,1.1c-0.1,0.2-0.1,0.5,0.2,0.6
			c0.1,0,0.2,0.1,0.2,0.1c0.2,0,0.3-0.1,0.4-0.2c0.2-0.4,0.4-0.8,0.6-1.3C107.2,57.1,107.1,56.8,106.9,56.7z"/>
		<path class="st1" d="M107.3,48.8c-0.3,0-0.4,0.3-0.4,0.5c0,0.4,0.1,0.9,0.1,1.3c0,0.3,0.2,0.4,0.5,0.4c0,0,0,0,0,0
			c0.3,0,0.5-0.2,0.4-0.5c0-0.5-0.1-0.9-0.1-1.3C107.8,49,107.6,48.8,107.3,48.8z"/>
		<path class="st1" d="M104.8,60.1c-0.2-0.2-0.5-0.2-0.7,0c-0.3,0.2-0.5,0.4-0.8,0.7c-0.2,0.1-0.3,0.4-0.1,0.7
			c0.1,0.1,0.2,0.2,0.4,0.2c0.1,0,0.2,0,0.3-0.1c0.3-0.2,0.7-0.5,0.9-0.7C105,60.6,105,60.3,104.8,60.1z"/>
		<path class="st1" d="M97.3,48.6C97.3,48.6,97.3,48.6,97.3,48.6c0.3,0,0.5-0.2,0.5-0.5c0-0.4,0-0.9,0.1-1.3c0-0.3-0.1-0.5-0.4-0.5
			c-0.3,0-0.5,0.1-0.5,0.4c-0.1,0.4-0.1,0.9-0.1,1.4C96.9,48.4,97.1,48.6,97.3,48.6z"/>
		<path class="st1" d="M95.9,60.1c0.1,0,0.3-0.1,0.4-0.2c0.3-0.4,0.5-0.8,0.8-1.1c0.1-0.2,0.1-0.5-0.2-0.6c-0.2-0.1-0.5-0.1-0.6,0.2
			c-0.2,0.3-0.4,0.7-0.7,1.1c-0.2,0.2-0.1,0.5,0.1,0.7C95.8,60.1,95.8,60.1,95.9,60.1z"/>
		<path class="st1" d="M97.6,56.5c0,0,0.1,0,0.1,0c0.2,0,0.4-0.1,0.5-0.4c0.1-0.5,0.2-0.9,0.2-1.4c0-0.3-0.2-0.5-0.5-0.5
			c-0.3,0-0.5,0.2-0.5,0.5c0,0.4-0.1,0.8-0.2,1.2C97.2,56.2,97.3,56.5,97.6,56.5z"/>
		<path class="st1" d="M98.6,44.4c0.2-0.4,0.3-0.8,0.6-1.1c0.1-0.2,0-0.5-0.2-0.6c-0.2-0.1-0.5,0-0.6,0.2c-0.2,0.4-0.4,0.8-0.6,1.2
			c-0.1,0.2,0,0.5,0.3,0.6c0.1,0,0.1,0,0.2,0C98.3,44.7,98.5,44.6,98.6,44.4z"/>
		<path class="st1" d="M97.6,52.6C97.7,52.6,97.7,52.6,97.6,52.6c0.3,0,0.5-0.3,0.5-0.5L98,50.7c0-0.3-0.3-0.4-0.5-0.4
			c-0.3,0-0.4,0.3-0.4,0.5l0.2,1.3C97.2,52.4,97.4,52.6,97.6,52.6z"/>
		<path class="st1" d="M95.5,40.2c0-0.3-0.3-0.4-0.5-0.4c-0.4,0.1-0.8,0.1-1.3,0.2c-0.3,0-0.5,0.2-0.4,0.5c0,0.3,0.2,0.4,0.5,0.4
			c0,0,0,0,0,0c0.5,0,0.9-0.1,1.4-0.2C95.3,40.7,95.5,40.5,95.5,40.2z"/>
		<path class="st1" d="M98.9,38.9c0.2-0.2,0.2-0.5,0-0.7c-0.2-0.2-0.5-0.2-0.7,0c-0.3,0.3-0.6,0.5-1,0.7c-0.2,0.1-0.3,0.4-0.2,0.6
			c0.1,0.1,0.2,0.2,0.4,0.2c0.1,0,0.2,0,0.2-0.1C98.1,39.5,98.5,39.2,98.9,38.9z"/>
		<path class="st1" d="M99.9,36.8c0.2,0,0.4-0.1,0.4-0.3c0.1-0.3,0.2-0.6,0.3-0.8l0.2-0.4c0.1-0.2,0-0.5-0.3-0.6
			c-0.2-0.1-0.5,0-0.6,0.3c-0.1,0.1-0.1,0.3-0.2,0.4c-0.1,0.2-0.2,0.5-0.3,0.8c-0.1,0.2,0,0.5,0.3,0.6
			C99.8,36.8,99.9,36.8,99.9,36.8z"/>
		<path class="st1" d="M153.8,92.3c-0.4,0-0.8,0-1.2,0.1c-0.3,0-0.5,0.3-0.4,0.5c0,0.2,0.2,0.4,0.5,0.4c0,0,0,0,0,0
			c0.4,0,0.8-0.1,1.2-0.1c0.3,0,0.5-0.2,0.5-0.5C154.2,92.4,154,92.2,153.8,92.3z"/>
		<path class="st1" d="M157.5,92.4c-0.4-0.1-0.8-0.1-1.2-0.1c-0.2,0-0.5,0.2-0.5,0.4c0,0.3,0.2,0.5,0.4,0.5c0.4,0,0.8,0.1,1.2,0.1
			c0,0,0,0,0.1,0c0.2,0,0.4-0.2,0.5-0.4C157.9,92.7,157.7,92.4,157.5,92.4z"/>
		<path class="st1" d="M112.8,37.6c0,0.3,0.2,0.4,0.5,0.4c0,0,0,0,0,0c0.3,0,0.5-0.2,0.4-0.5c0-0.1,0-0.2,0-0.3l-0.1-1
			c0-0.3-0.2-0.5-0.5-0.4c-0.3,0-0.5,0.2-0.4,0.5l0.1,1C112.8,37.4,112.8,37.5,112.8,37.6z"/>
		<path class="st1" d="M114.6,41.3c-0.2-0.4-0.3-0.8-0.5-1.2c-0.1-0.2-0.3-0.4-0.6-0.3c-0.2,0.1-0.4,0.3-0.3,0.6
			c0.1,0.4,0.3,0.8,0.5,1.3c0.1,0.2,0.3,0.3,0.4,0.3c0.1,0,0.1,0,0.2,0C114.6,41.8,114.7,41.5,114.6,41.3z"/>
		<path class="st1" d="M116.4,49.1c0-0.3,0-0.5,0-0.8c0-0.2,0-0.4,0-0.6c0-0.3-0.2-0.5-0.5-0.5c0,0,0,0,0,0c-0.3,0-0.5,0.2-0.5,0.5
			c0,0.2,0,0.4,0,0.6c0,0.2,0,0.5,0,0.7c0,0.3,0.2,0.5,0.5,0.5c0,0,0,0,0,0C116.2,49.6,116.4,49.4,116.4,49.1z"/>
		<path class="st1" d="M114.9,44c0.2,0.4,0.3,0.8,0.4,1.2c0.1,0.2,0.2,0.4,0.5,0.4c0,0,0.1,0,0.1,0c0.3-0.1,0.4-0.3,0.3-0.6
			c-0.1-0.4-0.3-0.8-0.4-1.3c-0.1-0.2-0.4-0.4-0.6-0.3C114.9,43.5,114.8,43.8,114.9,44z"/>
		<path class="st1" d="M114.9,53.4c0.1,0,0.1,0,0.2,0c0.2,0,0.3-0.1,0.4-0.3c0.2-0.4,0.4-0.9,0.5-1.3c0.1-0.3-0.1-0.5-0.3-0.6
			c-0.2-0.1-0.5,0.1-0.6,0.3c-0.1,0.4-0.3,0.8-0.4,1.2C114.6,53,114.7,53.3,114.9,53.4z"/>
		<path class="st1" d="M113,34.1C113,34.1,113,34.1,113,34.1c0.3,0,0.5-0.2,0.5-0.5l-0.1-1.3c0-0.3-0.2-0.4-0.5-0.4
			c-0.3,0-0.5,0.2-0.4,0.5l0.1,1.3C112.5,33.9,112.7,34.1,113,34.1z"/>
	</g>
</g>
</svg>
