<?xml version="1.0" encoding="utf-8"?>
<!-- Generator: Adobe Illustrator 22.0.1, SVG Export Plug-In . SVG Version: 6.00 Build 0)  -->
<svg version="1.1" id="Layer_1" xmlns="http://www.w3.org/2000/svg" xmlns:xlink="http://www.w3.org/1999/xlink" x="0px" y="0px"
	 viewBox="0 0 61.5 61.5" style="enable-background:new 0 0 61.5 61.5;" xml:space="preserve">
<style type="text/css">
	.st0{fill:#EFEBE5;}
	.st1{fill:none;stroke:#EFEBE5;stroke-linecap:round;stroke-linejoin:round;stroke-miterlimit:10;}
</style>
<g>
	<g>
		<path class="st0" d="M30.7,1c16.4,0,29.7,13.3,29.7,29.7v29.7H1V30.7C1,14.3,14.3,1,30.7,1 M30.7,0C13.8,0,0,13.8,0,30.7v29.7
			c0,0.6,0.4,1,1,1h59.5c0.6,0,1-0.4,1-1V30.7C61.5,13.8,47.7,0,30.7,0L30.7,0z"/>
	</g>
	<line class="st1" x1="30.7" y1="60.5" x2="1" y2="55.2"/>
	<line class="st1" x1="30.7" y1="60.5" x2="1" y2="49.6"/>
	<line class="st1" x1="30.7" y1="60.5" x2="1" y2="43.3"/>
	<line class="st1" x1="30.7" y1="60.5" x2="1" y2="35.5"/>
	<line class="st1" x1="30.7" y1="60.5" x2="1.4" y2="25.6"/>
	<line class="st1" x1="30.7" y1="60.5" x2="5" y2="15.9"/>
	<line class="st1" x1="30.7" y1="60.5" x2="11.6" y2="8"/>
	<line class="st1" x1="30.7" y1="60.5" x2="20.6" y2="2.8"/>
	<line class="st1" x1="30.7" y1="60.5" x2="30.7" y2="1"/>
	<line class="st1" x1="30.7" y1="60.5" x2="40.9" y2="2.8"/>
	<line class="st1" x1="30.7" y1="60.5" x2="49.8" y2="8"/>
	<line class="st1" x1="30.7" y1="60.5" x2="56.5" y2="15.9"/>
	<line class="st1" x1="30.7" y1="60.5" x2="60" y2="25.6"/>
	<line class="st1" x1="30.7" y1="60.5" x2="60.5" y2="35.5"/>
	<line class="st1" x1="30.7" y1="60.5" x2="60.5" y2="43.3"/>
	<line class="st1" x1="30.7" y1="60.5" x2="60.5" y2="49.6"/>
	<line class="st1" x1="30.7" y1="60.5" x2="60.5" y2="55.2"/>
</g>
</svg>
