<?xml version="1.0" encoding="utf-8"?>
<!-- Generator: Adobe Illustrator 22.0.1, SVG Export Plug-In . SVG Version: 6.00 Build 0)  -->
<svg version="1.1" id="Layer_1" xmlns="http://www.w3.org/2000/svg" xmlns:xlink="http://www.w3.org/1999/xlink" x="0px" y="0px"
	 viewBox="0 0 73.2 73.2" style="enable-background:new 0 0 73.2 73.2;" xml:space="preserve">
<style type="text/css">
	.st0{fill:none;stroke:#EFEBE5;stroke-linecap:round;stroke-linejoin:round;stroke-miterlimit:10;}
</style>
<g>
	<g>
		<path class="st0" d="M29.9,20.5l-18.8-9.4l12.8,25.5 M43.2,52.7l18.8,9.4L49.3,36.6 M20.5,29.9l-20,6.7l27.1,9 M52.7,43.2l20-6.7
			l-27.1-9 M20.5,43.2l-9.4,18.8l25.5-12.8 M52.7,29.9l9.4-18.8L36.6,23.8 M29.9,52.7l6.7,20l9-27.1 M43.2,20.5l-6.7-20l-9,27.1"/>
	</g>
	<line class="st0" x1="36.6" y1="36.6" x2="36.6" y2="72.7"/>
	<line class="st0" x1="36.6" y1="36.6" x2="11.1" y2="11.1"/>
	<line class="st0" x1="36.6" y1="36.6" x2="62.1" y2="62.1"/>
	<line class="st0" x1="36.6" y1="36.6" x2="0.5" y2="36.6"/>
	<line class="st0" x1="36.6" y1="36.6" x2="72.7" y2="36.6"/>
	<line class="st0" x1="36.6" y1="36.6" x2="11.1" y2="62.1"/>
	<line class="st0" x1="36.6" y1="36.6" x2="62.1" y2="11.1"/>
	<line class="st0" x1="36.6" y1="36.6" x2="36.6" y2="0.5"/>
</g>
</svg>
