<?xml version="1.0" encoding="utf-8"?>
<!-- Generator: Adobe Illustrator 22.0.1, SVG Export Plug-In . SVG Version: 6.00 Build 0)  -->
<svg version="1.1" id="Layer_1" xmlns="http://www.w3.org/2000/svg" xmlns:xlink="http://www.w3.org/1999/xlink" x="0px" y="0px"
	 viewBox="0 0 136.8 130.5" style="enable-background:new 0 0 136.8 130.5;" xml:space="preserve">
<style type="text/css">
	.st0{fill:#EFEBE5;}
	.st1{fill:#B1834F;}
</style>
<g>
	<g>
		<path class="st0" d="M37.4,56c-0.2,0.1-0.4,0.2-0.6,0.3c-0.2,0.1-0.3,0.4-0.2,0.6c0.1,0.2,0.3,0.3,0.4,0.3c0.1,0,0.1,0,0.2,0
			c0.2-0.1,0.4-0.2,0.6-0.3c0.2-0.1,0.3-0.4,0.2-0.6C38,56,37.7,55.9,37.4,56z"/>
		<path class="st0" d="M8.1,127.3c-0.4-0.1-0.8-0.2-1.2-0.4c-0.2-0.1-0.5,0-0.6,0.2c-0.1,0.2,0,0.5,0.2,0.6c0.4,0.2,0.9,0.3,1.3,0.4
			c0,0,0.1,0,0.1,0c0.2,0,0.4-0.1,0.5-0.4C8.5,127.7,8.3,127.4,8.1,127.3z"/>
		<path class="st0" d="M7.4,108.3l-0.9,1c-0.2,0.2-0.1,0.5,0,0.7c0.1,0.1,0.2,0.1,0.3,0.1c0.1,0,0.3-0.1,0.4-0.2l0.9-1
			c0.2-0.2,0.1-0.5-0.1-0.7C7.9,108,7.6,108.1,7.4,108.3z"/>
		<path class="st0" d="M3.9,124.7c-0.2-0.2-0.5-0.2-0.7,0c-0.2,0.2-0.2,0.5,0,0.7c0.3,0.3,0.7,0.7,1,0.9c0.1,0.1,0.2,0.1,0.3,0.1
			c0.1,0,0.3-0.1,0.4-0.2c0.2-0.2,0.1-0.5-0.1-0.7C4.5,125.3,4.2,125,3.9,124.7z"/>
		<path class="st0" d="M10.6,105.1c-0.2-0.2-0.5-0.1-0.7,0.1c-0.3,0.3-0.6,0.7-0.8,1c-0.2,0.2-0.1,0.5,0.1,0.7
			c0.1,0.1,0.2,0.1,0.3,0.1c0.1,0,0.3-0.1,0.4-0.2c0.3-0.3,0.6-0.7,0.8-1C10.8,105.6,10.8,105.3,10.6,105.1z"/>
		<path class="st0" d="M4.8,111.3c-0.3,0.3-0.6,0.7-0.9,1c-0.2,0.2-0.1,0.5,0.1,0.7c0.1,0.1,0.2,0.1,0.3,0.1c0.1,0,0.3-0.1,0.4-0.2
			c0.3-0.3,0.6-0.7,0.8-1c0.2-0.2,0.1-0.5-0.1-0.7C5.3,111,5,111.1,4.8,111.3z"/>
		<path class="st0" d="M16,82.9c-0.1,0.4-0.1,0.9-0.2,1.3c0,0.3,0.2,0.5,0.4,0.5c0,0,0,0,0.1,0c0.2,0,0.4-0.2,0.5-0.4
			c0.1-0.4,0.1-0.8,0.2-1.3l-0.5-0.1L16,82.9z"/>
		<path class="st0" d="M21.1,72.1c0.1-0.2,0.1-0.5-0.2-0.6c-0.2-0.1-0.5-0.1-0.6,0.2c-0.2,0.4-0.5,0.8-0.7,1.2
			c-0.1,0.2,0,0.5,0.2,0.6c0.1,0,0.2,0.1,0.2,0.1c0.2,0,0.3-0.1,0.4-0.2C20.6,72.8,20.9,72.4,21.1,72.1z"/>
		<path class="st0" d="M2.9,114.3c-0.2-0.2-0.5-0.1-0.7,0.1c-0.3,0.4-0.5,0.8-0.8,1.1c-0.1,0.2-0.1,0.5,0.1,0.7
			c0.1,0.1,0.2,0.1,0.3,0.1c0.2,0,0.3-0.1,0.4-0.2c0.2-0.4,0.5-0.7,0.7-1.1C3.2,114.7,3.2,114.4,2.9,114.3z"/>
		<path class="st0" d="M12.8,101.8c-0.2-0.1-0.5-0.1-0.6,0.2c-0.2,0.4-0.4,0.7-0.7,1.1c-0.1,0.2-0.1,0.5,0.1,0.7
			c0.1,0.1,0.2,0.1,0.3,0.1c0.2,0,0.3-0.1,0.4-0.2c0.3-0.4,0.5-0.8,0.7-1.2C13.1,102.2,13,102,12.8,101.8z"/>
		<path class="st0" d="M19,74.9c-0.2-0.1-0.5,0-0.6,0.2c-0.2,0.4-0.4,0.8-0.5,1.2c-0.1,0.2,0,0.5,0.3,0.6c0.1,0,0.1,0,0.2,0
			c0.2,0,0.4-0.1,0.4-0.3c0.2-0.4,0.3-0.8,0.5-1.2C19.4,75.3,19.3,75,19,74.9z"/>
		<path class="st0" d="M15.5,92.6C15.5,92.6,15.5,92.6,15.5,92.6c0.3,0,0.5-0.2,0.5-0.4c0-0.4,0.1-0.9,0.1-1.3
			c0-0.3-0.2-0.5-0.4-0.5c-0.3,0-0.5,0.2-0.5,0.4c0,0.4-0.1,0.9-0.1,1.3C15,92.4,15.2,92.6,15.5,92.6z"/>
		<path class="st0" d="M14.4,98.2c-0.2-0.1-0.5,0-0.6,0.3c-0.1,0.4-0.3,0.8-0.5,1.2c-0.1,0.2,0,0.5,0.3,0.6c0.1,0,0.1,0,0.2,0
			c0.2,0,0.4-0.1,0.4-0.3c0.2-0.4,0.3-0.8,0.5-1.3C14.7,98.5,14.6,98.3,14.4,98.2z"/>
		<path class="st0" d="M2,122.6c-0.2-0.3-0.4-0.6-0.6-0.8c-0.1-0.2-0.4-0.3-0.6-0.2c-0.2,0.1-0.3,0.4-0.2,0.6c0.2,0.3,0.4,0.7,0.7,1
			l0.1,0.2c0.1,0.1,0.2,0.2,0.4,0.2c0.1,0,0.2,0,0.3-0.1c0.2-0.2,0.2-0.5,0.1-0.7L2,122.6z"/>
		<path class="st0" d="M17.5,80.4c0.1-0.4,0.2-0.8,0.4-1.3c0.1-0.2-0.1-0.5-0.3-0.6c-0.2-0.1-0.5,0.1-0.6,0.3
			c-0.1,0.4-0.3,0.9-0.4,1.3c-0.1,0.3,0.1,0.5,0.3,0.6c0,0,0.1,0,0.1,0C17.2,80.8,17.4,80.6,17.5,80.4z"/>
		<path class="st0" d="M15.8,88.7C15.8,88.7,15.9,88.7,15.8,88.7c0.3,0,0.5-0.2,0.5-0.4l0.1-1.3c0-0.3-0.2-0.5-0.4-0.5
			c-0.3,0-0.5,0.2-0.5,0.4l-0.1,1.3C15.4,88.4,15.6,88.6,15.8,88.7z"/>
		<path class="st0" d="M24.2,66.1c-0.2,0.2-0.1,0.5,0.1,0.7c0.1,0.1,0.2,0.1,0.3,0.1c0.1,0,0.3-0.1,0.4-0.2c0.3-0.3,0.6-0.7,0.9-1
			c0.2-0.2,0.2-0.5,0-0.7c-0.2-0.2-0.5-0.2-0.7,0C24.8,65.5,24.5,65.8,24.2,66.1z"/>
		<path class="st0" d="M14.8,96.5c0,0,0.1,0,0.1,0c0.2,0,0.4-0.2,0.5-0.4c0.1-0.4,0.2-0.9,0.3-1.3c0-0.3-0.1-0.5-0.4-0.5
			c-0.3,0-0.5,0.1-0.5,0.4c-0.1,0.4-0.2,0.9-0.2,1.3C14.4,96.2,14.6,96.5,14.8,96.5z"/>
		<path class="st0" d="M34.5,57.6c-0.4,0.2-0.8,0.5-1.1,0.7c-0.2,0.1-0.3,0.4-0.1,0.7c0.1,0.1,0.2,0.2,0.4,0.2c0.1,0,0.2,0,0.2-0.1
			c0.4-0.2,0.7-0.5,1.1-0.7c0.2-0.1,0.3-0.4,0.2-0.6C35,57.5,34.7,57.5,34.5,57.6z"/>
		<path class="st0" d="M0.9,119.5c0-0.4,0.1-0.8,0.3-1.2c0.1-0.2-0.1-0.5-0.3-0.6c-0.2-0.1-0.5,0.1-0.6,0.3c-0.2,0.5-0.3,1-0.3,1.4
			c0,0.3,0.2,0.5,0.4,0.5c0,0,0,0,0,0C0.7,119.9,0.9,119.7,0.9,119.5z"/>
		<path class="st0" d="M31.1,59.8c-0.4,0.3-0.7,0.5-1.1,0.8c-0.2,0.2-0.2,0.5-0.1,0.7c0.1,0.1,0.2,0.2,0.4,0.2c0.1,0,0.2,0,0.3-0.1
			c0.3-0.3,0.7-0.5,1-0.8c0.2-0.2,0.3-0.4,0.1-0.7C31.6,59.7,31.3,59.6,31.1,59.8z"/>
		<path class="st0" d="M28.6,62.3c-0.2-0.2-0.5-0.2-0.7,0c-0.3,0.3-0.7,0.6-1,0.9c-0.2,0.2-0.2,0.5,0,0.7C27,64,27.2,64,27.3,64
			c0.1,0,0.2,0,0.3-0.1c0.3-0.3,0.6-0.6,1-0.9C28.8,62.8,28.8,62.5,28.6,62.3z"/>
		<path class="st0" d="M22.5,68.2c-0.3,0.4-0.5,0.7-0.8,1.1c-0.1,0.2-0.1,0.5,0.1,0.7c0.1,0.1,0.2,0.1,0.3,0.1
			c0.1,0,0.3-0.1,0.4-0.2c0.2-0.4,0.5-0.7,0.8-1.1c0.2-0.2,0.1-0.5-0.1-0.7C23,68,22.7,68,22.5,68.2z"/>
		<path class="st0" d="M11.3,127.7l-0.7,0c-0.3,0-0.5,0.2-0.5,0.5c0,0.3,0.2,0.5,0.4,0.5l0.7,0c0,0,0,0,0,0c0.3,0,0.5-0.2,0.5-0.5
			C11.8,127.9,11.6,127.7,11.3,127.7z"/>
		<path class="st0" d="M16.9,121c-0.1-0.2-0.4-0.3-0.7-0.1c-0.2,0.1-0.3,0.4-0.1,0.7c0.2,0.3,0.4,0.7,0.7,1.1
			c0.1,0.2,0.3,0.2,0.4,0.2c0.1,0,0.2,0,0.2-0.1c0.2-0.1,0.3-0.4,0.2-0.6C17.4,121.7,17.2,121.4,16.9,121z"/>
		<path class="st0" d="M29.9,107.7c-0.4,0.2-0.7,0.4-1.2,0.5c-0.2,0.1-0.4,0.4-0.3,0.6c0.1,0.2,0.3,0.3,0.4,0.3c0.1,0,0.1,0,0.2,0
			c0.5-0.2,0.9-0.4,1.3-0.6c0.2-0.1,0.3-0.4,0.2-0.6C30.4,107.7,30.1,107.6,29.9,107.7z"/>
		<path class="st0" d="M26.2,109c-0.4,0.1-0.9,0.2-1.3,0.3c-0.3,0.1-0.4,0.3-0.4,0.6c0.1,0.2,0.2,0.4,0.5,0.4c0,0,0.1,0,0.1,0
			c0.4-0.1,0.9-0.2,1.3-0.3c0.3-0.1,0.4-0.3,0.3-0.6C26.7,109.1,26.5,108.9,26.2,109z"/>
		<path class="st0" d="M22.4,109.9l-0.2,0.1c-0.4,0.1-0.7,0.2-1.1,0.4c-0.2,0.1-0.4,0.4-0.3,0.6c0.1,0.2,0.3,0.3,0.4,0.3
			c0.1,0,0.1,0,0.2,0c0.3-0.1,0.7-0.2,1-0.3l0.2-0.1c0.3-0.1,0.4-0.3,0.3-0.6C22.9,110,22.6,109.8,22.4,109.9z"/>
		<path class="st0" d="M15.3,118.8l-0.1-0.2c-0.3-0.3-0.5-0.6-0.6-0.8c-0.1-0.2-0.4-0.3-0.6-0.2c-0.2,0.1-0.3,0.4-0.2,0.6
			c0.2,0.3,0.4,0.6,0.7,0.9l0.1,0.2c0.1,0.1,0.2,0.2,0.4,0.2c0.1,0,0.2,0,0.3-0.1C15.5,119.3,15.5,119,15.3,118.8z"/>
		<path class="st0" d="M15.1,116.2c0.1,0,0.3-0.1,0.4-0.2c0.2-0.3,0.5-0.7,0.8-1c0.2-0.2,0.1-0.5-0.1-0.7c-0.2-0.2-0.5-0.1-0.7,0.1
			c-0.3,0.4-0.6,0.7-0.8,1.1c-0.2,0.2-0.1,0.5,0.1,0.7C14.9,116.2,15,116.2,15.1,116.2z"/>
		<path class="st0" d="M19.1,112.4c0.2-0.1,0.3-0.4,0.1-0.7c-0.1-0.2-0.4-0.3-0.7-0.1c-0.4,0.3-0.7,0.5-1.1,0.8
			c-0.2,0.2-0.2,0.5-0.1,0.7c0.1,0.1,0.2,0.2,0.4,0.2c0.1,0,0.2,0,0.3-0.1C18.5,112.9,18.8,112.7,19.1,112.4z"/>
		<path class="st0" d="M31.2,104.9c-0.1-0.2-0.4-0.3-0.6-0.2c-0.2,0.1-0.3,0.4-0.2,0.6c0.2,0.4,0.5,0.8,0.7,1.2
			c0.1,0.1,0.2,0.2,0.4,0.2c0.1,0,0.2,0,0.3-0.1c0.2-0.1,0.3-0.4,0.1-0.7C31.6,105.6,31.4,105.2,31.2,104.9z"/>
		<path class="st0" d="M55.2,129.4c-0.4,0-0.9,0-1.2,0l-0.1,0c-0.3,0-0.4,0.2-0.4,0.5c0,0.3,0.2,0.5,0.5,0.5c0.4,0,0.8,0,1.3,0
			c0.3,0,0.5-0.2,0.4-0.5C55.7,129.6,55.5,129.3,55.2,129.4z"/>
		<path class="st0" d="M51.3,129.3c-0.4-0.1-0.8-0.2-1.2-0.3c-0.2-0.1-0.5,0-0.6,0.3c-0.1,0.2,0,0.5,0.3,0.6
			c0.4,0.1,0.9,0.3,1.4,0.3c0,0,0.1,0,0.1,0c0.2,0,0.4-0.2,0.5-0.4C51.8,129.5,51.6,129.3,51.3,129.3z"/>
		<path class="st0" d="M33.4,108c-0.2-0.2-0.5-0.2-0.7,0c-0.2,0.2-0.2,0.5,0,0.7c0.3,0.3,0.6,0.7,0.9,1c0.1,0.1,0.2,0.1,0.3,0.1
			c0.1,0,0.2,0,0.3-0.1c0.2-0.2,0.2-0.5,0-0.7C34,108.6,33.7,108.3,33.4,108z"/>
		<path class="st0" d="M39.6,112.9c-0.2-0.1-0.5-0.1-0.7,0.1c-0.1,0.2-0.1,0.5,0.1,0.7c0.4,0.3,0.7,0.5,1,0.8
			c0.1,0.1,0.2,0.1,0.3,0.1c0.1,0,0.3-0.1,0.3-0.2c0.2-0.2,0.2-0.5,0-0.7C40.3,113.4,40,113.1,39.6,112.9z"/>
		<path class="st0" d="M59,129.1c-0.4,0-0.8,0.1-1.2,0.1c-0.3,0-0.5,0.3-0.4,0.5c0,0.2,0.2,0.4,0.5,0.4c0,0,0,0,0,0
			c0.4,0,0.8-0.1,1.2-0.1c0.3,0,0.4-0.3,0.4-0.5C59.5,129.2,59.3,129,59,129.1z"/>
		<path class="st0" d="M43.9,119.7c-0.1-0.2-0.3-0.4-0.6-0.3c-0.2,0.1-0.4,0.3-0.3,0.6c0.1,0.4,0.3,0.8,0.4,1.3
			c0.1,0.2,0.3,0.3,0.5,0.3c0,0,0.1,0,0.2,0c0.2-0.1,0.4-0.4,0.3-0.6C44.2,120.5,44.1,120.1,43.9,119.7z"/>
		<path class="st0" d="M43.1,117.1c-0.2-0.5-0.4-0.9-0.6-1.2c-0.1-0.2-0.4-0.3-0.6-0.2c-0.2,0.1-0.3,0.4-0.2,0.6
			c0.2,0.3,0.4,0.7,0.6,1.1c0.1,0.2,0.3,0.3,0.4,0.3c0.1,0,0.1,0,0.2,0C43,117.6,43.2,117.3,43.1,117.1z"/>
		<path class="st0" d="M47.3,126.7c-0.2-0.2-0.4-0.3-0.7-0.1c-0.2,0.2-0.3,0.4-0.1,0.7c0.3,0.4,0.6,0.8,0.9,1.1
			c0.1,0.1,0.2,0.1,0.3,0.1c0.1,0,0.2,0,0.3-0.1c0.2-0.2,0.2-0.5,0-0.7C47.8,127.4,47.6,127.1,47.3,126.7z"/>
		<path class="st0" d="M45.6,123.8c-0.1-0.2-0.2-0.4-0.3-0.5c-0.1-0.2-0.4-0.3-0.6-0.2c-0.2,0.1-0.3,0.4-0.2,0.6
			c0.1,0.2,0.2,0.4,0.3,0.6l0.3,0.6c0.1,0.2,0.3,0.2,0.4,0.2c0.1,0,0.1,0,0.2-0.1c0.2-0.1,0.3-0.4,0.2-0.6L45.6,123.8z"/>
		<path class="st0" d="M36.3,110.6c-0.2-0.2-0.5-0.1-0.7,0.1c-0.2,0.2-0.1,0.5,0.1,0.7c0.3,0.3,0.7,0.5,1.1,0.8
			c0.1,0.1,0.2,0.1,0.3,0.1c0.1,0,0.3-0.1,0.4-0.2c0.2-0.2,0.1-0.5-0.1-0.7C37,111.1,36.6,110.9,36.3,110.6z"/>
		<path class="st0" d="M29.1,101c-0.3,0.1-0.4,0.3-0.3,0.6c0.1,0.4,0.3,0.9,0.4,1.3c0.1,0.2,0.3,0.3,0.4,0.3c0.1,0,0.1,0,0.2,0
			c0.2-0.1,0.4-0.4,0.3-0.6c-0.2-0.4-0.3-0.8-0.4-1.2C29.6,101.1,29.3,100.9,29.1,101z"/>
		<path class="st0" d="M28.4,91.3C28.4,91.3,28.4,91.3,28.4,91.3c0.3,0,0.5-0.3,0.5-0.5c0-0.4-0.1-0.9-0.1-1.3
			c0-0.3-0.3-0.4-0.5-0.4c-0.3,0-0.4,0.3-0.4,0.5c0.1,0.5,0.1,0.9,0.1,1.3C27.9,91.2,28.1,91.3,28.4,91.3z"/>
		<path class="st0" d="M28.6,95.3C28.6,95.3,28.6,95.3,28.6,95.3c0.3,0,0.5-0.2,0.5-0.5c0-0.4,0-0.9,0-1.3c0-0.3-0.2-0.5-0.5-0.5
			c-0.3,0-0.5,0.2-0.5,0.5c0,0.5,0,0.9,0,1.3C28.1,95.1,28.4,95.3,28.6,95.3z"/>
		<path class="st0" d="M28.7,99.3C28.7,99.3,28.8,99.3,28.7,99.3c0.3,0,0.5-0.3,0.5-0.5c0-0.4-0.1-0.9-0.1-1.3
			c0-0.3-0.2-0.5-0.5-0.5c-0.3,0-0.5,0.2-0.5,0.5c0,0.5,0,0.9,0.1,1.3C28.3,99.1,28.5,99.3,28.7,99.3z"/>
		<path class="st0" d="M28,75.2c0.1-0.4,0.3-0.8,0.5-1.2c0.1-0.2,0-0.5-0.3-0.6c-0.2-0.1-0.5,0-0.6,0.3c-0.2,0.4-0.3,0.9-0.5,1.3
			c-0.1,0.2,0,0.5,0.3,0.6c0.1,0,0.1,0,0.2,0C27.8,75.5,27.9,75.4,28,75.2z"/>
		<path class="st0" d="M26.9,77.1c-0.3-0.1-0.5,0.1-0.6,0.4c-0.1,0.5-0.2,0.9-0.3,1.3c0,0.3,0.1,0.5,0.4,0.5c0,0,0,0,0.1,0
			c0.2,0,0.4-0.2,0.5-0.4c0.1-0.4,0.1-0.8,0.2-1.3C27.3,77.5,27.2,77.2,26.9,77.1z"/>
		<path class="st0" d="M32,66.4c-0.2-0.1-0.5-0.1-0.7,0.1c-0.3,0.4-0.5,0.8-0.7,1.1c-0.1,0.2-0.1,0.5,0.2,0.7c0.1,0,0.2,0.1,0.3,0.1
			c0.2,0,0.3-0.1,0.4-0.2c0.2-0.4,0.5-0.7,0.7-1.1C32.3,66.8,32.3,66.5,32,66.4z"/>
		<path class="st0" d="M36.7,60.5c-0.4,0.3-0.7,0.6-1,0.9c-0.2,0.2-0.2,0.5,0,0.7c0.1,0.1,0.2,0.2,0.4,0.2c0.1,0,0.2,0,0.3-0.1
			c0.3-0.3,0.6-0.6,1-0.8c0.2-0.2,0.2-0.5,0.1-0.7C37.2,60.3,36.9,60.3,36.7,60.5z"/>
		<path class="st0" d="M26.4,81.1c-0.3,0-0.5,0.2-0.5,0.5c0,0.4,0.1,0.9,0.1,1.4c0,0.2,0.2,0.4,0.5,0.4c0,0,0,0,0,0
			c0.3,0,0.4-0.3,0.4-0.5c0-0.4-0.1-0.9-0.1-1.3C26.9,81.3,26.6,81.1,26.4,81.1z"/>
		<path class="st0" d="M33.8,63.3c-0.3,0.3-0.6,0.7-0.9,1c-0.2,0.2-0.1,0.5,0.1,0.7c0.1,0.1,0.2,0.1,0.3,0.1c0.1,0,0.3-0.1,0.4-0.2
			c0.3-0.3,0.5-0.7,0.8-1c0.2-0.2,0.2-0.5,0-0.7C34.3,63.1,34,63.1,33.8,63.3z"/>
		<path class="st0" d="M40.9,58.6c-0.1-0.2-0.4-0.4-0.6-0.2c-0.4,0.2-0.8,0.4-1.2,0.6c-0.2,0.1-0.3,0.4-0.2,0.6
			c0.1,0.2,0.3,0.2,0.4,0.2c0.1,0,0.2,0,0.2-0.1c0.4-0.2,0.8-0.4,1.1-0.6C40.9,59.1,41,58.8,40.9,58.6z"/>
		<path class="st0" d="M28.9,71.8c0.1,0,0.1,0,0.2,0c0.2,0,0.3-0.1,0.4-0.3c0.2-0.4,0.4-0.8,0.6-1.2c0.1-0.2,0-0.5-0.2-0.6
			c-0.2-0.1-0.5,0-0.6,0.2c-0.2,0.4-0.4,0.8-0.6,1.2C28.6,71.4,28.7,71.7,28.9,71.8z"/>
		<path class="st0" d="M62.4,102.4c-0.2-0.2-0.5-0.2-0.7,0c-0.3,0.3-0.6,0.6-0.9,0.9c-0.2,0.2-0.2,0.5,0,0.7
			c0.1,0.1,0.2,0.1,0.3,0.1c0.1,0,0.2,0,0.3-0.1c0.3-0.3,0.6-0.6,0.9-1C62.6,102.9,62.6,102.6,62.4,102.4z"/>
		<path class="st0" d="M64,99.3c-0.2,0.4-0.4,0.8-0.7,1.1c-0.1,0.2-0.1,0.5,0.1,0.7c0.1,0.1,0.2,0.1,0.3,0.1c0.2,0,0.3-0.1,0.4-0.2
			c0.2-0.4,0.5-0.8,0.7-1.2c0.1-0.2,0-0.5-0.2-0.6C64.4,99,64.1,99.1,64,99.3z"/>
		<path class="st0" d="M59.1,116.1c-0.1-0.2-0.4-0.3-0.6-0.2c-0.2,0.1-0.3,0.4-0.2,0.6c0.2,0.4,0.4,0.8,0.6,1.2
			c0.1,0.2,0.3,0.3,0.4,0.3c0.1,0,0.1,0,0.2-0.1c0.2-0.1,0.3-0.4,0.2-0.6C59.5,116.9,59.3,116.5,59.1,116.1z"/>
		<path class="st0" d="M65.3,97.6c0.1,0,0.1,0,0.2,0c0.2,0,0.4-0.1,0.4-0.3c0.2-0.4,0.3-0.8,0.4-1.3c0.1-0.2-0.1-0.5-0.3-0.6
			c-0.2-0.1-0.5,0.1-0.6,0.3c-0.1,0.4-0.3,0.8-0.4,1.2C65,97.2,65.1,97.5,65.3,97.6z"/>
		<path class="st0" d="M56.8,110.5c0.3,0,0.5-0.2,0.5-0.5c0-0.4,0.1-0.8,0.2-1.2c0.1-0.3-0.1-0.5-0.3-0.6c-0.3-0.1-0.5,0.1-0.6,0.3
			c-0.1,0.4-0.2,0.9-0.2,1.4C56.3,110.3,56.5,110.5,56.8,110.5C56.8,110.5,56.8,110.5,56.8,110.5z"/>
		<path class="st0" d="M57.6,114.4c0.1,0,0.1,0,0.2,0c0.2-0.1,0.4-0.4,0.3-0.6c-0.2-0.4-0.3-0.8-0.4-1.2c-0.1-0.2-0.3-0.4-0.6-0.3
			c-0.3,0.1-0.4,0.3-0.3,0.6c0.1,0.4,0.3,0.9,0.4,1.3C57.2,114.3,57.4,114.4,57.6,114.4z"/>
		<path class="st0" d="M66.5,93.7c0,0,0.1,0,0.1,0c0.2,0,0.4-0.2,0.5-0.4c0.1-0.4,0.2-0.9,0.3-1.3c0-0.3-0.1-0.5-0.4-0.5
			c-0.3,0-0.5,0.1-0.5,0.4c-0.1,0.4-0.2,0.9-0.2,1.3C66.1,93.4,66.2,93.7,66.5,93.7z"/>
		<path class="st0" d="M58.3,106.9c0.1,0,0.2,0,0.3-0.1c0.1-0.1,0.2-0.2,0.3-0.3l0.6-0.6c0.2-0.2,0.2-0.5,0-0.7
			c-0.2-0.2-0.5-0.2-0.7,0l-0.6,0.6c-0.1,0.1-0.3,0.2-0.4,0.4c-0.2,0.2-0.2,0.5,0,0.7C58,106.9,58.1,106.9,58.3,106.9z"/>
		<path class="st0" d="M77,109.6c0.3-0.1,0.4-0.3,0.4-0.6c-0.1-0.3-0.3-0.4-0.6-0.4c-0.4,0.1-0.9,0.2-1.3,0.3
			c-0.3,0-0.4,0.3-0.4,0.5c0,0.2,0.2,0.4,0.5,0.4c0,0,0.1,0,0.1,0C76.2,109.8,76.6,109.7,77,109.6z"/>
		<path class="st0" d="M61.3,108.8c0.2,0,0.4-0.1,0.4-0.3c0.1-0.2,0-0.5-0.3-0.6c-0.4-0.2-0.8-0.3-1.2-0.5c-0.2-0.1-0.5,0-0.6,0.3
			c-0.1,0.2,0,0.5,0.3,0.6c0.4,0.2,0.8,0.3,1.3,0.5C61.2,108.8,61.2,108.8,61.3,108.8z"/>
		<path class="st0" d="M80.9,108.7c0.3-0.1,0.4-0.3,0.3-0.6c-0.1-0.2-0.3-0.4-0.6-0.3c-0.4,0.1-0.9,0.2-1.3,0.4
			c-0.3,0.1-0.4,0.3-0.3,0.6c0.1,0.2,0.3,0.4,0.5,0.3c0,0,0.1,0,0.1,0C80.1,108.9,80.5,108.8,80.9,108.7z"/>
		<path class="st0" d="M71.2,110c0,0.3,0.2,0.4,0.5,0.4c0,0,0,0,0,0c0.4,0,0.9-0.1,1.3-0.1c0.3,0,0.4-0.3,0.4-0.5
			c0-0.3-0.3-0.4-0.5-0.4c-0.4,0-0.9,0.1-1.3,0.1C71.4,109.5,71.2,109.7,71.2,110z"/>
		<path class="st0" d="M69.1,109.5c-0.4,0-0.9,0-1.3-0.1c-0.2,0-0.5,0.2-0.5,0.4c0,0.3,0.2,0.5,0.4,0.5c0.4,0,0.9,0.1,1.4,0.1
			c0,0,0,0,0,0c0.3,0,0.5-0.2,0.5-0.5C69.5,109.7,69.3,109.5,69.1,109.5z"/>
		<path class="st0" d="M65.2,109c-0.4-0.1-0.9-0.2-1.3-0.3c-0.3-0.1-0.5,0.1-0.6,0.3c-0.1,0.3,0.1,0.5,0.3,0.6
			c0.4,0.1,0.9,0.2,1.3,0.3c0,0,0.1,0,0.1,0c0.2,0,0.4-0.2,0.5-0.4C65.6,109.3,65.4,109.1,65.2,109z"/>
		<path class="st0" d="M71.1,112.9c-0.2-0.4-0.3-0.9-0.5-1.3c-0.1-0.2-0.4-0.3-0.6-0.2c-0.2,0.1-0.3,0.4-0.2,0.6
			c0.2,0.4,0.4,0.8,0.5,1.2c0.1,0.2,0.3,0.3,0.4,0.3c0.1,0,0.1,0,0.2,0C71.1,113.4,71.2,113.1,71.1,112.9z"/>
		<path class="st0" d="M77.5,127.1c-0.4,0.1-0.9,0.2-1.3,0.4c-0.2,0.1-0.4,0.3-0.3,0.6c0.1,0.2,0.3,0.3,0.5,0.3c0,0,0.1,0,0.1,0
			c0.4-0.1,0.8-0.3,1.2-0.3c0.3-0.1,0.4-0.3,0.4-0.6C78,127.2,77.8,127.1,77.5,127.1z"/>
		<path class="st0" d="M81.6,126.9c-0.5,0-0.9-0.1-1.4-0.1c0,0,0,0,0,0c-0.3,0-0.5,0.2-0.5,0.5c0,0.3,0.2,0.5,0.5,0.5
			c0.4,0,0.9,0,1.3,0.1c0,0,0,0,0.1,0c0.2,0,0.4-0.2,0.5-0.4C82.1,127.2,81.9,126.9,81.6,126.9z"/>
		<path class="st0" d="M84.3,127.5c-0.2-0.1-0.5,0-0.6,0.3c-0.1,0.2,0,0.5,0.3,0.6c0.6,0.2,1,0.4,1,0.5c0.1,0,0.2,0.1,0.3,0.1
			c0.1,0,0.2,0,0.2-0.1c0.1-0.1,0.2-0.2,0.2-0.4c0-0.2-0.1-0.3-0.2-0.4C85.4,128,85,127.8,84.3,127.5z"/>
		<path class="st0" d="M72.1,124.2c-0.1-0.2-0.1-0.5-0.2-0.7c0-0.3-0.3-0.4-0.5-0.4c-0.3,0-0.4,0.3-0.4,0.5c0.1,0.3,0.1,0.6,0.2,0.9
			l0.2,0.5c0.1,0.2,0.3,0.3,0.5,0.3c0.1,0,0.1,0,0.2,0c0.2-0.1,0.4-0.4,0.3-0.6L72.1,124.2z"/>
		<path class="st0" d="M71.8,115.5c0-0.3-0.3-0.4-0.5-0.4c-0.3,0-0.4,0.3-0.4,0.5c0.1,0.4,0.1,0.9,0.1,1.3c0,0.3,0.2,0.4,0.5,0.4
			c0,0,0,0,0,0c0.3,0,0.5-0.2,0.4-0.5C71.9,116.5,71.9,116,71.8,115.5z"/>
		<path class="st0" d="M74,127.8c-0.3-0.1-0.5-0.4-0.8-0.7c-0.1-0.2-0.4-0.3-0.7-0.1c-0.2,0.1-0.3,0.4-0.1,0.7
			c0.3,0.5,0.7,0.9,1.2,1.1c0.1,0,0.1,0,0.2,0c0.2,0,0.3-0.1,0.4-0.3C74.3,128.1,74.2,127.9,74,127.8z"/>
		<path class="st0" d="M71.5,119.1c-0.3,0-0.5,0.2-0.5,0.4l-0.1,1.3c0,0.3,0.2,0.5,0.4,0.5c0,0,0,0,0,0c0.2,0,0.4-0.2,0.5-0.4
			l0.1-1.3C72,119.4,71.8,119.1,71.5,119.1z"/>
		<path class="st0" d="M84.6,114.9c-0.2-0.1-0.5,0-0.6,0.3l-0.4,1.3c-0.1,0.2,0,0.5,0.3,0.6c0.1,0,0.1,0,0.2,0
			c0.2,0,0.4-0.1,0.4-0.3l0.4-1.3C85,115.3,84.9,115,84.6,114.9z"/>
		<path class="st0" d="M84.7,123.3c0.2,0,0.4-0.1,0.4-0.3c0.1-0.2-0.1-0.5-0.3-0.6c-0.5-0.2-1-0.3-1.3-0.4c-0.3-0.1-0.5,0.1-0.6,0.3
			c-0.1,0.3,0.1,0.5,0.3,0.6c0.3,0.1,0.8,0.2,1.3,0.3C84.6,123.3,84.6,123.3,84.7,123.3z"/>
		<path class="st0" d="M83.1,120.4c0-0.1,0-0.2,0.1-0.2c0.1-0.1,0.2-0.5,0.4-1c0.1-0.2,0-0.5-0.3-0.6c-0.2-0.1-0.5,0-0.6,0.3
			c-0.2,0.4-0.3,0.8-0.4,0.9c-0.1,0.1-0.1,0.3-0.1,0.4c0,0.3,0.1,0.5,0.4,0.6c0,0,0.1,0,0.1,0C82.9,120.8,83.1,120.7,83.1,120.4z"/>
		<path class="st0" d="M87.4,123.4c-0.2-0.1-0.5,0-0.6,0.2c-0.1,0.2,0,0.5,0.2,0.6c0.4,0.2,0.8,0.4,1.1,0.6c0.1,0.1,0.2,0.1,0.3,0.1
			c0.1,0,0.3-0.1,0.4-0.2c0.1-0.2,0.1-0.5-0.1-0.7C88.2,123.9,87.8,123.6,87.4,123.4z"/>
		<path class="st0" d="M94.4,124c-0.1-0.2-0.4-0.3-0.7-0.1c-0.2,0.1-0.3,0.4-0.1,0.7c0.3,0.4,0.5,0.8,0.7,1.1
			c0.1,0.1,0.2,0.2,0.4,0.2c0.1,0,0.2,0,0.2-0.1c0.2-0.1,0.3-0.4,0.1-0.7C94.9,124.7,94.7,124.4,94.4,124z"/>
		<path class="st0" d="M85.4,113.2C85.5,113.2,85.5,113.2,85.4,113.2c0.3-0.1,0.5-0.3,0.5-0.6c-0.1-0.4-0.1-0.7-0.2-1l0-0.3
			c0-0.3-0.3-0.4-0.5-0.4c-0.3,0-0.4,0.3-0.4,0.5l0,0.3c0.1,0.3,0.1,0.7,0.2,1.1C85,113,85.2,113.2,85.4,113.2z"/>
		<path class="st0" d="M91.9,120.8c-0.2-0.2-0.5-0.2-0.7,0c-0.2,0.2-0.2,0.5,0,0.7c0.3,0.3,0.6,0.7,0.8,1c0.1,0.1,0.2,0.2,0.4,0.2
			c0.1,0,0.2,0,0.3-0.1c0.2-0.2,0.2-0.5,0.1-0.7C92.6,121.5,92.3,121.1,91.9,120.8z"/>
		<path class="st0" d="M96.6,127.3c-0.2-0.2-0.5-0.2-0.7-0.1c-0.2,0.2-0.2,0.5-0.1,0.7c0.3,0.4,0.6,0.7,1,1c0.1,0.1,0.2,0.1,0.3,0.1
			c0.1,0,0.3-0.1,0.3-0.2c0.2-0.2,0.2-0.5,0-0.7C97.2,127.9,96.9,127.6,96.6,127.3z"/>
		<path class="st0" d="M86.1,114.8c-0.2,0.1-0.3,0.4-0.2,0.6c0.2,0.4,0.5,0.8,0.7,1.2c0.1,0.1,0.2,0.2,0.4,0.2c0.1,0,0.2,0,0.3-0.1
			c0.2-0.2,0.3-0.4,0.1-0.7c-0.3-0.4-0.5-0.7-0.7-1.1C86.6,114.7,86.3,114.7,86.1,114.8z"/>
		<path class="st0" d="M89.1,118c-0.2-0.2-0.5-0.2-0.7,0c-0.2,0.2-0.2,0.5,0,0.7c0.3,0.3,0.6,0.6,1,0.9c0.1,0.1,0.2,0.1,0.3,0.1
			c0.1,0,0.3-0.1,0.3-0.2c0.2-0.2,0.2-0.5,0-0.7C89.7,118.6,89.4,118.3,89.1,118z"/>
		<path class="st0" d="M80,100.5c-0.3,0-0.5,0.2-0.5,0.5l0,0.3c0,0.4,0,0.8,0.1,1.2c0,0.2,0.2,0.4,0.5,0.4c0,0,0.1,0,0.1,0
			c0.3,0,0.4-0.3,0.4-0.6c-0.1-0.3-0.1-0.7-0.1-1l0-0.2C80.5,100.7,80.3,100.5,80,100.5z"/>
		<path class="st0" d="M82.3,105.5c-0.3-0.3-0.5-0.7-0.7-1c-0.1-0.2-0.4-0.3-0.7-0.1c-0.2,0.1-0.3,0.4-0.1,0.7
			c0.2,0.4,0.5,0.8,0.8,1.1c0.1,0.1,0.2,0.2,0.4,0.2c0.1,0,0.2,0,0.3-0.1C82.4,106,82.4,105.7,82.3,105.5z"/>
		<path class="st0" d="M100.8,129.6c-0.4,0-0.8-0.1-1.2-0.2c-0.3-0.1-0.5,0.1-0.6,0.3c-0.1,0.3,0.1,0.5,0.3,0.6
			c0.4,0.1,0.9,0.2,1.4,0.3c0,0,0,0,0.1,0c0.2,0,0.4-0.2,0.5-0.4C101.2,129.8,101,129.6,100.8,129.6z"/>
		<path class="st0" d="M104.6,129.4c-0.5,0.1-0.9,0.1-1.3,0.2c-0.3,0-0.5,0.3-0.4,0.5c0,0.2,0.2,0.4,0.5,0.4c0,0,0,0,0,0
			c0.4,0,0.9-0.1,1.3-0.2c0.3,0,0.4-0.3,0.4-0.5C105.1,129.5,104.9,129.4,104.6,129.4z"/>
		<path class="st0" d="M83.4,108.1c0.3,0.3,0.5,0.7,0.7,1c0.1,0.2,0.3,0.3,0.4,0.3c0.1,0,0.1,0,0.2-0.1c0.2-0.1,0.3-0.4,0.2-0.6
			c-0.2-0.4-0.5-0.8-0.8-1.2c-0.2-0.2-0.5-0.2-0.7-0.1C83.2,107.6,83.2,107.9,83.4,108.1z"/>
		<path class="st0" d="M80.4,98.8c0,0,0.1,0,0.1,0c0.2,0,0.4-0.1,0.4-0.3c0.1-0.3,0.2-0.5,0.2-0.8l0.1-0.5c0.1-0.2-0.1-0.5-0.3-0.6
			c-0.2-0.1-0.5,0.1-0.6,0.3l-0.1,0.5c-0.1,0.3-0.2,0.5-0.3,0.8C80,98.5,80.1,98.8,80.4,98.8z"/>
		<path class="st0" d="M100.6,108.5c0.1,0,0.1,0,0.2,0c0.2,0,0.4-0.1,0.4-0.3c0.1-0.3,0.4-0.6,0.7-0.9c0.2-0.2,0.2-0.5,0-0.7
			c-0.2-0.2-0.5-0.2-0.7,0c-0.4,0.4-0.7,0.8-0.9,1.2C100.3,108.1,100.4,108.3,100.6,108.5z"/>
		<path class="st0" d="M114.4,124.5c-0.1-0.2-0.4-0.3-0.7-0.1c-0.2,0.1-0.3,0.4-0.1,0.7c0.3,0.4,0.5,0.8,0.7,1.1
			c0.1,0.2,0.3,0.2,0.4,0.2c0.1,0,0.2,0,0.2-0.1c0.2-0.1,0.3-0.4,0.2-0.6C115,125.4,114.8,125,114.4,124.5z"/>
		<path class="st0" d="M106.3,117.5c-0.4-0.2-0.7-0.5-1.1-0.8c-0.2-0.2-0.5-0.1-0.7,0.1c-0.2,0.2-0.1,0.5,0.1,0.7
			c0.4,0.3,0.7,0.5,1.1,0.8c0.1,0.1,0.2,0.1,0.3,0.1c0.1,0,0.3-0.1,0.4-0.2C106.6,118,106.5,117.7,106.3,117.5z"/>
		<path class="st0" d="M103.4,115.7c0.2-0.2,0.2-0.5,0-0.7c-0.3-0.3-0.5-0.7-0.8-1c-0.1-0.2-0.4-0.3-0.7-0.1
			c-0.2,0.1-0.3,0.4-0.1,0.7c0.3,0.4,0.5,0.8,0.8,1.1c0.1,0.1,0.2,0.2,0.4,0.2C103.2,115.8,103.3,115.8,103.4,115.7z"/>
		<path class="st0" d="M111.8,121.4c-0.2-0.2-0.5-0.2-0.7,0c-0.2,0.2-0.2,0.5,0,0.7c0.3,0.3,0.6,0.6,0.9,0.9
			c0.1,0.1,0.2,0.2,0.4,0.2c0.1,0,0.2,0,0.3-0.1c0.2-0.2,0.2-0.5,0-0.7C112.5,122,112.2,121.7,111.8,121.4z"/>
		<path class="st0" d="M101.4,111.1c-0.1-0.2-0.1-0.4-0.1-0.6c-0.1-0.3-0.3-0.4-0.6-0.4c-0.3,0.1-0.4,0.3-0.4,0.6
			c0,0.2,0.1,0.4,0.2,0.6c0.1,0.2,0.1,0.5,0.2,0.7c0.1,0.2,0.3,0.3,0.5,0.3c0,0,0.1,0,0.1,0c0.2-0.1,0.4-0.4,0.3-0.6
			C101.5,111.6,101.4,111.3,101.4,111.1z"/>
		<path class="st0" d="M109.5,120.5c0.1,0,0.3-0.1,0.4-0.2c0.1-0.2,0.1-0.5-0.1-0.7c-0.2-0.2-0.5-0.3-0.7-0.5l-0.4-0.3
			c-0.2-0.1-0.5-0.1-0.6,0.2c-0.1,0.2-0.1,0.5,0.2,0.6l0.4,0.3c0.2,0.1,0.5,0.3,0.7,0.4C109.3,120.5,109.4,120.5,109.5,120.5z"/>
		<path class="st0" d="M46.5,49.1c-0.3,0.2-0.7,0.4-1.1,0.8c-0.2,0.2-0.3,0.5-0.1,0.7c0.1,0.1,0.2,0.2,0.4,0.2c0.1,0,0.2,0,0.3-0.1
			c0.4-0.3,0.8-0.6,1.1-0.7c0.2-0.1,0.3-0.4,0.1-0.7C47.1,49,46.8,48.9,46.5,49.1z"/>
		<path class="st0" d="M120,77c0.1,0.1,0.2,0.1,0.3,0.1c0.1,0,0.2,0,0.3-0.1c0.2-0.2,0.2-0.5,0-0.7c-0.3-0.3-0.6-0.6-0.9-1
			c-0.2-0.2-0.5-0.2-0.7,0c-0.2,0.2-0.2,0.5,0,0.7C119.4,76.4,119.7,76.7,120,77z"/>
		<path class="st0" d="M105.9,67.8c0.4,0.1,0.8,0.3,1.3,0.4c0.1,0,0.1,0,0.2,0c0.2,0,0.4-0.1,0.4-0.3c0.1-0.2,0-0.5-0.3-0.6
			c-0.4-0.1-0.8-0.3-1.3-0.4c-0.2-0.1-0.5,0.1-0.6,0.3C105.5,67.5,105.7,67.8,105.9,67.8z"/>
		<path class="st0" d="M122.6,80c0.1,0.1,0.2,0.2,0.4,0.2c0.1,0,0.2,0,0.3-0.1c0.2-0.2,0.2-0.5,0.1-0.7c-0.3-0.3-0.6-0.7-0.9-1
			c-0.2-0.2-0.5-0.2-0.7,0c-0.2,0.2-0.2,0.5,0,0.7C122.1,79.3,122.4,79.6,122.6,80z"/>
		<path class="st0" d="M109.6,69.2c0.2,0.1,0.5,0.2,0.7,0.3l0.5,0.3c0.1,0,0.2,0.1,0.2,0.1c0.2,0,0.3-0.1,0.4-0.2
			c0.1-0.2,0-0.5-0.2-0.6l-0.5-0.3c-0.2-0.1-0.5-0.2-0.7-0.4c-0.2-0.1-0.5,0-0.6,0.2C109.3,68.8,109.4,69.1,109.6,69.2z"/>
		<path class="st0" d="M114.1,71.9c0.1,0.1,0.2,0.1,0.3,0.1c0.1,0,0.3-0.1,0.4-0.2c0.2-0.2,0.1-0.5-0.1-0.7
			c-0.4-0.3-0.7-0.5-1.1-0.8c-0.2-0.1-0.5-0.1-0.7,0.1c-0.1,0.2-0.1,0.5,0.1,0.7C113.4,71.4,113.7,71.6,114.1,71.9z"/>
		<path class="st0" d="M62.6,48.8c0.4,0.1,0.9,0.2,1.3,0.2c0,0,0.1,0,0.1,0c0.2,0,0.4-0.2,0.5-0.4c0-0.3-0.1-0.5-0.4-0.6
			c-0.4-0.1-0.9-0.2-1.3-0.2c-0.3,0-0.5,0.1-0.5,0.4C62.2,48.5,62.3,48.7,62.6,48.8z"/>
		<path class="st0" d="M117.2,74.3c0.1,0.1,0.2,0.1,0.3,0.1c0.1,0,0.3-0.1,0.4-0.2c0.2-0.2,0.1-0.5,0-0.7c-0.3-0.3-0.7-0.6-1-0.9
			c-0.2-0.2-0.5-0.1-0.7,0.1c-0.2,0.2-0.1,0.5,0.1,0.7C116.5,73.7,116.8,74,117.2,74.3z"/>
		<path class="st0" d="M58.7,48.3c0.4,0,0.9,0.1,1.3,0.1c0,0,0,0,0.1,0c0.2,0,0.4-0.2,0.5-0.4c0-0.3-0.2-0.5-0.4-0.5
			c-0.5-0.1-0.9-0.1-1.3-0.1c-0.3,0-0.5,0.2-0.5,0.4C58.2,48,58.4,48.2,58.7,48.3z"/>
		<path class="st0" d="M88.4,58.7c-0.2-0.1-0.5-0.1-0.7,0.1c-0.1,0.2-0.1,0.5,0.1,0.7l1.1,0.7c0.1,0.1,0.2,0.1,0.3,0.1
			c0.2,0,0.3-0.1,0.4-0.2c0.1-0.2,0.1-0.5-0.1-0.7L88.4,58.7z"/>
		<path class="st0" d="M79.1,53.9c0.2,0,0.3-0.1,0.4-0.3c0.1-0.2,0-0.5-0.2-0.6c-0.4-0.2-0.8-0.4-1.2-0.6c-0.2-0.1-0.5,0-0.6,0.2
			c-0.1,0.2,0,0.5,0.2,0.6c0.4,0.2,0.8,0.4,1.2,0.6C79,53.8,79.1,53.9,79.1,53.9z"/>
		<path class="st0" d="M75.5,52.3c0.2,0,0.4-0.1,0.4-0.3c0.1-0.2,0-0.5-0.3-0.6c-0.4-0.2-0.8-0.3-1.3-0.5c-0.2-0.1-0.5,0-0.6,0.3
			c-0.1,0.2,0,0.5,0.3,0.6c0.4,0.1,0.8,0.3,1.2,0.5C75.4,52.3,75.4,52.3,75.5,52.3z"/>
		<path class="st0" d="M56.1,48.1c0.3,0,0.5-0.2,0.5-0.5c0-0.3-0.2-0.5-0.5-0.5c-0.5,0-0.9,0-1.4,0c-0.3,0-0.5,0.2-0.5,0.5
			c0,0.3,0.2,0.5,0.5,0.5C55.2,48.1,55.6,48.1,56.1,48.1C56.1,48.1,56.1,48.1,56.1,48.1z"/>
		<path class="st0" d="M92.8,61.6l-1.1-0.7c-0.2-0.1-0.5-0.1-0.7,0.1c-0.1,0.2-0.1,0.5,0.1,0.7l1.1,0.7c0.1,0.1,0.2,0.1,0.3,0.1
			c0.2,0,0.3-0.1,0.4-0.2C93.1,62,93,61.7,92.8,61.6z"/>
		<path class="st0" d="M70.3,50.6c0.4,0.1,0.8,0.3,1.3,0.4c0,0,0.1,0,0.1,0c0.2,0,0.4-0.1,0.4-0.3c0.1-0.2-0.1-0.5-0.3-0.6
			c-0.4-0.1-0.9-0.3-1.3-0.4c-0.3-0.1-0.5,0.1-0.6,0.3C69.9,50.2,70,50.5,70.3,50.6z"/>
		<path class="st0" d="M82.3,55.8c0.1,0.1,0.2,0.1,0.3,0.1c0.2,0,0.3-0.1,0.4-0.2c0.1-0.2,0.1-0.5-0.1-0.7l-1.1-0.7
			c-0.2-0.1-0.5-0.1-0.7,0.1c-0.1,0.2-0.1,0.5,0.1,0.7L82.3,55.8z"/>
		<path class="st0" d="M96,64.5c0.2,0,0.3-0.1,0.4-0.3c0.1-0.2,0-0.5-0.2-0.6c-0.4-0.2-0.8-0.4-1.2-0.6c-0.2-0.1-0.5,0-0.6,0.2
			c-0.1,0.2,0,0.5,0.2,0.6c0.4,0.2,0.8,0.4,1.2,0.6C95.8,64.5,95.9,64.5,96,64.5z"/>
		<path class="st0" d="M102.1,66.7l1.3,0.4c0,0,0.1,0,0.1,0c0.2,0,0.4-0.1,0.4-0.3c0.1-0.3-0.1-0.5-0.3-0.6l-1.3-0.4
			c-0.2-0.1-0.5,0.1-0.6,0.3C101.7,66.4,101.8,66.6,102.1,66.7z"/>
		<path class="st0" d="M98.3,65.5c0.4,0.1,0.8,0.3,1.3,0.4c0.1,0,0.1,0,0.2,0c0.2,0,0.4-0.1,0.4-0.3c0.1-0.2-0.1-0.5-0.3-0.6
			c-0.4-0.1-0.8-0.3-1.2-0.4c-0.2-0.1-0.5,0-0.6,0.3C97.9,65.1,98,65.4,98.3,65.5z"/>
		<path class="st0" d="M85.6,58c0.1,0.1,0.2,0.1,0.3,0.1c0.2,0,0.3-0.1,0.4-0.2c0.1-0.2,0.1-0.5-0.1-0.7L85,56.5
			c-0.2-0.1-0.5-0.1-0.7,0.1c-0.1,0.2-0.1,0.5,0.1,0.7L85.6,58z"/>
		<path class="st0" d="M66.5,49.6c0.4,0.1,0.9,0.2,1.3,0.3c0,0,0.1,0,0.1,0c0.2,0,0.4-0.1,0.5-0.4c0.1-0.3-0.1-0.5-0.3-0.6
			c-0.4-0.1-0.9-0.2-1.3-0.3c-0.3-0.1-0.5,0.1-0.6,0.4C66.1,49.2,66.2,49.5,66.5,49.6z"/>
		<path class="st0" d="M118.1,97.8c-0.1-0.2-0.4-0.3-0.6-0.2c-0.4,0.2-0.8,0.5-1.2,0.9c-0.2,0.2-0.2,0.5,0,0.7
			c0.1,0.1,0.2,0.2,0.4,0.2c0.1,0,0.2,0,0.3-0.1c0.3-0.3,0.6-0.5,1-0.7C118.2,98.3,118.2,98,118.1,97.8z"/>
		<path class="st0" d="M114.6,100.6c-0.2,0.4-0.5,0.9-0.6,1.3c-0.1,0.2,0,0.5,0.3,0.6c0.1,0,0.1,0,0.2,0c0.2,0,0.4-0.1,0.4-0.3
			c0.1-0.3,0.3-0.7,0.5-1.1c0.1-0.2,0-0.5-0.2-0.6C115,100.3,114.7,100.4,114.6,100.6z"/>
		<path class="st0" d="M126.9,84.2c0.4,0.2,0.7,0.4,1.1,0.7c0.1,0.1,0.2,0.1,0.3,0.1c0.2,0,0.3-0.1,0.4-0.2c0.1-0.2,0.1-0.5-0.1-0.7
			c-0.4-0.3-0.8-0.5-1.2-0.7c-0.2-0.1-0.5,0-0.6,0.2C126.6,83.8,126.7,84.1,126.9,84.2z"/>
		<path class="st0" d="M130.5,86.4C130.5,86.4,130.5,86.4,130.5,86.4l1.4-0.3c0.3-0.1,0.4-0.3,0.4-0.6c-0.1-0.3-0.3-0.4-0.6-0.4
			l-1.3,0.3c-0.3,0.1-0.4,0.3-0.4,0.6C130,86.2,130.2,86.4,130.5,86.4z"/>
		<path class="st0" d="M113.7,77.3c-0.2-0.1-0.5,0-0.6,0.2c-0.1,0.2,0,0.5,0.2,0.6c0.4,0.2,0.8,0.4,1.2,0.6c0.1,0,0.2,0.1,0.2,0.1
			c0.2,0,0.3-0.1,0.4-0.2c0.1-0.2,0-0.5-0.2-0.6C114.5,77.7,114.1,77.5,113.7,77.3z"/>
		<path class="st0" d="M136.1,84.8c-0.1-0.3-0.3-0.4-0.6-0.4l-1.3,0.3c-0.3,0.1-0.4,0.3-0.4,0.6c0,0.2,0.2,0.4,0.5,0.4
			c0,0,0.1,0,0.1,0l1.3-0.3C136,85.3,136.2,85,136.1,84.8z"/>
		<path class="st0" d="M116.5,79.5c-0.2,0.2-0.2,0.5,0,0.7c0.3,0.3,0.6,0.6,0.9,0.9c0.1,0.1,0.2,0.2,0.4,0.2c0.1,0,0.2,0,0.3-0.1
			c0.2-0.2,0.2-0.5,0.1-0.7c-0.3-0.3-0.6-0.7-1-1C116.9,79.3,116.6,79.3,116.5,79.5z"/>
		<path class="st0" d="M109.6,76.9c0.4,0.1,0.9,0.2,1.3,0.4c0,0,0.1,0,0.1,0c0.2,0,0.4-0.1,0.4-0.3c0.1-0.2-0.1-0.5-0.3-0.6
			c-0.4-0.1-0.8-0.3-1.3-0.4c-0.2-0.1-0.5,0.1-0.6,0.3C109.2,76.5,109.3,76.8,109.6,76.9z"/>
		<path class="st0" d="M121.3,82.1c0-0.3-0.2-0.5-0.5-0.4c-0.5,0-1,0.1-1.4,0.2c-0.3,0.1-0.4,0.3-0.3,0.6c0.1,0.2,0.3,0.3,0.5,0.3
			c0,0,0.1,0,0.1,0c0.3-0.1,0.8-0.2,1.2-0.2C121.1,82.5,121.3,82.3,121.3,82.1z"/>
		<path class="st0" d="M123,82.2c-0.1,0.3,0.1,0.5,0.4,0.6c0.4,0.1,0.8,0.2,1.2,0.3c0.1,0,0.1,0,0.2,0c0.2,0,0.4-0.1,0.4-0.3
			c0.1-0.2,0-0.5-0.3-0.6c-0.4-0.2-0.9-0.3-1.3-0.4C123.3,81.8,123,82,123,82.2z"/>
		<path class="st0" d="M133.3,89.4c-0.4,0.4-0.8,0.7-1,0.9c-0.2,0.2-0.2,0.5,0,0.7c0.1,0.1,0.2,0.2,0.4,0.2c0.1,0,0.2,0,0.3-0.1
			c0.2-0.2,0.6-0.5,1-0.9c0.2-0.2,0.2-0.5,0-0.7C133.8,89.3,133.5,89.3,133.3,89.4z"/>
		<path class="st0" d="M136.6,86.5c-0.2-0.1-0.5-0.1-0.6,0.2c-0.1,0.2-0.4,0.6-0.8,1c-0.2,0.2-0.2,0.5,0,0.7
			c0.1,0.1,0.2,0.1,0.3,0.1c0.1,0,0.2-0.1,0.3-0.2c0.4-0.5,0.7-0.8,0.9-1.1C136.9,86.9,136.8,86.6,136.6,86.5z"/>
		<path class="st0" d="M131.9,88c0.1,0.2,0.3,0.3,0.4,0.3c0.1,0,0.1,0,0.2,0c0.4-0.2,0.8-0.4,1.2-0.7c0.2-0.2,0.2-0.5,0.1-0.7
			c-0.2-0.2-0.5-0.2-0.7-0.1c-0.3,0.3-0.7,0.5-1,0.6C131.9,87.5,131.8,87.8,131.9,88z"/>
		<path class="st0" d="M129.8,90.8C129.8,90.8,129.8,90.8,129.8,90.8c0.3,0,0.5-0.3,0.5-0.5c0,0,0-0.1,0-0.1c0-0.3,0.1-0.7,0.2-0.9
			c0.1-0.2,0-0.5-0.2-0.6c-0.2-0.1-0.5,0-0.6,0.2c-0.2,0.4-0.3,0.9-0.3,1.3c0,0.1,0,0.1,0,0.2C129.4,90.6,129.6,90.8,129.8,90.8z"/>
		<path class="st0" d="M130.2,99c-0.3,0.3-0.5,0.5-0.8,0.7c-0.2,0.2-0.3,0.4-0.1,0.7c0.1,0.1,0.2,0.2,0.4,0.2c0.1,0,0.2,0,0.3-0.1
			c0.3-0.2,0.7-0.5,1-0.8c0.2-0.2,0.2-0.5,0-0.7C130.6,98.8,130.4,98.8,130.2,99z"/>
		<path class="st0" d="M132.5,95.8c-0.3-0.1-0.5,0.1-0.6,0.3c-0.1,0.4-0.3,0.8-0.4,1.1c-0.1,0.2,0,0.5,0.2,0.6
			c0.1,0,0.1,0.1,0.2,0.1c0.2,0,0.3-0.1,0.4-0.3c0.2-0.4,0.4-0.9,0.5-1.3C132.9,96.1,132.7,95.8,132.5,95.8z"/>
		<path class="st0" d="M132.3,92.2c-0.3,0.1-0.4,0.3-0.3,0.6c0.1,0.4,0.2,0.8,0.2,1.2c0,0.3,0.2,0.4,0.5,0.4c0,0,0,0,0,0
			c0.3,0,0.5-0.2,0.4-0.5c0-0.5-0.1-1-0.2-1.4C132.8,92.2,132.5,92.1,132.3,92.2z"/>
		<path class="st0" d="M128.9,102.9c0.1,0,0.2,0,0.3-0.1c0.2-0.2,0.2-0.5,0-0.7c-0.2-0.2-0.5-0.6-0.9-1c-0.2-0.2-0.5-0.2-0.7-0.1
			c-0.2,0.2-0.2,0.5-0.1,0.7c0.4,0.4,0.7,0.8,0.9,1C128.7,102.9,128.8,102.9,128.9,102.9z"/>
		<path class="st0" d="M115.9,107.3c-0.4-0.1-0.8-0.2-1.2-0.3l-0.2,0l-0.1,0.5l0,0.5l0.1,0c0.4,0.1,0.7,0.2,1,0.3c0.1,0,0.1,0,0.2,0
			c0.2,0,0.4-0.1,0.4-0.3C116.3,107.7,116.2,107.4,115.9,107.3z"/>
		<path class="st0" d="M126.7,110c-0.3,0.2-0.7,0.3-1.1,0.4c-0.3,0.1-0.4,0.3-0.4,0.6c0,0.2,0.2,0.4,0.5,0.4c0,0,0.1,0,0.1,0
			c0.5-0.1,1-0.3,1.4-0.5c0.2-0.1,0.3-0.4,0.2-0.6C127.2,110,126.9,109.9,126.7,110z"/>
		<path class="st0" d="M123,110.5c-0.4,0-0.8-0.1-1.2-0.2c-0.2-0.1-0.5,0.1-0.6,0.3c-0.1,0.3,0.1,0.5,0.3,0.6
			c0.4,0.1,0.9,0.2,1.4,0.3c0,0,0,0,0.1,0c0.2,0,0.4-0.2,0.5-0.4C123.5,110.8,123.3,110.5,123,110.5z"/>
		<path class="st0" d="M111.8,107.6C111.8,107.6,111.8,107.6,111.8,107.6c0.3,0,0.5-0.2,0.5-0.4c0-0.3-0.2-0.5-0.4-0.5l-0.3,0
			c-0.4,0-0.7,0-1-0.1c-0.3,0-0.5,0.2-0.5,0.4c0,0.3,0.2,0.5,0.4,0.5c0.3,0,0.7,0.1,1.1,0.1L111.8,107.6z"/>
		<path class="st0" d="M119.5,109.2c-0.3-0.2-0.6-0.4-0.9-0.5l-0.2-0.2c-0.2-0.1-0.5-0.1-0.6,0.2c-0.1,0.2-0.1,0.5,0.2,0.6l0.2,0.2
			c0.3,0.2,0.6,0.4,0.9,0.5c0.1,0,0.2,0.1,0.2,0.1c0.2,0,0.3-0.1,0.4-0.2C119.8,109.7,119.7,109.4,119.5,109.2z"/>
		<path class="st0" d="M129.6,107c-0.2-0.1-0.5,0-0.6,0.2c-0.1,0.1-0.2,0.3-0.3,0.5c-0.1,0.2-0.2,0.4-0.4,0.7
			c-0.1,0.2-0.1,0.5,0.2,0.6c0.1,0,0.2,0.1,0.2,0.1c0.2,0,0.3-0.1,0.4-0.2c0.1-0.3,0.3-0.5,0.4-0.7c0.1-0.2,0.2-0.3,0.2-0.4
			C129.9,107.4,129.8,107.2,129.6,107z"/>
		<path class="st0" d="M107.1,105.4c-0.2-0.2-0.5-0.1-0.7,0.1c-0.2,0.2-0.1,0.5,0.1,0.7c0.4,0.3,0.8,0.5,1.2,0.7c0.1,0,0.1,0,0.2,0
			c0.2,0,0.4-0.1,0.4-0.3c0.1-0.2,0-0.5-0.2-0.6C107.7,105.9,107.4,105.7,107.1,105.4z"/>
		<path class="st0" d="M129.9,104.2c-0.6-0.1-1.1-0.1-1.1,0.4c-0.1,0.5,0.3,1,0.9,1.1c0.6,0.1,1.1-0.2,1.2-0.7
			C130.9,104.6,130.5,104.3,129.9,104.2z"/>
		<path class="st0" d="M119.6,94L119.6,94c-0.1-0.3-0.4-0.5-0.7-0.4c-0.2,0.1-0.4,0.4-0.3,0.6l0,0.1c0.1,0.4,0.3,0.8,0.7,1.2
			c0.1,0.1,0.2,0.2,0.4,0.2c0.1,0,0.2,0,0.3-0.1c0.2-0.2,0.2-0.5,0-0.7C119.8,94.6,119.7,94.3,119.6,94z"/>
		<path class="st0" d="M117.2,92.8c0.2,0,0.4-0.1,0.4-0.3c0.1-0.2-0.1-0.5-0.3-0.6c-0.4-0.1-0.9-0.2-1.4-0.3c-0.3,0-0.5,0.2-0.5,0.4
			c0,0.3,0.2,0.5,0.4,0.5c0.4,0,0.9,0.1,1.2,0.2C117.1,92.8,117.2,92.8,117.2,92.8z"/>
		<path class="st0" d="M125.4,96.3C125.4,96.3,125.4,96.3,125.4,96.3c0.3-0.1,0.5-0.3,0.5-0.6c-0.1-0.6-0.2-1.1-0.2-1.2
			c0-0.2-0.2-0.4-0.5-0.4c-0.3,0-0.5,0.2-0.5,0.5c0,0,0,0.1,0,0.1c0,0.1,0.1,0.6,0.2,1.3C124.9,96.1,125.1,96.3,125.4,96.3z"/>
		<path class="st0" d="M125.6,98.5c0.2,0.5,0.4,0.9,0.6,1.3c0.1,0.1,0.2,0.2,0.4,0.2c0.1,0,0.2,0,0.3-0.1c0.2-0.1,0.3-0.4,0.1-0.7
			c-0.2-0.3-0.4-0.7-0.5-1.1c-0.1-0.2-0.4-0.4-0.6-0.3C125.6,98,125.5,98.3,125.6,98.5z"/>
		<path class="st0" d="M117.3,95.5c0.1,0,0.1,0,0.2,0c0.2,0,0.4-0.1,0.4-0.3c0.1-0.2,0-0.5-0.3-0.6c-0.1,0-0.4-0.2-1-0.7
			c-0.2-0.2-0.5-0.1-0.7,0.1c-0.2,0.2-0.1,0.5,0.1,0.7C116.6,95.1,117,95.3,117.3,95.5z"/>
		<path class="st0" d="M123.2,104.8c-0.6,0.1-1,0.4-1.4,0.7c-0.2,0.2-0.2,0.5-0.1,0.7c0.1,0.1,0.2,0.2,0.4,0.2c0.1,0,0.2,0,0.3-0.1
			c0.3-0.3,0.6-0.4,1-0.5c0.3-0.1,0.4-0.3,0.4-0.6C123.7,104.9,123.5,104.8,123.2,104.8z"/>
		<path class="st0" d="M119.8,106.7c-0.4,0.1-0.8,0.1-1.2,0.1c-0.3,0-0.5,0.2-0.5,0.5c0,0.3,0.2,0.5,0.5,0.5c0,0,0,0,0,0
			c0.5,0,1-0.1,1.4-0.2c0.3-0.1,0.4-0.3,0.4-0.6C120.3,106.8,120,106.6,119.8,106.7z"/>
		<path class="st0" d="M127.9,96.3c-0.1,0.3,0.1,0.5,0.4,0.6c0.2,0,0.4,0.1,0.6,0.1c0.3,0,0.7-0.1,1-0.2c0.2-0.1,0.4-0.4,0.3-0.6
			c-0.1-0.2-0.4-0.4-0.6-0.3c-0.3,0.1-0.7,0.2-1,0.1C128.2,95.9,128,96.1,127.9,96.3z"/>
		<path class="st0" d="M126.7,107.3c-0.2,0.1-0.6,0.1-1,0.1c-0.3,0-0.5,0.1-0.5,0.4c0,0.3,0.1,0.5,0.4,0.5c0.2,0,0.4,0,0.6,0
			c0.4,0,0.7-0.1,1-0.3c0.2-0.1,0.3-0.4,0.1-0.7C127.2,107.3,126.9,107.2,126.7,107.3z"/>
		<path class="st0" d="M109.5,80c0,0.3,0.2,0.5,0.5,0.5c0.3,0,0.5-0.2,0.5-0.5c0-0.5-0.1-0.9-0.3-1.4c-0.1-0.2-0.4-0.4-0.6-0.3
			c-0.2,0.1-0.4,0.4-0.3,0.6C109.4,79.3,109.5,79.6,109.5,80z"/>
		<path class="st0" d="M114.9,82.6c0.3,0.4,0.6,0.8,0.7,1.1c0.1,0.1,0.2,0.2,0.4,0.2c0.1,0,0.2,0,0.2-0.1c0.2-0.1,0.3-0.4,0.1-0.7
			c-0.2-0.3-0.4-0.7-0.8-1.1c-0.2-0.2-0.4-0.3-0.7-0.1C114.8,82.1,114.8,82.4,114.9,82.6z"/>
		<path class="st0" d="M113.2,80.7c0.1,0.1,0.2,0.1,0.3,0.1c0.1,0,0.2-0.1,0.3-0.1c0.2-0.2,0.2-0.5,0-0.7c-0.4-0.3-0.7-0.6-1.1-0.9
			c-0.2-0.1-0.5-0.1-0.7,0.1c-0.2,0.2-0.1,0.5,0.1,0.7C112.6,80.1,112.9,80.4,113.2,80.7z"/>
		<path class="st0" d="M5.2,14.6c-0.1-0.4-0.2-0.9-0.2-1.3c0-0.3-0.3-0.4-0.5-0.4c-0.3,0-0.4,0.3-0.4,0.5c0.1,0.4,0.1,0.9,0.2,1.3
			c0,0.2,0.2,0.4,0.5,0.4c0,0,0.1,0,0.1,0C5,15.1,5.2,14.8,5.2,14.6z"/>
		<path class="st0" d="M8.1,21.7l-0.1-0.2c-0.2-0.3-0.4-0.7-0.6-1c-0.1-0.2-0.4-0.3-0.6-0.2c-0.2,0.1-0.3,0.4-0.2,0.6
			c0.2,0.3,0.4,0.7,0.6,1l0.1,0.2c0.1,0.1,0.2,0.2,0.4,0.2c0.1,0,0.2,0,0.2-0.1C8.2,22.2,8.3,22,8.1,21.7z"/>
		<path class="st0" d="M4.3,11.2C4.3,11.2,4.3,11.2,4.3,11.2c0.3,0,0.5-0.2,0.5-0.5c0-0.4,0-0.9,0.1-1.3c0-0.3-0.2-0.5-0.4-0.5
			c-0.3,0-0.5,0.2-0.5,0.4c0,0.4-0.1,0.9-0.1,1.4C3.8,11,4,11.2,4.3,11.2z"/>
		<path class="st0" d="M20.3,31.2c0,0,0.1,0,0.1,0c0.2,0,0.4-0.1,0.4-0.3c0.1-0.3-0.1-0.5-0.3-0.6c-0.4-0.1-0.8-0.2-1.3-0.4
			c-0.2-0.1-0.5,0.1-0.6,0.3c-0.1,0.2,0.1,0.5,0.3,0.6C19.5,31,19.9,31.1,20.3,31.2z"/>
		<path class="st0" d="M38.8,20.3c0.1,0.1,0.2,0.3,0.3,0.4c0.1,0.1,0.2,0.2,0.4,0.2c0.1,0,0.2,0,0.2-0.1c0.2-0.1,0.3-0.4,0.2-0.7
			c-0.1-0.2-0.2-0.3-0.3-0.5c-0.2-0.2-0.3-0.4-0.5-0.7c-0.2-0.2-0.5-0.3-0.7-0.1c-0.2,0.2-0.3,0.4-0.1,0.7
			C38.5,19.8,38.6,20,38.8,20.3z"/>
		<path class="st0" d="M5.3,16.8C5,16.8,4.9,17.1,5,17.4c0.1,0.4,0.3,0.8,0.5,1.3c0.1,0.2,0.3,0.3,0.4,0.3c0.1,0,0.1,0,0.2,0
			c0.2-0.1,0.4-0.4,0.3-0.6C6.2,17.8,6,17.4,5.9,17C5.8,16.8,5.5,16.7,5.3,16.8z"/>
		<path class="st0" d="M33.8,15c0.1,0.1,0.2,0.1,0.3,0.1c0.1,0,0.3-0.1,0.4-0.2c0.2-0.2,0.1-0.5-0.1-0.7c-0.4-0.3-0.7-0.5-1.1-0.8
			c-0.2-0.1-0.5-0.1-0.7,0.1c-0.1,0.2-0.1,0.5,0.1,0.7C33.1,14.5,33.5,14.7,33.8,15z"/>
		<path class="st0" d="M42.9,30.4c0.1,0.4,0.2,0.9,0.3,1.3c0.1,0.2,0.2,0.4,0.5,0.4c0,0,0.1,0,0.1,0c0.3-0.1,0.4-0.3,0.4-0.6
			c-0.1-0.4-0.2-0.9-0.3-1.3c-0.1-0.3-0.3-0.4-0.6-0.3C43,29.9,42.9,30.2,42.9,30.4z"/>
		<path class="st0" d="M34.7,40.5c-0.3,0.1-0.4,0.3-0.3,0.6c0.1,0.4,0.2,0.8,0.3,1.3c0,0.2,0.2,0.4,0.5,0.4c0,0,0.1,0,0.1,0
			c0.3-0.1,0.4-0.3,0.4-0.6c-0.1-0.4-0.2-0.9-0.3-1.3C35.2,40.6,34.9,40.4,34.7,40.5z"/>
		<path class="st0" d="M33.4,38.7c0.1,0.2,0.3,0.3,0.4,0.3c0.1,0,0.1,0,0.2-0.1c0.2-0.1,0.3-0.4,0.2-0.6c-0.2-0.4-0.5-0.8-0.7-1.2
			c-0.1-0.2-0.4-0.3-0.7-0.1c-0.2,0.1-0.3,0.4-0.1,0.7C33,38,33.2,38.3,33.4,38.7z"/>
		<path class="st0" d="M6.1,3.5c0.1,0,0.2,0.1,0.2,0.1c0.2,0,0.3-0.1,0.4-0.2C7,2.9,7.2,2.6,7.4,2.2C7.6,2,7.5,1.7,7.3,1.6
			C7.1,1.4,6.8,1.5,6.6,1.7C6.4,2.1,6.2,2.5,5.9,2.9C5.8,3.1,5.9,3.4,6.1,3.5z"/>
		<path class="st0" d="M29.4,12.2c0.4,0.2,0.8,0.4,1.1,0.6c0.1,0,0.2,0.1,0.2,0.1c0.2,0,0.3-0.1,0.4-0.2c0.1-0.2,0.1-0.5-0.2-0.6
			c-0.4-0.2-0.8-0.4-1.2-0.6c-0.2-0.1-0.5,0-0.6,0.2C29.1,11.8,29.2,12.1,29.4,12.2z"/>
		<path class="st0" d="M30.6,34.2c-0.2-0.1-0.5-0.1-0.7,0.1c-0.1,0.2-0.1,0.5,0.1,0.7l0.3,0.2c0.3,0.2,0.5,0.4,0.8,0.6
			c0.1,0.1,0.2,0.1,0.3,0.1c0.1,0,0.3-0.1,0.4-0.2c0.2-0.2,0.1-0.5,0-0.7c-0.3-0.2-0.5-0.4-0.8-0.6L30.6,34.2z"/>
		<path class="st0" d="M36.8,54.2c0.1,0.2,0.3,0.3,0.4,0.3c0.1,0,0.1,0,0.2,0c0.2-0.1,0.4-0.4,0.3-0.6c-0.2-0.4-0.3-0.8-0.4-1.2
			c-0.1-0.2-0.3-0.4-0.6-0.3c-0.3,0.1-0.4,0.3-0.3,0.6C36.4,53.4,36.6,53.8,36.8,54.2z"/>
		<path class="st0" d="M36.7,17.6c0.1,0.1,0.2,0.2,0.4,0.2c0.1,0,0.2,0,0.3-0.1c0.2-0.2,0.2-0.5,0-0.7c-0.3-0.3-0.6-0.7-1-1
			c-0.2-0.2-0.5-0.2-0.7,0c-0.2,0.2-0.2,0.5,0,0.7C36.1,17,36.4,17.3,36.7,17.6z"/>
		<path class="st0" d="M40.8,24.2c0.1,0.2,0.3,0.3,0.4,0.3c0.1,0,0.1,0,0.2,0c0.2-0.1,0.4-0.4,0.3-0.6c-0.2-0.4-0.4-0.8-0.5-1.2
			c-0.1-0.2-0.4-0.3-0.6-0.2c-0.2,0.1-0.3,0.4-0.2,0.6C40.5,23.4,40.6,23.8,40.8,24.2z"/>
		<path class="st0" d="M35.1,44.9c0.1,0.4,0.1,0.9,0.2,1.3c0,0.2,0.2,0.4,0.5,0.4c0,0,0,0,0,0c0.3,0,0.4-0.3,0.4-0.5
			c-0.1-0.4-0.1-0.9-0.2-1.3c0-0.3-0.3-0.4-0.5-0.4C35.3,44.4,35.1,44.7,35.1,44.9z"/>
		<path class="st0" d="M41.8,26.7c0.1,0.4,0.3,0.8,0.4,1.2c0.1,0.2,0.3,0.3,0.5,0.3c0,0,0.1,0,0.1,0c0.2-0.1,0.4-0.3,0.3-0.6
			c-0.1-0.4-0.3-0.9-0.4-1.3c-0.1-0.2-0.4-0.4-0.6-0.3C41.8,26.1,41.7,26.4,41.8,26.7z"/>
		<path class="st0" d="M36.7,50.1c-0.1-0.4-0.1-0.9-0.2-1.3c0-0.3-0.3-0.4-0.5-0.4c-0.3,0-0.4,0.3-0.4,0.5c0.1,0.5,0.1,0.9,0.2,1.3
			c0,0.2,0.2,0.4,0.5,0.4c0,0,0,0,0.1,0C36.5,50.6,36.7,50.3,36.7,50.1z"/>
		<path class="st0" d="M15.6,28.6c-0.2-0.1-0.5,0-0.6,0.2c-0.1,0.2,0,0.5,0.2,0.6c0.4,0.2,0.8,0.4,1.2,0.5c0.1,0,0.1,0,0.2,0
			c0.2,0,0.4-0.1,0.4-0.3c0.1-0.2,0-0.5-0.3-0.6C16.4,29,16,28.8,15.6,28.6z"/>
		<path class="st0" d="M14.8,5.6c0.4,0.2,0.8,0.5,1.1,0.7c0.1,0,0.2,0.1,0.2,0.1c0.2,0,0.3-0.1,0.4-0.2c0.1-0.2,0.1-0.5-0.2-0.6
			c-0.4-0.2-0.7-0.5-1.1-0.7c-0.2-0.1-0.5-0.1-0.7,0.1C14.6,5.2,14.6,5.5,14.8,5.6z"/>
		<polygon class="st0" points="22.3,8.7 22.3,8.6 22.4,8.3 		"/>
		<path class="st0" d="M23.3,9.6c0.1,0,0.1,0,0.2,0c0.2,0,0.4-0.1,0.4-0.3c0.1-0.2,0-0.5-0.3-0.6l-1.2-0.4l-0.1,0.3l-0.2,0.6
			L23.3,9.6z"/>
		<path class="st0" d="M18.4,7.6c0.4,0.2,0.8,0.4,1.2,0.6c0.1,0,0.1,0,0.2,0c0.2,0,0.4-0.1,0.4-0.3c0.1-0.2,0-0.5-0.2-0.6
			c-0.4-0.2-0.8-0.4-1.2-0.5c-0.2-0.1-0.5,0-0.6,0.2C18,7.2,18.1,7.5,18.4,7.6z"/>
		<path class="st0" d="M43.7,34.3c0,0.4,0.1,0.9,0.1,1.3l0.5,0l0.5,0c0-0.4,0-0.9-0.1-1.3c0-0.3-0.3-0.4-0.5-0.4
			C43.9,33.8,43.7,34,43.7,34.3z"/>
		<path class="st0" d="M4.7,7.2c0,0,0.1,0,0.1,0c0.2,0,0.4-0.1,0.4-0.3c0.1-0.4,0.2-0.8,0.4-1.2c0.1-0.2,0-0.5-0.3-0.6
			C5.1,5,4.9,5.1,4.8,5.3C4.6,5.8,4.5,6.2,4.4,6.6C4.3,6.9,4.4,7.1,4.7,7.2z"/>
		<path class="st0" d="M25.8,10.6c0.4,0.2,0.8,0.3,1.2,0.5c0.1,0,0.1,0,0.2,0c0.2,0,0.3-0.1,0.4-0.3c0.1-0.2,0-0.5-0.2-0.6
			C27,10,26.6,9.8,26.2,9.7c-0.2-0.1-0.5,0-0.6,0.3C25.4,10.2,25.6,10.5,25.8,10.6z"/>
		<path class="st0" d="M26.4,32.6c-0.1,0.2,0,0.5,0.3,0.6c0.4,0.2,0.8,0.3,1.2,0.5c0.1,0,0.1,0,0.2,0c0.2,0,0.3-0.1,0.4-0.3
			c0.1-0.2,0-0.5-0.2-0.6c-0.4-0.2-0.8-0.4-1.2-0.5C26.7,32.2,26.4,32.3,26.4,32.6z"/>
		<path class="st0" d="M12.9,28.2c0.1,0.1,0.2,0.1,0.3,0.1c0.2,0,0.3-0.1,0.4-0.2c0.1-0.2,0.1-0.5-0.1-0.7c-0.4-0.2-0.7-0.5-1-0.8
			c-0.2-0.2-0.5-0.1-0.7,0.1c-0.2,0.2-0.1,0.5,0.1,0.7C12.1,27.6,12.5,27.9,12.9,28.2z"/>
		<path class="st0" d="M9.5,1.7c0.1,0.1,0.2,0.1,0.3,0.1c0.1,0,0.3-0.1,0.4-0.2c0.2-0.2,0.1-0.5-0.1-0.7C9.7,0.7,9.4,0.4,9,0.1
			C8.8-0.1,8.5,0,8.4,0.2C8.2,0.4,8.2,0.7,8.4,0.8C8.8,1.1,9.1,1.4,9.5,1.7z"/>
		<path class="st0" d="M22.6,31.4c-0.1,0.3,0.1,0.5,0.3,0.6c0.4,0.1,0.8,0.2,1.3,0.4c0,0,0.1,0,0.1,0c0.2,0,0.4-0.1,0.4-0.3
			c0.1-0.2-0.1-0.5-0.3-0.6c-0.4-0.1-0.9-0.3-1.3-0.4C22.9,31,22.6,31.1,22.6,31.4z"/>
		<path class="st0" d="M9.6,23.9c-0.2-0.2-0.5-0.2-0.7-0.1c-0.2,0.2-0.2,0.5-0.1,0.7c0.3,0.4,0.6,0.7,0.9,1c0.1,0.1,0.2,0.2,0.4,0.2
			c0.1,0,0.2,0,0.3-0.1c0.2-0.2,0.2-0.5,0-0.7C10.2,24.5,9.9,24.2,9.6,23.9z"/>
		<path class="st0" d="M12.6,4.1c0.1,0.1,0.2,0.1,0.3,0.1c0.1,0,0.3-0.1,0.4-0.2c0.2-0.2,0.1-0.5-0.1-0.7c-0.3-0.3-0.7-0.5-1.1-0.8
			c-0.2-0.2-0.5-0.1-0.7,0.1c-0.2,0.2-0.1,0.5,0.1,0.7C11.9,3.6,12.3,3.9,12.6,4.1z"/>
		<path class="st0" d="M42.2,45.5c0,0.4,0,0.9,0.1,1.3c0,0.3,0.2,0.4,0.5,0.4c0,0,0,0,0,0c0.3,0,0.5-0.2,0.4-0.5
			c0-0.4,0-0.9-0.1-1.3l0,0c0-0.3-0.2-0.5-0.5-0.5S42.2,45.3,42.2,45.5z"/>
		<path class="st0" d="M43,50.9c0.1,0.2,0.3,0.3,0.5,0.3c0,0,0.1,0,0.1,0c0.2-0.1,0.4-0.3,0.3-0.6c-0.1-0.4-0.2-0.8-0.3-1.2
			C43.5,49.1,43.3,49,43,49c-0.3,0.1-0.4,0.3-0.4,0.6C42.8,50,42.9,50.5,43,50.9z"/>
		<path class="st0" d="M42.8,43.3c0.2,0,0.4-0.2,0.5-0.4c0.1-0.5,0.1-0.9,0.2-1.3c0.1-0.3-0.1-0.5-0.4-0.6c-0.3-0.1-0.5,0.1-0.6,0.4
			c-0.1,0.4-0.2,0.9-0.2,1.4C42.3,43.1,42.5,43.3,42.8,43.3C42.8,43.3,42.8,43.3,42.8,43.3z"/>
		<path class="st0" d="M107,128c-0.2-0.2-0.5-0.2-0.7,0c-0.2,0.2-0.1,0.5,0,0.7c0.3,0.3,0.6,0.7,0.8,0.9c0.1,0.1,0.2,0.2,0.4,0.2
			c0.1,0,0.2,0,0.3-0.1c0.2-0.1,0.3-0.4,0.1-0.7C107.8,128.8,107.4,128.4,107,128z"/>
		<path class="st0" d="M86.2,125.5c-0.2-0.1-0.5,0-0.6,0.3c-0.1,0.2,0,0.5,0.3,0.6c0.4,0.2,0.8,0.4,1,0.6c0.1,0.1,0.2,0.1,0.3,0.1
			c0.1,0,0.3-0.1,0.4-0.2c0.2-0.2,0.1-0.5-0.1-0.7C87.1,126,86.6,125.7,86.2,125.5z"/>
		<path class="st0" d="M109.5,126.9c-0.2-0.2-0.5-0.1-0.7,0.1c-0.2,0.2-0.1,0.5,0.1,0.7c0.3,0.3,0.5,0.6,0.7,0.9
			c0.1,0.2,0.3,0.3,0.4,0.3c0.1,0,0.1,0,0.2,0c0.2-0.1,0.3-0.4,0.2-0.6C110.2,127.7,109.9,127.3,109.5,126.9z"/>
		<path class="st0" d="M111.9,125.8c-0.2-0.2-0.5-0.2-0.7,0c-0.2,0.2-0.2,0.5,0,0.7c0.3,0.2,0.5,0.6,0.7,0.9
			c0.1,0.1,0.2,0.2,0.4,0.2c0.1,0,0.2,0,0.2-0.1c0.2-0.1,0.3-0.4,0.2-0.7C112.5,126.5,112.2,126.1,111.9,125.8z"/>
		<path class="st0" d="M64.4,124c0.1,0,0.3-0.1,0.4-0.2c0.2-0.2,0.1-0.5-0.1-0.7c-0.4-0.3-0.8-0.6-1.2-0.8c-0.2-0.1-0.5,0-0.6,0.2
			c-0.1,0.2,0,0.5,0.2,0.6c0.4,0.2,0.7,0.4,1,0.7C64.2,123.9,64.3,124,64.4,124z"/>
		<path class="st0" d="M66.6,125.1c-0.2-0.2-0.5-0.3-0.7-0.1c-0.2,0.2-0.3,0.5-0.1,0.7c0.2,0.3,0.5,0.7,0.7,1.1
			c0.1,0.2,0.3,0.2,0.4,0.2c0.1,0,0.2,0,0.2-0.1c0.2-0.1,0.3-0.4,0.2-0.6C67.1,125.9,66.8,125.5,66.6,125.1z"/>
		<path class="st0" d="M61.6,127.6c-0.2-0.2-0.5-0.2-0.7,0c-0.2,0.2-0.2,0.5,0,0.7c0.3,0.3,0.5,0.6,0.6,0.9c0.1,0.2,0.3,0.3,0.4,0.3
			c0.1,0,0.1,0,0.2,0c0.2-0.1,0.4-0.4,0.3-0.6C62.3,128.4,62,128,61.6,127.6z"/>
		<path class="st0" d="M64.1,126.4c-0.2-0.2-0.5-0.2-0.7,0c-0.2,0.2-0.2,0.5,0,0.7c0.2,0.3,0.5,0.6,0.7,1c0.1,0.2,0.3,0.3,0.4,0.3
			c0.1,0,0.1,0,0.2-0.1c0.2-0.1,0.3-0.4,0.2-0.6C64.7,127.1,64.4,126.7,64.1,126.4z"/>
		<path class="st0" d="M18.9,124.1c-0.2-0.2-0.4-0.3-0.7-0.1c-0.2,0.2-0.3,0.4-0.1,0.7c0.3,0.4,0.5,0.7,0.7,1.1
			c0.1,0.2,0.3,0.2,0.4,0.2c0.1,0,0.2,0,0.2-0.1c0.2-0.1,0.3-0.4,0.2-0.6C19.4,124.9,19.2,124.5,18.9,124.1z"/>
		<path class="st0" d="M13.7,126.4c-0.2-0.2-0.5-0.2-0.7,0c-0.2,0.2-0.2,0.5,0,0.7c0.3,0.3,0.5,0.6,0.6,1c0.1,0.2,0.3,0.3,0.5,0.3
			c0,0,0.1,0,0.2,0c0.2-0.1,0.4-0.4,0.3-0.6C14.3,127.2,14.1,126.8,13.7,126.4z"/>
		<path class="st0" d="M16.3,125.3c-0.2-0.2-0.5-0.2-0.7-0.1c-0.2,0.2-0.2,0.5-0.1,0.7c0.2,0.3,0.4,0.6,0.6,1
			c0.1,0.2,0.3,0.3,0.4,0.3c0.1,0,0.1,0,0.2,0c0.2-0.1,0.3-0.4,0.2-0.6C16.8,126,16.6,125.6,16.3,125.3z"/>
		<path class="st0" d="M104.5,89c-0.4,0.1-0.9,0.2-1.3,0.4c-0.2,0.1-0.4,0.3-0.3,0.6c0.1,0.2,0.3,0.3,0.5,0.3c0,0,0.1,0,0.1,0
			c0.5-0.1,0.9-0.3,1.2-0.3c0.3-0.1,0.4-0.3,0.4-0.6C105,89.1,104.7,89,104.5,89z"/>
		<path class="st0" d="M106.3,86.2c0,0,0.1,0,0.1,0c0.4-0.1,0.9-0.2,1.3-0.3c0.3-0.1,0.4-0.3,0.4-0.6c-0.1-0.3-0.3-0.4-0.6-0.4
			c-0.4,0.1-0.9,0.2-1.3,0.3c-0.3,0.1-0.4,0.3-0.3,0.6C105.9,86.1,106.1,86.2,106.3,86.2z"/>
		<path class="st0" d="M111.1,84.5l-0.2,0c-0.2,0-0.4,0-0.8,0c-0.3,0-0.5,0.2-0.4,0.5c0,0.2,0.2,0.4,0.5,0.4c0,0,0,0,0,0
			c0.4,0,0.6,0,0.8,0l0.1,0c0.2,0,0.5-0.2,0.5-0.5C111.6,84.7,111.4,84.5,111.1,84.5z"/>
		<path class="st0" d="M100.3,95.4c0.1,0.1,0.2,0.2,0.4,0.2c0.1,0,0.2,0,0.3-0.1c0.3-0.2,0.7-0.4,1-0.4c0.3,0,0.4-0.3,0.4-0.5
			s-0.3-0.4-0.5-0.4c-0.5,0.1-1,0.3-1.4,0.6C100.2,94.9,100.2,95.1,100.3,95.4z"/>
		<path class="st0" d="M100.2,98.4c0.1,0.1,0.2,0.2,0.4,0.2c0.1,0,0.2,0,0.3-0.1c0.3-0.2,0.7-0.4,1-0.5c0.3-0.1,0.4-0.3,0.4-0.6
			c-0.1-0.3-0.3-0.4-0.6-0.4c-0.5,0.1-0.9,0.3-1.4,0.6C100.1,97.9,100.1,98.2,100.2,98.4z"/>
		<path class="st0" d="M103,100.3c-0.1-0.3-0.3-0.4-0.6-0.4c-0.5,0.1-0.9,0.3-1.4,0.6c-0.2,0.2-0.3,0.4-0.1,0.7
			c0.1,0.1,0.2,0.2,0.4,0.2c0.1,0,0.2,0,0.3-0.1c0.3-0.2,0.7-0.4,1-0.5C102.9,100.8,103,100.6,103,100.3z"/>
		<path class="st0" d="M102.8,103.2c-0.1-0.2-0.3-0.4-0.6-0.3c-0.5,0.1-0.9,0.4-1.3,0.7c-0.2,0.2-0.2,0.5-0.1,0.7
			c0.1,0.1,0.2,0.2,0.4,0.2c0.1,0,0.2,0,0.3-0.1c0.3-0.3,0.6-0.4,1-0.6C102.7,103.7,102.9,103.4,102.8,103.2z"/>
		<path class="st0" d="M107.9,82.5c-0.3,0-1,0-1.4,0.2c-0.2,0.1-0.4,0.3-0.3,0.6c0.1,0.2,0.3,0.3,0.5,0.3c0,0,0.1,0,0.1,0
			c0.4-0.1,1-0.2,1.2-0.2c0.3,0,0.5-0.2,0.5-0.5C108.4,82.7,108.1,82.5,107.9,82.5C107.9,82.5,107.9,82.5,107.9,82.5z"/>
		<path class="st0" d="M102.8,84.6c-0.2,0.1-0.3,0.4-0.2,0.6c0.1,0.2,0.3,0.2,0.4,0.2c0.1,0,0.1,0,0.2-0.1c0.4-0.2,0.9-0.3,1.1-0.4
			c0.3-0.1,0.4-0.3,0.4-0.6c-0.1-0.3-0.3-0.4-0.6-0.4C103.9,84.2,103.3,84.3,102.8,84.6z"/>
		<path class="st0" d="M100.3,89c0.1,0.2,0.3,0.2,0.4,0.2c0.1,0,0.1,0,0.2-0.1c0.4-0.2,0.9-0.3,1.1-0.4c0.3-0.1,0.4-0.3,0.4-0.6
			c-0.1-0.3-0.3-0.4-0.6-0.4c-0.3,0.1-0.9,0.2-1.4,0.5C100.3,88.5,100.2,88.8,100.3,89z"/>
		<path class="st0" d="M103.4,105.9c0.1,0,0.2,0,0.3-0.1c0.3-0.2,0.7-0.4,1-0.5c0.3-0.1,0.4-0.3,0.4-0.6c-0.1-0.3-0.3-0.4-0.6-0.4
			c-0.5,0.1-0.9,0.3-1.4,0.6c-0.2,0.2-0.3,0.4-0.1,0.7C103.1,105.8,103.2,105.9,103.4,105.9z"/>
		<path class="st0" d="M101.6,92.8c0.1,0,0.1,0,0.2,0c0.3-0.2,0.7-0.3,1.1-0.3c0.3,0,0.4-0.3,0.4-0.5c0-0.3-0.3-0.4-0.5-0.4
			c-0.5,0.1-1,0.2-1.4,0.4c-0.2,0.1-0.3,0.4-0.2,0.6C101.2,92.7,101.4,92.8,101.6,92.8z"/>
		<path class="st0" d="M98.7,91.6c0.1,0,0.1,0,0.2,0c0.4-0.2,0.8-0.3,1.2-0.5c0.2-0.1,0.4-0.3,0.3-0.6c-0.1-0.2-0.3-0.4-0.6-0.3
			c-0.4,0.1-0.9,0.3-1.3,0.5c-0.2,0.1-0.3,0.4-0.2,0.6C98.4,91.5,98.6,91.6,98.7,91.6z"/>
		<path class="st0" d="M97.7,95.9c-0.5,0.2-0.9,0.4-1.3,0.8c-0.2,0.2-0.2,0.5,0,0.7c0.1,0.1,0.2,0.2,0.4,0.2c0.1,0,0.2,0,0.3-0.1
			c0.3-0.3,0.6-0.5,1-0.6c0.2-0.1,0.4-0.4,0.3-0.6C98.2,95.9,97.9,95.8,97.7,95.9z"/>
		<path class="st0" d="M98.6,99.4c-0.1-0.2-0.4-0.4-0.6-0.3c-0.5,0.2-0.9,0.5-1.3,0.8c-0.2,0.2-0.2,0.5,0,0.7
			c0.1,0.1,0.2,0.1,0.3,0.1c0.1,0,0.2,0,0.3-0.1c0.3-0.3,0.6-0.5,0.9-0.6C98.5,99.9,98.6,99.6,98.6,99.4z"/>
		<path class="st0" d="M99.8,102.1c-0.1-0.2-0.4-0.4-0.6-0.3c-0.5,0.2-0.9,0.5-1.3,0.8c-0.2,0.2-0.2,0.5,0,0.7
			c0.1,0.1,0.2,0.1,0.3,0.1c0.1,0,0.2,0,0.3-0.1c0.3-0.3,0.6-0.5,0.9-0.6C99.8,102.6,99.9,102.3,99.8,102.1z"/>
		<path class="st0" d="M97.4,94.3c0.1,0,0.2,0,0.3-0.1c0.3-0.2,0.7-0.4,1.1-0.5c0.2-0.1,0.4-0.4,0.3-0.6c-0.1-0.2-0.4-0.4-0.6-0.3
			c-0.5,0.2-0.9,0.4-1.3,0.6c-0.2,0.1-0.3,0.4-0.1,0.7C97.1,94.2,97.2,94.3,97.4,94.3z"/>
	</g>
	<g>
		<path class="st1" d="M11,10.1c1.2,0,2.1-1,2-2.2s-1-2.1-2.2-2c-1.2,0-2.1,1-2,2.2C8.8,9.2,9.8,10.1,11,10.1z"/>
		<path class="st1" d="M31.5,19.7c1.2,0,2.1-1,2-2.2c0-1.2-1-2.1-2.2-2c-1.2,0-2.1,1-2,2.2C29.4,18.8,30.4,19.7,31.5,19.7z"/>
		<path class="st1" d="M36.9,33.1c0,1.2,1,2.1,2.2,2c1.2,0,2.1-1,2-2.2c0-1.2-1-2.1-2.2-2C37.8,31,36.9,31.9,36.9,33.1z"/>
		<path class="st1" d="M50.9,50.4c1.2,0,2.1-1,2-2.2c0-1.2-1-2.1-2.2-2c-1.2,0-2.1,1-2,2.2C48.8,49.5,49.7,50.4,50.9,50.4z"/>
		<path class="st1" d="M42.5,67c1.2,0,2.1-1,2-2.2c0-1.2-1-2.1-2.2-2c-1.2,0-2.1,1-2,2.2C40.3,66.2,41.3,67.1,42.5,67z"/>
		<path class="st1" d="M32.6,79.7c0-0.8-0.7-1.4-1.5-1.4c-0.8,0-1.4,0.7-1.4,1.5c0,0.8,0.7,1.4,1.5,1.4C32,81.2,32.6,80.5,32.6,79.7
			z"/>
		<path class="st1" d="M38.3,97.6c-0.8,0-1.4,0.7-1.4,1.5c0,0.8,0.7,1.4,1.5,1.4c0.8,0,1.4-0.7,1.4-1.5
			C39.7,98.2,39.1,97.5,38.3,97.6z"/>
		<path class="st1" d="M10.8,115.5c-0.8,0-1.4,0.7-1.4,1.5c0,0.8,0.7,1.4,1.5,1.4c0.8,0,1.4-0.7,1.4-1.5
			C12.3,116.1,11.6,115.4,10.8,115.5z"/>
		<path class="st1" d="M5.9,120.6c-0.8,0-1.4,0.7-1.4,1.5c0,0.8,0.7,1.4,1.5,1.4c0.8,0,1.4-0.7,1.4-1.5
			C7.4,121.2,6.7,120.5,5.9,120.6z"/>
		<path class="st1" d="M54.9,123c-0.8,0-1.4,0.7-1.4,1.5c0,0.8,0.7,1.4,1.5,1.4c0.8,0,1.4-0.7,1.4-1.5C56.4,123.6,55.7,123,54.9,123
			z"/>
		<path class="st1" d="M60.2,119.9c-0.8,0-1.4,0.7-1.4,1.5c0,0.8,0.7,1.4,1.5,1.4c0.8,0,1.4-0.7,1.4-1.5
			C61.7,120.5,61,119.9,60.2,119.9z"/>
		<path class="st1" d="M101,125.3c-0.8,0-1.4,0.7-1.4,1.5c0,0.8,0.7,1.4,1.5,1.4c0.8,0,1.4-0.7,1.4-1.5S101.8,125.3,101,125.3z"/>
		<path class="st1" d="M106.4,121c-0.8,0-1.4,0.7-1.4,1.5c0,0.8,0.7,1.4,1.5,1.4c0.8,0,1.4-0.7,1.4-1.5
			C107.8,121.6,107.2,120.9,106.4,121z"/>
		<path class="st1" d="M92.7,108.8c0-0.8-0.7-1.4-1.5-1.4c-0.8,0-1.4,0.7-1.4,1.5c0,0.8,0.7,1.4,1.5,1.4
			C92.1,110.2,92.8,109.6,92.7,108.8z"/>
		<path class="st1" d="M90.9,87.5c0.8,0,1.4-0.7,1.4-1.5c0-0.8-0.7-1.4-1.5-1.4c-0.8,0-1.4,0.7-1.4,1.5C89.4,86.9,90,87.5,90.9,87.5
			z"/>
		<path class="st1" d="M101.8,79.1c0.8,0,1.4-0.7,1.4-1.5c0-0.8-0.7-1.4-1.5-1.4c-0.8,0-1.4,0.7-1.4,1.5
			C100.3,78.5,101,79.1,101.8,79.1z"/>
		<path class="st1" d="M123.8,87.8c-0.8,0-1.4,0.7-1.4,1.5c0,0.8,0.7,1.4,1.5,1.4s1.4-0.7,1.4-1.5C125.3,88.4,124.6,87.8,123.8,87.8
			z"/>
		<path class="st1" d="M13.9,10.1l14.2,6.3c0.1,0,0.1,0,0.2,0c0.2,0,0.3-0.1,0.4-0.3c0.1-0.2,0-0.5-0.2-0.6L14.3,9.2
			c-0.2-0.1-0.5,0-0.6,0.2C13.6,9.7,13.7,10,13.9,10.1z"/>
		<path class="st1" d="M33.4,20.5c-0.2,0.1-0.3,0.4-0.2,0.6l3.8,8.8c0.1,0.2,0.3,0.3,0.4,0.3c0.1,0,0.1,0,0.2,0
			c0.2-0.1,0.3-0.4,0.2-0.6L34,20.7C33.9,20.5,33.6,20.4,33.4,20.5z"/>
		<path class="st1" d="M41,36.1l7,9.6c0.1,0.1,0.2,0.2,0.4,0.2c0.1,0,0.2,0,0.3-0.1c0.2-0.2,0.3-0.4,0.1-0.7l-7-9.6
			c-0.2-0.2-0.4-0.3-0.7-0.1C40.9,35.6,40.9,35.9,41,36.1z"/>
		<path class="st1" d="M53.3,50.9L71,61c0.1,0,0.2,0.1,0.2,0.1c0.2,0,0.3-0.1,0.4-0.2c0.1-0.2,0.1-0.5-0.2-0.6L53.8,50
			c-0.2-0.1-0.5-0.1-0.6,0.2C53,50.4,53.1,50.7,53.3,50.9z"/>
		<path class="st1" d="M49.2,50.8c-0.2-0.1-0.5,0-0.6,0.2l-5.2,10.5c-0.1,0.2,0,0.5,0.2,0.6c0.1,0,0.1,0,0.2,0
			c0.2,0,0.3-0.1,0.4-0.3l5.2-10.5C49.5,51.2,49.5,51,49.2,50.8z"/>
		<path class="st1" d="M45.2,67.4l13.5,8.2c0.1,0,0.2,0.1,0.2,0.1c0.2,0,0.3-0.1,0.4-0.2c0.1-0.2,0.1-0.5-0.2-0.6l-13.5-8.2
			c-0.2-0.1-0.5-0.1-0.6,0.2C45,66.9,45,67.2,45.2,67.4z"/>
		<path class="st1" d="M8.8,118.7l-1.2,1.4c-0.1,0.1-0.1,0.2,0,0.3c0,0,0.1,0.1,0.2,0.1c0.1,0,0.1,0,0.2-0.1l1.2-1.4
			c0.1-0.1,0.1-0.2,0-0.3C9,118.6,8.9,118.6,8.8,118.7z"/>
		<path class="st1" d="M29.5,81.8l-17.6,32.6c-0.1,0.1,0,0.3,0.1,0.3c0,0,0.1,0,0.1,0c0.1,0,0.2,0,0.2-0.1l17.6-32.6
			c0.1-0.1,0-0.3-0.1-0.3C29.7,81.7,29.5,81.7,29.5,81.8z"/>
		<path class="st1" d="M37.5,96.8C37.5,96.8,37.5,96.8,37.5,96.8c0.2-0.1,0.3-0.2,0.2-0.3L32.3,82c0-0.1-0.2-0.2-0.3-0.1
			c-0.1,0-0.2,0.2-0.1,0.3l5.4,14.5C37.3,96.7,37.4,96.8,37.5,96.8z"/>
		<path class="st1" d="M40.2,67.6l-7.9,9.9c-0.1,0.1-0.1,0.3,0,0.3c0,0,0.1,0.1,0.2,0.1c0.1,0,0.1,0,0.2-0.1l7.9-9.9
			c0.1-0.1,0.1-0.3,0-0.3C40.5,67.4,40.3,67.5,40.2,67.6z"/>
		<path class="st1" d="M40.1,101C40.1,100.9,40.1,100.9,40.1,101c-0.1,0-0.1-0.1-0.1-0.1c0,0-0.1,0-0.1,0c0,0,0,0-0.1,0c0,0,0,0,0,0
			c0,0,0,0,0,0c0,0,0,0,0,0.1c0,0,0,0,0,0.1c0,0,0,0.1,0,0.1c0,0,0,0,0,0.1l13.8,21.2c0,0.1,0.1,0.1,0.2,0.1c0,0,0.1,0,0.1,0
			c0.1-0.1,0.1-0.2,0.1-0.3l-12.5-19.3l16.8,17c0,0,0.1,0.1,0.2,0.1c0.1,0,0.1,0,0.2-0.1c0.1-0.1,0.1-0.2,0-0.3L40.1,101z"/>
		<path class="st1" d="M88.2,84.9l-21.6-6.3c-0.1,0-0.3,0-0.3,0.2c0,0.1,0,0.3,0.2,0.3l21.6,6.3c0,0,0,0,0.1,0
			c0.1,0,0.2-0.1,0.2-0.2C88.4,85.1,88.4,85,88.2,84.9z"/>
		<path class="st1" d="M90.5,88.8l0.2,17.6c0,0.1,0.1,0.2,0.2,0.2c0.1,0,0.2-0.1,0.2-0.2l-0.2-17.6c0-0.1-0.1-0.2-0.2-0.2
			C90.6,88.5,90.5,88.6,90.5,88.8z"/>
		<path class="st1" d="M92.7,110.9C92.7,110.9,92.7,110.9,92.7,110.9c-0.1,0-0.1,0-0.1,0c0,0-0.1,0-0.1,0c0,0,0,0,0,0c0,0,0,0,0,0
			c0,0,0,0,0,0c0,0,0,0,0,0c0,0,0,0.1,0,0.1c0,0,0,0.1,0,0.1c0,0,0,0,0,0l7.3,13.4c0,0.1,0.1,0.1,0.2,0.1c0,0,0.1,0,0.1,0
			c0.1-0.1,0.2-0.2,0.1-0.3L93.3,112l10.6,8.6c0,0,0.1,0.1,0.2,0.1c0.1,0,0.1,0,0.2-0.1c0.1-0.1,0.1-0.2,0-0.3L92.7,110.9z"/>
		<path class="st1" d="M104.3,78.6c-0.1-0.1-0.3,0-0.3,0.1c-0.1,0.1,0,0.3,0.1,0.3l16.2,9.2l-26.6-2c-0.1,0-0.2,0.1-0.3,0.2
			c0,0.1,0.1,0.2,0.2,0.3l27.7,2.1c0,0,0,0,0,0c0.1,0,0.2-0.1,0.2-0.2c0-0.1,0-0.2-0.1-0.3L104.3,78.6z"/>
		<path class="st1" d="M78.5,64.2c-0.1,0.1,0,0.3,0.1,0.3l20.8,11.7c0,0,0.1,0,0.1,0c0.1,0,0.2,0,0.2-0.1c0.1-0.1,0-0.3-0.1-0.3
			L78.8,64.1C78.7,64.1,78.5,64.1,78.5,64.2z"/>
		<polygon class="st1" points="66.5,77.4 64.4,76.5 65.6,74.6 63.5,75.4 63,73.3 62.2,75.3 60.3,74.2 61.1,76.2 59,76.8 61,77.6
			59.9,79.5 61.9,78.7 62.4,80.8 63.3,78.8 65.2,79.9 64.3,77.9 		"/>
		<path class="st1" d="M71.6,65.9l-5.8,7.3c-0.2,0.2-0.1,0.5,0.1,0.7c0.1,0.1,0.2,0.1,0.3,0.1c0.1,0,0.3-0.1,0.4-0.2l5.8-7.3
			c0.2-0.2,0.1-0.5-0.1-0.7C72,65.7,71.7,65.7,71.6,65.9z"/>
		<polygon class="st1" points="71.3,62.2 73.3,63.1 72.2,65 74.2,64.2 74.8,66.3 75.6,64.3 77.5,65.4 76.7,63.4 78.8,62.8 76.8,62
			77.9,60.1 75.9,60.9 75.4,58.8 74.5,60.8 72.6,59.7 73.5,61.7 		"/>
	</g>
</g>
</svg>
